<svg width="439" height="90" viewBox="0 0 439 90" fill="none" xmlns="http://www.w3.org/2000/svg">
<path d="M8.45508 28.9395L13.5527 7.40625H16.4004L17.0508 10.9922L11.6191 33H8.56055L8.45508 28.9395ZM5.83594 7.40625L10.0547 28.9395L9.70312 33H6.29297L0.615234 7.40625H5.83594ZM21.5332 28.8516L25.6992 7.40625H30.9199L25.2598 33H21.8496L21.5332 28.8516ZM18 7.40625L23.1328 29.0273L22.9922 33H19.9336L14.4668 10.9746L15.1699 7.40625H18ZM43.1367 28.7109V20.2383C43.1367 19.6289 43.0371 19.1074 42.8379 18.6738C42.6387 18.2285 42.3281 17.8828 41.9062 17.6367C41.4961 17.3906 40.9629 17.2676 40.3066 17.2676C39.7441 17.2676 39.2578 17.3672 38.8477 17.5664C38.4375 17.7539 38.1211 18.0293 37.8984 18.3926C37.6758 18.7441 37.5645 19.1602 37.5645 19.6406H32.502C32.502 18.832 32.6895 18.0645 33.0645 17.3379C33.4395 16.6113 33.9844 15.9727 34.6992 15.4219C35.4141 14.8594 36.2637 14.4199 37.248 14.1035C38.2441 13.7871 39.3574 13.6289 40.5879 13.6289C42.0645 13.6289 43.377 13.875 44.5254 14.3672C45.6738 14.8594 46.5762 15.5977 47.2324 16.582C47.9004 17.5664 48.2344 18.7969 48.2344 20.2734V28.4121C48.2344 29.4551 48.2988 30.3105 48.4277 30.9785C48.5566 31.6348 48.7441 32.209 48.9902 32.7012V33H43.875C43.6289 32.4844 43.4414 31.8398 43.3125 31.0664C43.1953 30.2812 43.1367 29.4961 43.1367 28.7109ZM43.8047 21.416L43.8398 24.2812H41.0098C40.3418 24.2812 39.7617 24.3574 39.2695 24.5098C38.7773 24.6621 38.373 24.8789 38.0566 25.1602C37.7402 25.4297 37.5059 25.7461 37.3535 26.1094C37.2129 26.4727 37.1426 26.8711 37.1426 27.3047C37.1426 27.7383 37.2422 28.1309 37.4414 28.4824C37.6406 28.8223 37.9277 29.0918 38.3027 29.291C38.6777 29.4785 39.1172 29.5723 39.6211 29.5723C40.3828 29.5723 41.0449 29.4199 41.6074 29.1152C42.1699 28.8105 42.6035 28.4355 42.9082 27.9902C43.2246 27.5449 43.3887 27.123 43.4004 26.7246L44.7363 28.8691C44.5488 29.3496 44.291 29.8477 43.9629 30.3633C43.6465 30.8789 43.2422 31.3652 42.75 31.8223C42.2578 32.2676 41.666 32.6367 40.9746 32.9297C40.2832 33.2109 39.4629 33.3516 38.5137 33.3516C37.3066 33.3516 36.2109 33.1113 35.2266 32.6309C34.2539 32.1387 33.4805 31.4648 32.9062 30.6094C32.3438 29.7422 32.0625 28.7578 32.0625 27.6562C32.0625 26.6602 32.25 25.7754 32.625 25.002C33 24.2285 33.5508 23.5781 34.2773 23.0508C35.0156 22.5117 35.9355 22.1074 37.0371 21.8379C38.1387 21.5566 39.416 21.416 40.8691 21.416H43.8047ZM61.4531 13.9805V17.5664H50.3789V13.9805H61.4531ZM53.1211 9.28711H58.1836V27.2695C58.1836 27.8203 58.2539 28.2422 58.3945 28.5352C58.5469 28.8281 58.7695 29.0332 59.0625 29.1504C59.3555 29.2559 59.7246 29.3086 60.1699 29.3086C60.4863 29.3086 60.7676 29.2969 61.0137 29.2734C61.2715 29.2383 61.4883 29.2031 61.6641 29.168L61.6816 32.8945C61.248 33.0352 60.7793 33.1465 60.2754 33.2285C59.7715 33.3105 59.2148 33.3516 58.6055 33.3516C57.4922 33.3516 56.5195 33.1699 55.6875 32.8066C54.8672 32.4316 54.2344 31.834 53.7891 31.0137C53.3438 30.1934 53.1211 29.1152 53.1211 27.7793V9.28711ZM73.0898 33.3516C71.6133 33.3516 70.2891 33.1172 69.1172 32.6484C67.9453 32.168 66.9492 31.5059 66.1289 30.6621C65.3203 29.8184 64.6992 28.8398 64.2656 27.7266C63.832 26.6016 63.6152 25.4062 63.6152 24.1406V23.4375C63.6152 21.9961 63.8203 20.6777 64.2305 19.4824C64.6406 18.2871 65.2266 17.25 65.9883 16.3711C66.7617 15.4922 67.6992 14.8184 68.8008 14.3496C69.9023 13.8691 71.1445 13.6289 72.5273 13.6289C73.875 13.6289 75.0703 13.8516 76.1133 14.2969C77.1562 14.7422 78.0293 15.375 78.7324 16.1953C79.4473 17.0156 79.9863 18 80.3496 19.1484C80.7129 20.2852 80.8945 21.5508 80.8945 22.9453V25.0547H65.7773V21.6797H75.9199V21.293C75.9199 20.5898 75.791 19.9629 75.5332 19.4121C75.2871 18.8496 74.9121 18.4043 74.4082 18.0762C73.9043 17.748 73.2598 17.584 72.4746 17.584C71.8066 17.584 71.2324 17.7305 70.752 18.0234C70.2715 18.3164 69.8789 18.7266 69.5742 19.2539C69.2812 19.7812 69.0586 20.4023 68.9062 21.1172C68.7656 21.8203 68.6953 22.5938 68.6953 23.4375V24.1406C68.6953 24.9023 68.8008 25.6055 69.0117 26.25C69.2344 26.8945 69.5449 27.4512 69.9434 27.9199C70.3535 28.3887 70.8457 28.752 71.4199 29.0098C72.0059 29.2676 72.668 29.3965 73.4062 29.3965C74.3203 29.3965 75.1699 29.2207 75.9551 28.8691C76.752 28.5059 77.4375 27.9609 78.0117 27.2344L80.4727 29.9062C80.0742 30.4805 79.5293 31.0312 78.8379 31.5586C78.1582 32.0859 77.3379 32.5195 76.377 32.8594C75.416 33.1875 74.3203 33.3516 73.0898 33.3516ZM88.8398 18.1289V33H83.7773V13.9805H88.541L88.8398 18.1289ZM94.5703 13.8574L94.4824 18.5508C94.2363 18.5156 93.9375 18.4863 93.5859 18.4629C93.2461 18.4277 92.9355 18.4102 92.6543 18.4102C91.9395 18.4102 91.3184 18.5039 90.791 18.6914C90.2754 18.8672 89.8418 19.1309 89.4902 19.4824C89.1504 19.834 88.8926 20.2617 88.7168 20.7656C88.5527 21.2695 88.459 21.8438 88.4355 22.4883L87.416 22.1719C87.416 20.9414 87.5391 19.8105 87.7852 18.7793C88.0312 17.7363 88.3887 16.8281 88.8574 16.0547C89.3379 15.2812 89.9238 14.6836 90.6152 14.2617C91.3066 13.8398 92.0977 13.6289 92.9883 13.6289C93.2695 13.6289 93.5566 13.6523 93.8496 13.6992C94.1426 13.7344 94.3828 13.7871 94.5703 13.8574ZM113.783 29.3965C114.404 29.3965 114.955 29.2793 115.436 29.0449C115.916 28.7988 116.291 28.459 116.561 28.0254C116.842 27.5801 116.988 27.0586 117 26.4609H121.764C121.752 27.7969 121.395 28.9863 120.691 30.0293C119.988 31.0605 119.045 31.875 117.861 32.4727C116.678 33.0586 115.354 33.3516 113.889 33.3516C112.412 33.3516 111.123 33.1055 110.021 32.6133C108.932 32.1211 108.023 31.4414 107.297 30.5742C106.57 29.6953 106.025 28.6758 105.662 27.5156C105.299 26.3438 105.117 25.0898 105.117 23.7539V23.2441C105.117 21.8965 105.299 20.6426 105.662 19.4824C106.025 18.3105 106.57 17.291 107.297 16.4238C108.023 15.5449 108.932 14.8594 110.021 14.3672C111.111 13.875 112.389 13.6289 113.854 13.6289C115.412 13.6289 116.777 13.9277 117.949 14.5254C119.133 15.123 120.059 15.9785 120.727 17.0918C121.406 18.1934 121.752 19.5 121.764 21.0117H117C116.988 20.3789 116.854 19.8047 116.596 19.2891C116.35 18.7734 115.986 18.3633 115.506 18.0586C115.037 17.7422 114.457 17.584 113.766 17.584C113.027 17.584 112.424 17.7422 111.955 18.0586C111.486 18.3633 111.123 18.7852 110.865 19.3242C110.607 19.8516 110.426 20.4551 110.32 21.1348C110.227 21.8027 110.18 22.5059 110.18 23.2441V23.7539C110.18 24.4922 110.227 25.2012 110.32 25.8809C110.414 26.5605 110.59 27.1641 110.848 27.6914C111.117 28.2188 111.486 28.6348 111.955 28.9395C112.424 29.2441 113.033 29.3965 113.783 29.3965ZM123.891 23.6836V23.3145C123.891 21.9199 124.09 20.6367 124.488 19.4648C124.887 18.2812 125.467 17.2559 126.229 16.3887C126.99 15.5215 127.928 14.8477 129.041 14.3672C130.154 13.875 131.432 13.6289 132.873 13.6289C134.314 13.6289 135.598 13.875 136.723 14.3672C137.848 14.8477 138.791 15.5215 139.553 16.3887C140.326 17.2559 140.912 18.2812 141.311 19.4648C141.709 20.6367 141.908 21.9199 141.908 23.3145V23.6836C141.908 25.0664 141.709 26.3496 141.311 27.5332C140.912 28.7051 140.326 29.7305 139.553 30.6094C138.791 31.4766 137.854 32.1504 136.74 32.6309C135.627 33.1113 134.35 33.3516 132.908 33.3516C131.467 33.3516 130.184 33.1113 129.059 32.6309C127.945 32.1504 127.002 31.4766 126.229 30.6094C125.467 29.7305 124.887 28.7051 124.488 27.5332C124.09 26.3496 123.891 25.0664 123.891 23.6836ZM128.953 23.3145V23.6836C128.953 24.4805 129.023 25.2246 129.164 25.916C129.305 26.6074 129.527 27.2168 129.832 27.7441C130.148 28.2598 130.559 28.6641 131.062 28.957C131.566 29.25 132.182 29.3965 132.908 29.3965C133.611 29.3965 134.215 29.25 134.719 28.957C135.223 28.6641 135.627 28.2598 135.932 27.7441C136.236 27.2168 136.459 26.6074 136.6 25.916C136.752 25.2246 136.828 24.4805 136.828 23.6836V23.3145C136.828 22.541 136.752 21.8145 136.6 21.1348C136.459 20.4434 136.23 19.834 135.914 19.3066C135.609 18.7676 135.205 18.3457 134.701 18.041C134.197 17.7363 133.588 17.584 132.873 17.584C132.158 17.584 131.549 17.7363 131.045 18.041C130.553 18.3457 130.148 18.7676 129.832 19.3066C129.527 19.834 129.305 20.4434 129.164 21.1348C129.023 21.8145 128.953 22.541 128.953 23.3145ZM149.977 18.041V33H144.914V13.9805H149.66L149.977 18.041ZM149.238 22.8223H147.867C147.867 21.416 148.049 20.1504 148.412 19.0254C148.775 17.8887 149.285 16.9219 149.941 16.125C150.598 15.3164 151.377 14.7012 152.279 14.2793C153.193 13.8457 154.213 13.6289 155.338 13.6289C156.229 13.6289 157.043 13.7578 157.781 14.0156C158.52 14.2734 159.152 14.6836 159.68 15.2461C160.219 15.8086 160.629 16.5527 160.91 17.4785C161.203 18.4043 161.35 19.5352 161.35 20.8711V33H156.252V20.8535C156.252 20.0098 156.135 19.3535 155.9 18.8848C155.666 18.416 155.32 18.0879 154.863 17.9004C154.418 17.7012 153.867 17.6016 153.211 17.6016C152.531 17.6016 151.939 17.7363 151.436 18.0059C150.943 18.2754 150.533 18.6504 150.205 19.1309C149.889 19.5996 149.648 20.1504 149.484 20.7832C149.32 21.416 149.238 22.0957 149.238 22.8223ZM175.482 27.7441C175.482 27.3809 175.377 27.0527 175.166 26.7598C174.955 26.4668 174.562 26.1973 173.988 25.9512C173.426 25.6934 172.611 25.459 171.545 25.248C170.584 25.0371 169.688 24.7734 168.855 24.457C168.035 24.1289 167.32 23.7363 166.711 23.2793C166.113 22.8223 165.645 22.2832 165.305 21.6621C164.965 21.0293 164.795 20.3086 164.795 19.5C164.795 18.7031 164.965 17.9531 165.305 17.25C165.656 16.5469 166.154 15.9258 166.799 15.3867C167.455 14.8359 168.252 14.4082 169.189 14.1035C170.139 13.7871 171.205 13.6289 172.389 13.6289C174.041 13.6289 175.459 13.8926 176.643 14.4199C177.838 14.9473 178.752 15.6738 179.385 16.5996C180.029 17.5137 180.352 18.5566 180.352 19.7285H175.289C175.289 19.2363 175.184 18.7969 174.973 18.4102C174.773 18.0117 174.457 17.7012 174.023 17.4785C173.602 17.2441 173.051 17.127 172.371 17.127C171.809 17.127 171.322 17.2266 170.912 17.4258C170.502 17.6133 170.186 17.8711 169.963 18.1992C169.752 18.5156 169.646 18.8672 169.646 19.2539C169.646 19.5469 169.705 19.8105 169.822 20.0449C169.951 20.2676 170.156 20.4727 170.438 20.6602C170.719 20.8477 171.082 21.0234 171.527 21.1875C171.984 21.3398 172.547 21.4805 173.215 21.6094C174.586 21.8906 175.811 22.2598 176.889 22.7168C177.967 23.1621 178.822 23.7715 179.455 24.5449C180.088 25.3066 180.404 26.3086 180.404 27.5508C180.404 28.3945 180.217 29.168 179.842 29.8711C179.467 30.5742 178.928 31.1895 178.225 31.7168C177.521 32.2324 176.678 32.6367 175.693 32.9297C174.721 33.2109 173.625 33.3516 172.406 33.3516C170.637 33.3516 169.137 33.0352 167.906 32.4023C166.688 31.7695 165.762 30.9668 165.129 29.9941C164.508 29.0098 164.197 28.002 164.197 26.9707H168.996C169.02 27.6621 169.195 28.2188 169.523 28.6406C169.863 29.0625 170.291 29.3672 170.807 29.5547C171.334 29.7422 171.902 29.8359 172.512 29.8359C173.168 29.8359 173.713 29.748 174.146 29.5723C174.58 29.3848 174.908 29.1387 175.131 28.834C175.365 28.5176 175.482 28.1543 175.482 27.7441ZM194.941 28.4473V13.9805H200.004V33H195.24L194.941 28.4473ZM195.504 24.5449L196.998 24.5098C196.998 25.7754 196.852 26.9531 196.559 28.043C196.266 29.1211 195.826 30.0586 195.24 30.8555C194.654 31.6406 193.916 32.2559 193.025 32.7012C192.135 33.1348 191.086 33.3516 189.879 33.3516C188.953 33.3516 188.098 33.2227 187.312 32.9648C186.539 32.6953 185.871 32.2793 185.309 31.7168C184.758 31.1426 184.324 30.4102 184.008 29.5195C183.703 28.6172 183.551 27.5332 183.551 26.2676V13.9805H188.613V26.3027C188.613 26.8652 188.678 27.3398 188.807 27.7266C188.947 28.1133 189.141 28.4297 189.387 28.6758C189.633 28.9219 189.92 29.0977 190.248 29.2031C190.588 29.3086 190.963 29.3613 191.373 29.3613C192.416 29.3613 193.236 29.1504 193.834 28.7285C194.443 28.3066 194.871 27.7324 195.117 27.0059C195.375 26.2676 195.504 25.4473 195.504 24.5449ZM208.934 17.918V33H203.854V13.9805H208.617L208.934 17.918ZM208.23 22.8223H206.824C206.824 21.498 206.982 20.2793 207.299 19.166C207.627 18.041 208.102 17.0684 208.723 16.248C209.355 15.416 210.135 14.7715 211.061 14.3145C211.986 13.8574 213.059 13.6289 214.277 13.6289C215.121 13.6289 215.895 13.7578 216.598 14.0156C217.301 14.2617 217.904 14.6543 218.408 15.1934C218.924 15.7207 219.322 16.4121 219.604 17.2676C219.885 18.1113 220.025 19.125 220.025 20.3086V33H214.963V20.8711C214.963 20.0039 214.846 19.3359 214.611 18.8672C214.377 18.3984 214.043 18.0703 213.609 17.8828C213.188 17.6953 212.678 17.6016 212.08 17.6016C211.424 17.6016 210.85 17.7363 210.357 18.0059C209.877 18.2754 209.479 18.6504 209.162 19.1309C208.846 19.5996 208.611 20.1504 208.459 20.7832C208.307 21.416 208.23 22.0957 208.23 22.8223ZM219.551 22.2422L217.74 22.4707C217.74 21.2285 217.893 20.0742 218.197 19.0078C218.514 17.9414 218.977 17.0039 219.586 16.1953C220.207 15.3867 220.975 14.7598 221.889 14.3145C222.803 13.8574 223.857 13.6289 225.053 13.6289C225.967 13.6289 226.799 13.7637 227.549 14.0332C228.299 14.291 228.938 14.707 229.465 15.2812C230.004 15.8438 230.414 16.582 230.695 17.4961C230.988 18.4102 231.135 19.5293 231.135 20.8535V33H226.055V20.8535C226.055 19.9746 225.938 19.3066 225.703 18.8496C225.48 18.3809 225.152 18.0586 224.719 17.8828C224.297 17.6953 223.793 17.6016 223.207 17.6016C222.598 17.6016 222.064 17.7246 221.607 17.9707C221.15 18.2051 220.77 18.5332 220.465 18.9551C220.16 19.377 219.932 19.8691 219.779 20.4316C219.627 20.9824 219.551 21.5859 219.551 22.2422ZM240.117 17.6367V40.3125H235.055V13.9805H239.748L240.117 17.6367ZM252.158 23.2793V23.6484C252.158 25.0312 251.994 26.3145 251.666 27.498C251.35 28.6816 250.881 29.7129 250.26 30.5918C249.639 31.459 248.865 32.1387 247.939 32.6309C247.025 33.1113 245.971 33.3516 244.775 33.3516C243.615 33.3516 242.607 33.1172 241.752 32.6484C240.896 32.1797 240.176 31.5234 239.59 30.6797C239.016 29.8242 238.553 28.834 238.201 27.709C237.85 26.584 237.58 25.377 237.393 24.0879V23.1211C237.58 21.7383 237.85 20.4727 238.201 19.3242C238.553 18.1641 239.016 17.1621 239.59 16.3184C240.176 15.4629 240.891 14.8008 241.734 14.332C242.59 13.8633 243.592 13.6289 244.74 13.6289C245.947 13.6289 247.008 13.8574 247.922 14.3145C248.848 14.7715 249.621 15.4277 250.242 16.2832C250.875 17.1387 251.35 18.1582 251.666 19.3418C251.994 20.5254 252.158 21.8379 252.158 23.2793ZM247.078 23.6484V23.2793C247.078 22.4707 247.008 21.7266 246.867 21.0469C246.738 20.3555 246.527 19.752 246.234 19.2363C245.953 18.7207 245.578 18.3223 245.109 18.041C244.652 17.748 244.096 17.6016 243.439 17.6016C242.748 17.6016 242.156 17.7129 241.664 17.9355C241.184 18.1582 240.791 18.4805 240.486 18.9023C240.182 19.3242 239.953 19.8281 239.801 20.4141C239.648 21 239.555 21.6621 239.52 22.4004V24.8438C239.578 25.7109 239.742 26.4902 240.012 27.1816C240.281 27.8613 240.697 28.4004 241.26 28.7988C241.822 29.1973 242.561 29.3965 243.475 29.3965C244.143 29.3965 244.705 29.25 245.162 28.957C245.619 28.6523 245.988 28.2363 246.27 27.709C246.562 27.1816 246.768 26.5723 246.885 25.8809C247.014 25.1895 247.078 24.4453 247.078 23.6484ZM264.621 13.9805V17.5664H253.547V13.9805H264.621ZM256.289 9.28711H261.352V27.2695C261.352 27.8203 261.422 28.2422 261.562 28.5352C261.715 28.8281 261.938 29.0332 262.23 29.1504C262.523 29.2559 262.893 29.3086 263.338 29.3086C263.654 29.3086 263.936 29.2969 264.182 29.2734C264.439 29.2383 264.656 29.2031 264.832 29.168L264.85 32.8945C264.416 33.0352 263.947 33.1465 263.443 33.2285C262.939 33.3105 262.383 33.3516 261.773 33.3516C260.66 33.3516 259.688 33.1699 258.855 32.8066C258.035 32.4316 257.402 31.834 256.957 31.0137C256.512 30.1934 256.289 29.1152 256.289 27.7793V9.28711ZM272.848 13.9805V33H267.768V13.9805H272.848ZM267.451 9.02344C267.451 8.28516 267.709 7.67578 268.225 7.19531C268.74 6.71484 269.432 6.47461 270.299 6.47461C271.154 6.47461 271.84 6.71484 272.355 7.19531C272.883 7.67578 273.146 8.28516 273.146 9.02344C273.146 9.76172 272.883 10.3711 272.355 10.8516C271.84 11.332 271.154 11.5723 270.299 11.5723C269.432 11.5723 268.74 11.332 268.225 10.8516C267.709 10.3711 267.451 9.76172 267.451 9.02344ZM276.223 23.6836V23.3145C276.223 21.9199 276.422 20.6367 276.82 19.4648C277.219 18.2812 277.799 17.2559 278.561 16.3887C279.322 15.5215 280.26 14.8477 281.373 14.3672C282.486 13.875 283.764 13.6289 285.205 13.6289C286.646 13.6289 287.93 13.875 289.055 14.3672C290.18 14.8477 291.123 15.5215 291.885 16.3887C292.658 17.2559 293.244 18.2812 293.643 19.4648C294.041 20.6367 294.24 21.9199 294.24 23.3145V23.6836C294.24 25.0664 294.041 26.3496 293.643 27.5332C293.244 28.7051 292.658 29.7305 291.885 30.6094C291.123 31.4766 290.186 32.1504 289.072 32.6309C287.959 33.1113 286.682 33.3516 285.24 33.3516C283.799 33.3516 282.516 33.1113 281.391 32.6309C280.277 32.1504 279.334 31.4766 278.561 30.6094C277.799 29.7305 277.219 28.7051 276.82 27.5332C276.422 26.3496 276.223 25.0664 276.223 23.6836ZM281.285 23.3145V23.6836C281.285 24.4805 281.355 25.2246 281.496 25.916C281.637 26.6074 281.859 27.2168 282.164 27.7441C282.48 28.2598 282.891 28.6641 283.395 28.957C283.898 29.25 284.514 29.3965 285.24 29.3965C285.943 29.3965 286.547 29.25 287.051 28.957C287.555 28.6641 287.959 28.2598 288.264 27.7441C288.568 27.2168 288.791 26.6074 288.932 25.916C289.084 25.2246 289.16 24.4805 289.16 23.6836V23.3145C289.16 22.541 289.084 21.8145 288.932 21.1348C288.791 20.4434 288.562 19.834 288.246 19.3066C287.941 18.7676 287.537 18.3457 287.033 18.041C286.529 17.7363 285.92 17.584 285.205 17.584C284.49 17.584 283.881 17.7363 283.377 18.041C282.885 18.3457 282.48 18.7676 282.164 19.3066C281.859 19.834 281.637 20.4434 281.496 21.1348C281.355 21.8145 281.285 22.541 281.285 23.3145ZM302.309 18.041V33H297.246V13.9805H301.992L302.309 18.041ZM301.57 22.8223H300.199C300.199 21.416 300.381 20.1504 300.744 19.0254C301.107 17.8887 301.617 16.9219 302.273 16.125C302.93 15.3164 303.709 14.7012 304.611 14.2793C305.525 13.8457 306.545 13.6289 307.67 13.6289C308.561 13.6289 309.375 13.7578 310.113 14.0156C310.852 14.2734 311.484 14.6836 312.012 15.2461C312.551 15.8086 312.961 16.5527 313.242 17.4785C313.535 18.4043 313.682 19.5352 313.682 20.8711V33H308.584V20.8535C308.584 20.0098 308.467 19.3535 308.232 18.8848C307.998 18.416 307.652 18.0879 307.195 17.9004C306.75 17.7012 306.199 17.6016 305.543 17.6016C304.863 17.6016 304.271 17.7363 303.768 18.0059C303.275 18.2754 302.865 18.6504 302.537 19.1309C302.221 19.5996 301.98 20.1504 301.816 20.7832C301.652 21.416 301.57 22.0957 301.57 22.8223ZM335.812 13.9805V17.5664H324.738V13.9805H335.812ZM327.48 9.28711H332.543V27.2695C332.543 27.8203 332.613 28.2422 332.754 28.5352C332.906 28.8281 333.129 29.0332 333.422 29.1504C333.715 29.2559 334.084 29.3086 334.529 29.3086C334.846 29.3086 335.127 29.2969 335.373 29.2734C335.631 29.2383 335.848 29.2031 336.023 29.168L336.041 32.8945C335.607 33.0352 335.139 33.1465 334.635 33.2285C334.131 33.3105 333.574 33.3516 332.965 33.3516C331.852 33.3516 330.879 33.1699 330.047 32.8066C329.227 32.4316 328.594 31.834 328.148 31.0137C327.703 30.1934 327.48 29.1152 327.48 27.7793V9.28711ZM343.758 18.1289V33H338.695V13.9805H343.459L343.758 18.1289ZM349.488 13.8574L349.4 18.5508C349.154 18.5156 348.855 18.4863 348.504 18.4629C348.164 18.4277 347.854 18.4102 347.572 18.4102C346.857 18.4102 346.236 18.5039 345.709 18.6914C345.193 18.8672 344.76 19.1309 344.408 19.4824C344.068 19.834 343.811 20.2617 343.635 20.7656C343.471 21.2695 343.377 21.8438 343.354 22.4883L342.334 22.1719C342.334 20.9414 342.457 19.8105 342.703 18.7793C342.949 17.7363 343.307 16.8281 343.775 16.0547C344.256 15.2812 344.842 14.6836 345.533 14.2617C346.225 13.8398 347.016 13.6289 347.906 13.6289C348.188 13.6289 348.475 13.6523 348.768 13.6992C349.061 13.7344 349.301 13.7871 349.488 13.8574ZM361.547 28.7109V20.2383C361.547 19.6289 361.447 19.1074 361.248 18.6738C361.049 18.2285 360.738 17.8828 360.316 17.6367C359.906 17.3906 359.373 17.2676 358.717 17.2676C358.154 17.2676 357.668 17.3672 357.258 17.5664C356.848 17.7539 356.531 18.0293 356.309 18.3926C356.086 18.7441 355.975 19.1602 355.975 19.6406H350.912C350.912 18.832 351.1 18.0645 351.475 17.3379C351.85 16.6113 352.395 15.9727 353.109 15.4219C353.824 14.8594 354.674 14.4199 355.658 14.1035C356.654 13.7871 357.768 13.6289 358.998 13.6289C360.475 13.6289 361.787 13.875 362.936 14.3672C364.084 14.8594 364.986 15.5977 365.643 16.582C366.311 17.5664 366.645 18.7969 366.645 20.2734V28.4121C366.645 29.4551 366.709 30.3105 366.838 30.9785C366.967 31.6348 367.154 32.209 367.4 32.7012V33H362.285C362.039 32.4844 361.852 31.8398 361.723 31.0664C361.605 30.2812 361.547 29.4961 361.547 28.7109ZM362.215 21.416L362.25 24.2812H359.42C358.752 24.2812 358.172 24.3574 357.68 24.5098C357.188 24.6621 356.783 24.8789 356.467 25.1602C356.15 25.4297 355.916 25.7461 355.764 26.1094C355.623 26.4727 355.553 26.8711 355.553 27.3047C355.553 27.7383 355.652 28.1309 355.852 28.4824C356.051 28.8223 356.338 29.0918 356.713 29.291C357.088 29.4785 357.527 29.5723 358.031 29.5723C358.793 29.5723 359.455 29.4199 360.018 29.1152C360.58 28.8105 361.014 28.4355 361.318 27.9902C361.635 27.5449 361.799 27.123 361.811 26.7246L363.146 28.8691C362.959 29.3496 362.701 29.8477 362.373 30.3633C362.057 30.8789 361.652 31.3652 361.16 31.8223C360.668 32.2676 360.076 32.6367 359.385 32.9297C358.693 33.2109 357.873 33.3516 356.924 33.3516C355.717 33.3516 354.621 33.1113 353.637 32.6309C352.664 32.1387 351.891 31.4648 351.316 30.6094C350.754 29.7422 350.473 28.7578 350.473 27.6562C350.473 26.6602 350.66 25.7754 351.035 25.002C351.41 24.2285 351.961 23.5781 352.688 23.0508C353.426 22.5117 354.346 22.1074 355.447 21.8379C356.549 21.5566 357.826 21.416 359.279 21.416H362.215ZM378.404 29.3965C379.025 29.3965 379.576 29.2793 380.057 29.0449C380.537 28.7988 380.912 28.459 381.182 28.0254C381.463 27.5801 381.609 27.0586 381.621 26.4609H386.385C386.373 27.7969 386.016 28.9863 385.312 30.0293C384.609 31.0605 383.666 31.875 382.482 32.4727C381.299 33.0586 379.975 33.3516 378.51 33.3516C377.033 33.3516 375.744 33.1055 374.643 32.6133C373.553 32.1211 372.645 31.4414 371.918 30.5742C371.191 29.6953 370.646 28.6758 370.283 27.5156C369.92 26.3438 369.738 25.0898 369.738 23.7539V23.2441C369.738 21.8965 369.92 20.6426 370.283 19.4824C370.646 18.3105 371.191 17.291 371.918 16.4238C372.645 15.5449 373.553 14.8594 374.643 14.3672C375.732 13.875 377.01 13.6289 378.475 13.6289C380.033 13.6289 381.398 13.9277 382.57 14.5254C383.754 15.123 384.68 15.9785 385.348 17.0918C386.027 18.1934 386.373 19.5 386.385 21.0117H381.621C381.609 20.3789 381.475 19.8047 381.217 19.2891C380.971 18.7734 380.607 18.3633 380.127 18.0586C379.658 17.7422 379.078 17.584 378.387 17.584C377.648 17.584 377.045 17.7422 376.576 18.0586C376.107 18.3633 375.744 18.7852 375.486 19.3242C375.229 19.8516 375.047 20.4551 374.941 21.1348C374.848 21.8027 374.801 22.5059 374.801 23.2441V23.7539C374.801 24.4922 374.848 25.2012 374.941 25.8809C375.035 26.5605 375.211 27.1641 375.469 27.6914C375.738 28.2188 376.107 28.6348 376.576 28.9395C377.045 29.2441 377.654 29.3965 378.404 29.3965ZM394.383 5.98242V33H389.32V5.98242H394.383ZM406.371 13.9805L398.109 23.4023L393.68 27.8848L391.834 24.2285L395.35 19.7637L400.289 13.9805H406.371ZM401.115 33L395.49 24.2109L398.988 21.1523L406.951 33H401.115ZM416.953 33.3516C415.477 33.3516 414.152 33.1172 412.98 32.6484C411.809 32.168 410.812 31.5059 409.992 30.6621C409.184 29.8184 408.562 28.8398 408.129 27.7266C407.695 26.6016 407.479 25.4062 407.479 24.1406V23.4375C407.479 21.9961 407.684 20.6777 408.094 19.4824C408.504 18.2871 409.09 17.25 409.852 16.3711C410.625 15.4922 411.562 14.8184 412.664 14.3496C413.766 13.8691 415.008 13.6289 416.391 13.6289C417.738 13.6289 418.934 13.8516 419.977 14.2969C421.02 14.7422 421.893 15.375 422.596 16.1953C423.311 17.0156 423.85 18 424.213 19.1484C424.576 20.2852 424.758 21.5508 424.758 22.9453V25.0547H409.641V21.6797H419.783V21.293C419.783 20.5898 419.654 19.9629 419.396 19.4121C419.15 18.8496 418.775 18.4043 418.271 18.0762C417.768 17.748 417.123 17.584 416.338 17.584C415.67 17.584 415.096 17.7305 414.615 18.0234C414.135 18.3164 413.742 18.7266 413.438 19.2539C413.145 19.7812 412.922 20.4023 412.77 21.1172C412.629 21.8203 412.559 22.5938 412.559 23.4375V24.1406C412.559 24.9023 412.664 25.6055 412.875 26.25C413.098 26.8945 413.408 27.4512 413.807 27.9199C414.217 28.3887 414.709 28.752 415.283 29.0098C415.869 29.2676 416.531 29.3965 417.27 29.3965C418.184 29.3965 419.033 29.2207 419.818 28.8691C420.615 28.5059 421.301 27.9609 421.875 27.2344L424.336 29.9062C423.938 30.4805 423.393 31.0312 422.701 31.5586C422.021 32.0859 421.201 32.5195 420.24 32.8594C419.279 33.1875 418.184 33.3516 416.953 33.3516ZM432.703 18.1289V33H427.641V13.9805H432.404L432.703 18.1289ZM438.434 13.8574L438.346 18.5508C438.1 18.5156 437.801 18.4863 437.449 18.4629C437.109 18.4277 436.799 18.4102 436.518 18.4102C435.803 18.4102 435.182 18.5039 434.654 18.6914C434.139 18.8672 433.705 19.1309 433.354 19.4824C433.014 19.834 432.756 20.2617 432.58 20.7656C432.416 21.2695 432.322 21.8438 432.299 22.4883L431.279 22.1719C431.279 20.9414 431.402 19.8105 431.648 18.7793C431.895 17.7363 432.252 16.8281 432.721 16.0547C433.201 15.2812 433.787 14.6836 434.479 14.2617C435.17 13.8398 435.961 13.6289 436.852 13.6289C437.133 13.6289 437.42 13.6523 437.713 13.6992C438.006 13.7344 438.246 13.7871 438.434 13.8574Z" fill="#2F2F2F"/>
<path d="M2.14551 64.5156H8.26465C9.65267 64.5156 10.8249 64.7272 11.7812 65.1504C12.7461 65.5736 13.4782 66.1999 13.9775 67.0293C14.4854 67.8503 14.7393 68.8617 14.7393 70.0635C14.7393 70.9098 14.5658 71.6842 14.2188 72.3867C13.8802 73.0807 13.3893 73.6732 12.7461 74.1641C12.1113 74.6465 11.3496 75.0062 10.4609 75.2432L9.77539 75.5098H4.02441L3.99902 73.5166H8.34082C9.22103 73.5166 9.95312 73.3643 10.5371 73.0596C11.1211 72.7464 11.5612 72.3275 11.8574 71.8027C12.1536 71.278 12.3018 70.6982 12.3018 70.0635C12.3018 69.3525 12.1621 68.7305 11.8828 68.1973C11.6035 67.6641 11.1634 67.2536 10.5625 66.9658C9.97005 66.6696 9.2041 66.5215 8.26465 66.5215H4.5957V83H2.14551V64.5156ZM12.9492 83L8.45508 74.6211L11.0068 74.6084L15.5645 82.8477V83H12.9492ZM23.5117 83.2539C22.5553 83.2539 21.6878 83.0931 20.9092 82.7715C20.139 82.4414 19.4746 81.9801 18.916 81.3877C18.3659 80.7952 17.9427 80.0928 17.6465 79.2803C17.3503 78.4678 17.2021 77.5791 17.2021 76.6143V76.0811C17.2021 74.9639 17.3672 73.9694 17.6973 73.0977C18.0273 72.2174 18.4759 71.4727 19.043 70.8633C19.61 70.2539 20.2533 69.7926 20.9727 69.4795C21.6921 69.1663 22.4368 69.0098 23.207 69.0098C24.1888 69.0098 25.0352 69.179 25.7461 69.5176C26.4655 69.8561 27.0537 70.3301 27.5107 70.9395C27.9678 71.5404 28.3063 72.2513 28.5264 73.0723C28.7464 73.8848 28.8564 74.7734 28.8564 75.7383V76.792H18.5986V74.875H26.5078V74.6973C26.474 74.0879 26.347 73.4954 26.127 72.9199C25.9154 72.3444 25.5768 71.8704 25.1113 71.498C24.6458 71.1257 24.0111 70.9395 23.207 70.9395C22.6738 70.9395 22.1829 71.0537 21.7344 71.2822C21.2858 71.5023 20.9007 71.8324 20.5791 72.2725C20.2575 72.7126 20.0078 73.25 19.8301 73.8848C19.6523 74.5195 19.5635 75.2516 19.5635 76.0811V76.6143C19.5635 77.266 19.6523 77.8796 19.8301 78.4551C20.0163 79.0221 20.2829 79.5215 20.6299 79.9531C20.9854 80.3848 21.4128 80.7233 21.9121 80.9688C22.4199 81.2142 22.9954 81.3369 23.6387 81.3369C24.4681 81.3369 25.1706 81.1676 25.7461 80.8291C26.3216 80.4906 26.8252 80.0378 27.2568 79.4707L28.6787 80.6006C28.3825 81.0492 28.0059 81.4766 27.5488 81.8828C27.0918 82.2891 26.529 82.6191 25.8604 82.873C25.2002 83.127 24.4173 83.2539 23.5117 83.2539ZM37.0957 81.3242C37.6543 81.3242 38.1706 81.21 38.6445 80.9814C39.1185 80.7529 39.5078 80.4398 39.8125 80.042C40.1172 79.6357 40.2907 79.1745 40.333 78.6582H42.5674C42.5251 79.4707 42.25 80.2282 41.7422 80.9307C41.2428 81.6247 40.5869 82.1875 39.7744 82.6191C38.9619 83.0423 38.069 83.2539 37.0957 83.2539C36.0632 83.2539 35.1618 83.0719 34.3916 82.708C33.6299 82.3441 32.9951 81.8447 32.4873 81.21C31.988 80.5752 31.6113 79.8473 31.3574 79.0264C31.112 78.1969 30.9893 77.321 30.9893 76.3984V75.8652C30.9893 74.9427 31.112 74.071 31.3574 73.25C31.6113 72.4206 31.988 71.6885 32.4873 71.0537C32.9951 70.4189 33.6299 69.9196 34.3916 69.5557C35.1618 69.1917 36.0632 69.0098 37.0957 69.0098C38.1706 69.0098 39.11 69.2298 39.9141 69.6699C40.7181 70.1016 41.3486 70.694 41.8057 71.4473C42.2712 72.1921 42.5251 73.0384 42.5674 73.9863H40.333C40.2907 73.4193 40.1299 72.9072 39.8506 72.4502C39.5798 71.9932 39.2074 71.6292 38.7334 71.3584C38.2679 71.0791 37.722 70.9395 37.0957 70.9395C36.3763 70.9395 35.7712 71.0833 35.2803 71.3711C34.7979 71.6504 34.4128 72.0312 34.125 72.5137C33.8457 72.9876 33.6426 73.5166 33.5156 74.1006C33.3971 74.6761 33.3379 75.2643 33.3379 75.8652V76.3984C33.3379 76.9993 33.3971 77.5918 33.5156 78.1758C33.6341 78.7598 33.833 79.2887 34.1123 79.7627C34.4001 80.2367 34.7852 80.6175 35.2676 80.9053C35.7585 81.1846 36.3678 81.3242 37.0957 81.3242ZM44.5859 76.2842V75.9922C44.5859 75.002 44.7298 74.0837 45.0176 73.2373C45.3053 72.3825 45.7201 71.6419 46.2617 71.0156C46.8034 70.3809 47.4593 69.89 48.2295 69.543C48.9997 69.1875 49.863 69.0098 50.8193 69.0098C51.7842 69.0098 52.6517 69.1875 53.4219 69.543C54.2005 69.89 54.8607 70.3809 55.4023 71.0156C55.9525 71.6419 56.3714 72.3825 56.6592 73.2373C56.9469 74.0837 57.0908 75.002 57.0908 75.9922V76.2842C57.0908 77.2744 56.9469 78.1927 56.6592 79.0391C56.3714 79.8854 55.9525 80.626 55.4023 81.2607C54.8607 81.887 54.2048 82.3779 53.4346 82.7334C52.6729 83.0804 51.8096 83.2539 50.8447 83.2539C49.8799 83.2539 49.0124 83.0804 48.2422 82.7334C47.472 82.3779 46.8118 81.887 46.2617 81.2607C45.7201 80.626 45.3053 79.8854 45.0176 79.0391C44.7298 78.1927 44.5859 77.2744 44.5859 76.2842ZM46.9346 75.9922V76.2842C46.9346 76.9697 47.015 77.6172 47.1758 78.2266C47.3366 78.8275 47.5778 79.3607 47.8994 79.8262C48.2295 80.2917 48.64 80.6598 49.1309 80.9307C49.6217 81.193 50.193 81.3242 50.8447 81.3242C51.488 81.3242 52.0508 81.193 52.5332 80.9307C53.0241 80.6598 53.4303 80.2917 53.752 79.8262C54.0736 79.3607 54.3148 78.8275 54.4756 78.2266C54.6449 77.6172 54.7295 76.9697 54.7295 76.2842V75.9922C54.7295 75.3151 54.6449 74.6761 54.4756 74.0752C54.3148 73.4658 54.0693 72.9284 53.7393 72.4629C53.4176 71.9889 53.0114 71.6165 52.5205 71.3457C52.0381 71.0749 51.471 70.9395 50.8193 70.9395C50.1761 70.9395 49.609 71.0749 49.1182 71.3457C48.6357 71.6165 48.2295 71.9889 47.8994 72.4629C47.5778 72.9284 47.3366 73.4658 47.1758 74.0752C47.015 74.6761 46.9346 75.3151 46.9346 75.9922ZM62.3848 71.4219V83H60.0361V69.2637H62.3213L62.3848 71.4219ZM66.6758 69.1875L66.6631 71.3711C66.4684 71.3288 66.2822 71.3034 66.1045 71.2949C65.9352 71.278 65.7406 71.2695 65.5205 71.2695C64.9788 71.2695 64.5007 71.3542 64.0859 71.5234C63.6712 71.6927 63.32 71.9297 63.0322 72.2344C62.7445 72.5391 62.516 72.903 62.3467 73.3262C62.1859 73.7409 62.0801 74.1979 62.0293 74.6973L61.3691 75.0781C61.3691 74.2487 61.4495 73.4701 61.6104 72.7422C61.7796 72.0143 62.0378 71.3711 62.3848 70.8125C62.7318 70.2454 63.1719 69.8053 63.7051 69.4922C64.2467 69.1706 64.89 69.0098 65.6348 69.0098C65.804 69.0098 65.9987 69.0309 66.2188 69.0732C66.4388 69.1071 66.5911 69.1452 66.6758 69.1875ZM77.251 80.334V63.5H79.6123V83H77.4541L77.251 80.334ZM68.0088 76.2842V76.0176C68.0088 74.9681 68.1357 74.016 68.3896 73.1611C68.652 72.2979 69.0202 71.5573 69.4941 70.9395C69.9766 70.3216 70.5479 69.8477 71.208 69.5176C71.8766 69.179 72.6214 69.0098 73.4424 69.0098C74.3057 69.0098 75.0589 69.1621 75.7021 69.4668C76.3538 69.763 76.904 70.1989 77.3525 70.7744C77.8096 71.3415 78.1693 72.027 78.4316 72.8311C78.694 73.6351 78.876 74.5449 78.9775 75.5605V76.7285C78.8844 77.7357 78.7025 78.6413 78.4316 79.4453C78.1693 80.2493 77.8096 80.9349 77.3525 81.502C76.904 82.069 76.3538 82.5049 75.7021 82.8096C75.0505 83.1058 74.2887 83.2539 73.417 83.2539C72.613 83.2539 71.8766 83.0804 71.208 82.7334C70.5479 82.3864 69.9766 81.8997 69.4941 81.2734C69.0202 80.6471 68.652 79.9108 68.3896 79.0645C68.1357 78.2096 68.0088 77.2829 68.0088 76.2842ZM70.3701 76.0176V76.2842C70.3701 76.9697 70.4378 77.613 70.5732 78.2139C70.7171 78.8148 70.9372 79.3438 71.2334 79.8008C71.5296 80.2578 71.9062 80.6175 72.3633 80.8799C72.8203 81.1338 73.3662 81.2607 74.001 81.2607C74.7796 81.2607 75.4186 81.0957 75.918 80.7656C76.4258 80.4355 76.832 79.9997 77.1367 79.458C77.4414 78.9163 77.6784 78.3281 77.8477 77.6934V74.6338C77.7461 74.1683 77.598 73.7197 77.4033 73.2881C77.2171 72.848 76.9717 72.4587 76.667 72.1201C76.3708 71.7731 76.0026 71.498 75.5625 71.2949C75.1309 71.0918 74.6188 70.9902 74.0264 70.9902C73.3831 70.9902 72.8288 71.1257 72.3633 71.3965C71.9062 71.6589 71.5296 72.0228 71.2334 72.4883C70.9372 72.9453 70.7171 73.4785 70.5732 74.0879C70.4378 74.6888 70.3701 75.332 70.3701 76.0176ZM98.376 80.334V63.5H100.737V83H98.5791L98.376 80.334ZM89.1338 76.2842V76.0176C89.1338 74.9681 89.2607 74.016 89.5146 73.1611C89.777 72.2979 90.1452 71.5573 90.6191 70.9395C91.1016 70.3216 91.6729 69.8477 92.333 69.5176C93.0016 69.179 93.7464 69.0098 94.5674 69.0098C95.4307 69.0098 96.1839 69.1621 96.8271 69.4668C97.4788 69.763 98.029 70.1989 98.4775 70.7744C98.9346 71.3415 99.2943 72.027 99.5566 72.8311C99.819 73.6351 100.001 74.5449 100.103 75.5605V76.7285C100.009 77.7357 99.8275 78.6413 99.5566 79.4453C99.2943 80.2493 98.9346 80.9349 98.4775 81.502C98.029 82.069 97.4788 82.5049 96.8271 82.8096C96.1755 83.1058 95.4137 83.2539 94.542 83.2539C93.738 83.2539 93.0016 83.0804 92.333 82.7334C91.6729 82.3864 91.1016 81.8997 90.6191 81.2734C90.1452 80.6471 89.777 79.9108 89.5146 79.0645C89.2607 78.2096 89.1338 77.2829 89.1338 76.2842ZM91.4951 76.0176V76.2842C91.4951 76.9697 91.5628 77.613 91.6982 78.2139C91.8421 78.8148 92.0622 79.3438 92.3584 79.8008C92.6546 80.2578 93.0312 80.6175 93.4883 80.8799C93.9453 81.1338 94.4912 81.2607 95.126 81.2607C95.9046 81.2607 96.5436 81.0957 97.043 80.7656C97.5508 80.4355 97.957 79.9997 98.2617 79.458C98.5664 78.9163 98.8034 78.3281 98.9727 77.6934V74.6338C98.8711 74.1683 98.723 73.7197 98.5283 73.2881C98.3421 72.848 98.0967 72.4587 97.792 72.1201C97.4958 71.7731 97.1276 71.498 96.6875 71.2949C96.2559 71.0918 95.7438 70.9902 95.1514 70.9902C94.5081 70.9902 93.9538 71.1257 93.4883 71.3965C93.0312 71.6589 92.6546 72.0228 92.3584 72.4883C92.0622 72.9453 91.8421 73.4785 91.6982 74.0879C91.5628 74.6888 91.4951 75.332 91.4951 76.0176ZM112.493 80.6514V73.5801C112.493 73.0384 112.383 72.5687 112.163 72.1709C111.951 71.7646 111.63 71.4515 111.198 71.2314C110.767 71.0114 110.233 70.9014 109.599 70.9014C109.006 70.9014 108.486 71.0029 108.037 71.2061C107.597 71.4092 107.25 71.6758 106.996 72.0059C106.751 72.3359 106.628 72.6914 106.628 73.0723H104.279C104.279 72.5814 104.406 72.0947 104.66 71.6123C104.914 71.1299 105.278 70.694 105.752 70.3047C106.234 69.9069 106.81 69.5938 107.479 69.3652C108.156 69.1283 108.909 69.0098 109.738 69.0098C110.737 69.0098 111.617 69.179 112.379 69.5176C113.149 69.8561 113.75 70.3682 114.182 71.0537C114.622 71.7308 114.842 72.5814 114.842 73.6055V80.0039C114.842 80.4609 114.88 80.9476 114.956 81.4639C115.041 81.9801 115.163 82.4245 115.324 82.7969V83H112.874C112.756 82.7292 112.662 82.3695 112.595 81.9209C112.527 81.4639 112.493 81.0407 112.493 80.6514ZM112.899 74.6719L112.925 76.3223H110.551C109.882 76.3223 109.285 76.3773 108.761 76.4873C108.236 76.5889 107.796 76.7454 107.44 76.957C107.085 77.1686 106.814 77.4352 106.628 77.7568C106.442 78.07 106.349 78.4382 106.349 78.8613C106.349 79.293 106.446 79.6865 106.641 80.042C106.835 80.3975 107.127 80.681 107.517 80.8926C107.914 81.0957 108.401 81.1973 108.977 81.1973C109.696 81.1973 110.331 81.0449 110.881 80.7402C111.431 80.4355 111.867 80.0632 112.188 79.623C112.519 79.1829 112.696 78.7555 112.722 78.3408L113.725 79.4707C113.665 79.8262 113.505 80.2197 113.242 80.6514C112.98 81.083 112.629 81.4977 112.188 81.8955C111.757 82.2848 111.241 82.6107 110.64 82.873C110.047 83.127 109.379 83.2539 108.634 83.2539C107.703 83.2539 106.886 83.0719 106.184 82.708C105.49 82.3441 104.948 81.8574 104.559 81.248C104.178 80.6302 103.987 79.9404 103.987 79.1787C103.987 78.4424 104.131 77.7949 104.419 77.2363C104.707 76.6693 105.121 76.1995 105.663 75.8271C106.205 75.4463 106.856 75.1585 107.618 74.9639C108.38 74.7692 109.23 74.6719 110.17 74.6719H112.899ZM121.088 69.2637V83H118.727V69.2637H121.088ZM118.549 65.6201C118.549 65.2393 118.663 64.9176 118.892 64.6553C119.129 64.3929 119.476 64.2617 119.933 64.2617C120.381 64.2617 120.724 64.3929 120.961 64.6553C121.206 64.9176 121.329 65.2393 121.329 65.6201C121.329 65.984 121.206 66.2972 120.961 66.5596C120.724 66.8135 120.381 66.9404 119.933 66.9404C119.476 66.9404 119.129 66.8135 118.892 66.5596C118.663 66.2972 118.549 65.984 118.549 65.6201ZM127.41 63.5V83H125.049V63.5H127.41ZM135.04 81.5781L138.861 69.2637H141.375L135.865 85.1201C135.738 85.4587 135.569 85.8226 135.357 86.2119C135.154 86.6097 134.892 86.9863 134.57 87.3418C134.249 87.6973 133.859 87.985 133.402 88.2051C132.954 88.4336 132.416 88.5479 131.79 88.5479C131.604 88.5479 131.367 88.5225 131.079 88.4717C130.791 88.4209 130.588 88.3786 130.47 88.3447L130.457 86.4404C130.525 86.4489 130.631 86.4574 130.774 86.4658C130.927 86.4827 131.033 86.4912 131.092 86.4912C131.625 86.4912 132.078 86.4193 132.45 86.2754C132.823 86.14 133.136 85.9072 133.39 85.5771C133.652 85.2555 133.876 84.8112 134.062 84.2441L135.04 81.5781ZM132.234 69.2637L135.802 79.9277L136.411 82.4033L134.723 83.2666L129.67 69.2637H132.234ZM153.423 80.5625L156.952 69.2637H158.501L158.196 71.5107L154.604 83H153.093L153.423 80.5625ZM151.049 69.2637L154.058 80.6895L154.273 83H152.687L148.7 69.2637H151.049ZM161.878 80.6006L164.747 69.2637H167.083L163.097 83H161.522L161.878 80.6006ZM158.844 69.2637L162.297 80.3721L162.69 83H161.192L157.498 71.4854L157.193 69.2637H158.844ZM177.595 80.6514V73.5801C177.595 73.0384 177.485 72.5687 177.265 72.1709C177.053 71.7646 176.731 71.4515 176.3 71.2314C175.868 71.0114 175.335 70.9014 174.7 70.9014C174.108 70.9014 173.587 71.0029 173.139 71.2061C172.699 71.4092 172.352 71.6758 172.098 72.0059C171.852 72.3359 171.729 72.6914 171.729 73.0723H169.381C169.381 72.5814 169.508 72.0947 169.762 71.6123C170.016 71.1299 170.38 70.694 170.854 70.3047C171.336 69.9069 171.911 69.5938 172.58 69.3652C173.257 69.1283 174.01 69.0098 174.84 69.0098C175.839 69.0098 176.719 69.179 177.48 69.5176C178.251 69.8561 178.852 70.3682 179.283 71.0537C179.723 71.7308 179.943 72.5814 179.943 73.6055V80.0039C179.943 80.4609 179.981 80.9476 180.058 81.4639C180.142 81.9801 180.265 82.4245 180.426 82.7969V83H177.976C177.857 82.7292 177.764 82.3695 177.696 81.9209C177.629 81.4639 177.595 81.0407 177.595 80.6514ZM178.001 74.6719L178.026 76.3223H175.652C174.984 76.3223 174.387 76.3773 173.862 76.4873C173.338 76.5889 172.897 76.7454 172.542 76.957C172.187 77.1686 171.916 77.4352 171.729 77.7568C171.543 78.07 171.45 78.4382 171.45 78.8613C171.45 79.293 171.548 79.6865 171.742 80.042C171.937 80.3975 172.229 80.681 172.618 80.8926C173.016 81.0957 173.503 81.1973 174.078 81.1973C174.798 81.1973 175.432 81.0449 175.982 80.7402C176.533 80.4355 176.968 80.0632 177.29 79.623C177.62 79.1829 177.798 78.7555 177.823 78.3408L178.826 79.4707C178.767 79.8262 178.606 80.2197 178.344 80.6514C178.081 81.083 177.73 81.4977 177.29 81.8955C176.858 82.2848 176.342 82.6107 175.741 82.873C175.149 83.127 174.48 83.2539 173.735 83.2539C172.804 83.2539 171.988 83.0719 171.285 82.708C170.591 82.3441 170.049 81.8574 169.66 81.248C169.279 80.6302 169.089 79.9404 169.089 79.1787C169.089 78.4424 169.233 77.7949 169.521 77.2363C169.808 76.6693 170.223 76.1995 170.765 75.8271C171.306 75.4463 171.958 75.1585 172.72 74.9639C173.481 74.7692 174.332 74.6719 175.271 74.6719H178.001ZM189.389 69.2637V71.0664H181.962V69.2637H189.389ZM184.476 65.9248H186.824V79.5977C186.824 80.0632 186.896 80.4144 187.04 80.6514C187.184 80.8883 187.37 81.0449 187.599 81.1211C187.827 81.1973 188.073 81.2354 188.335 81.2354C188.53 81.2354 188.733 81.2184 188.944 81.1846C189.164 81.1423 189.329 81.1084 189.439 81.083L189.452 83C189.266 83.0592 189.021 83.1143 188.716 83.165C188.42 83.2243 188.06 83.2539 187.637 83.2539C187.061 83.2539 186.532 83.1396 186.05 82.9111C185.567 82.6826 185.182 82.3018 184.895 81.7686C184.615 81.2269 184.476 80.499 184.476 79.585V65.9248ZM197.844 83.2539C196.887 83.2539 196.02 83.0931 195.241 82.7715C194.471 82.4414 193.807 81.9801 193.248 81.3877C192.698 80.7952 192.275 80.0928 191.979 79.2803C191.682 78.4678 191.534 77.5791 191.534 76.6143V76.0811C191.534 74.9639 191.699 73.9694 192.029 73.0977C192.359 72.2174 192.808 71.4727 193.375 70.8633C193.942 70.2539 194.585 69.7926 195.305 69.4795C196.024 69.1663 196.769 69.0098 197.539 69.0098C198.521 69.0098 199.367 69.179 200.078 69.5176C200.798 69.8561 201.386 70.3301 201.843 70.9395C202.3 71.5404 202.638 72.2513 202.858 73.0723C203.078 73.8848 203.188 74.7734 203.188 75.7383V76.792H192.931V74.875H200.84V74.6973C200.806 74.0879 200.679 73.4954 200.459 72.9199C200.247 72.3444 199.909 71.8704 199.443 71.498C198.978 71.1257 198.343 70.9395 197.539 70.9395C197.006 70.9395 196.515 71.0537 196.066 71.2822C195.618 71.5023 195.233 71.8324 194.911 72.2725C194.59 72.7126 194.34 73.25 194.162 73.8848C193.984 74.5195 193.896 75.2516 193.896 76.0811V76.6143C193.896 77.266 193.984 77.8796 194.162 78.4551C194.348 79.0221 194.615 79.5215 194.962 79.9531C195.317 80.3848 195.745 80.7233 196.244 80.9688C196.752 81.2142 197.327 81.3369 197.971 81.3369C198.8 81.3369 199.503 81.1676 200.078 80.8291C200.654 80.4906 201.157 80.0378 201.589 79.4707L203.011 80.6006C202.715 81.0492 202.338 81.4766 201.881 81.8828C201.424 82.2891 200.861 82.6191 200.192 82.873C199.532 83.127 198.749 83.2539 197.844 83.2539ZM208.279 71.4219V83H205.931V69.2637H208.216L208.279 71.4219ZM212.57 69.1875L212.558 71.3711C212.363 71.3288 212.177 71.3034 211.999 71.2949C211.83 71.278 211.635 71.2695 211.415 71.2695C210.873 71.2695 210.395 71.3542 209.98 71.5234C209.566 71.6927 209.215 71.9297 208.927 72.2344C208.639 72.5391 208.41 72.903 208.241 73.3262C208.08 73.7409 207.975 74.1979 207.924 74.6973L207.264 75.0781C207.264 74.2487 207.344 73.4701 207.505 72.7422C207.674 72.0143 207.932 71.3711 208.279 70.8125C208.626 70.2454 209.066 69.8053 209.6 69.4922C210.141 69.1706 210.785 69.0098 211.529 69.0098C211.699 69.0098 211.893 69.0309 212.113 69.0732C212.333 69.1071 212.486 69.1452 212.57 69.1875ZM223.742 69.2637V83H221.381V69.2637H223.742ZM221.203 65.6201C221.203 65.2393 221.317 64.9176 221.546 64.6553C221.783 64.3929 222.13 64.2617 222.587 64.2617C223.035 64.2617 223.378 64.3929 223.615 64.6553C223.861 64.9176 223.983 65.2393 223.983 65.6201C223.983 65.984 223.861 66.2972 223.615 66.5596C223.378 66.8135 223.035 66.9404 222.587 66.9404C222.13 66.9404 221.783 66.8135 221.546 66.5596C221.317 66.2972 221.203 65.984 221.203 65.6201ZM229.861 72.1963V83H227.513V69.2637H229.734L229.861 72.1963ZM229.303 75.6113L228.325 75.5732C228.334 74.6338 228.473 73.7663 228.744 72.9707C229.015 72.1667 229.396 71.4684 229.887 70.876C230.378 70.2835 230.962 69.8265 231.639 69.5049C232.324 69.1748 233.082 69.0098 233.911 69.0098C234.588 69.0098 235.198 69.1029 235.739 69.2891C236.281 69.4668 236.742 69.7546 237.123 70.1523C237.512 70.5501 237.809 71.0664 238.012 71.7012C238.215 72.3275 238.316 73.0934 238.316 73.999V83H235.955V73.9736C235.955 73.2542 235.849 72.6787 235.638 72.2471C235.426 71.807 235.117 71.4896 234.711 71.2949C234.305 71.0918 233.805 70.9902 233.213 70.9902C232.629 70.9902 232.096 71.113 231.613 71.3584C231.139 71.6038 230.729 71.9424 230.382 72.374C230.043 72.8057 229.777 73.3008 229.582 73.8594C229.396 74.4095 229.303 74.9935 229.303 75.6113ZM247.635 69.2637V71.0664H240.208V69.2637H247.635ZM242.722 65.9248H245.07V79.5977C245.07 80.0632 245.142 80.4144 245.286 80.6514C245.43 80.8883 245.616 81.0449 245.845 81.1211C246.073 81.1973 246.319 81.2354 246.581 81.2354C246.776 81.2354 246.979 81.2184 247.19 81.1846C247.41 81.1423 247.576 81.1084 247.686 81.083L247.698 83C247.512 83.0592 247.267 83.1143 246.962 83.165C246.666 83.2243 246.306 83.2539 245.883 83.2539C245.307 83.2539 244.778 83.1396 244.296 82.9111C243.813 82.6826 243.428 82.3018 243.141 81.7686C242.861 81.2269 242.722 80.499 242.722 79.585V65.9248ZM258.489 80.6514V73.5801C258.489 73.0384 258.379 72.5687 258.159 72.1709C257.948 71.7646 257.626 71.4515 257.194 71.2314C256.763 71.0114 256.229 70.9014 255.595 70.9014C255.002 70.9014 254.482 71.0029 254.033 71.2061C253.593 71.4092 253.246 71.6758 252.992 72.0059C252.747 72.3359 252.624 72.6914 252.624 73.0723H250.275C250.275 72.5814 250.402 72.0947 250.656 71.6123C250.91 71.1299 251.274 70.694 251.748 70.3047C252.23 69.9069 252.806 69.5938 253.475 69.3652C254.152 69.1283 254.905 69.0098 255.734 69.0098C256.733 69.0098 257.613 69.179 258.375 69.5176C259.145 69.8561 259.746 70.3682 260.178 71.0537C260.618 71.7308 260.838 72.5814 260.838 73.6055V80.0039C260.838 80.4609 260.876 80.9476 260.952 81.4639C261.037 81.9801 261.16 82.4245 261.32 82.7969V83H258.87C258.752 82.7292 258.659 82.3695 258.591 81.9209C258.523 81.4639 258.489 81.0407 258.489 80.6514ZM258.896 74.6719L258.921 76.3223H256.547C255.878 76.3223 255.282 76.3773 254.757 76.4873C254.232 76.5889 253.792 76.7454 253.437 76.957C253.081 77.1686 252.81 77.4352 252.624 77.7568C252.438 78.07 252.345 78.4382 252.345 78.8613C252.345 79.293 252.442 79.6865 252.637 80.042C252.831 80.3975 253.123 80.681 253.513 80.8926C253.91 81.0957 254.397 81.1973 254.973 81.1973C255.692 81.1973 256.327 81.0449 256.877 80.7402C257.427 80.4355 257.863 80.0632 258.185 79.623C258.515 79.1829 258.692 78.7555 258.718 78.3408L259.721 79.4707C259.661 79.8262 259.501 80.2197 259.238 80.6514C258.976 81.083 258.625 81.4977 258.185 81.8955C257.753 82.2848 257.237 82.6107 256.636 82.873C256.043 83.127 255.375 83.2539 254.63 83.2539C253.699 83.2539 252.882 83.0719 252.18 82.708C251.486 82.3441 250.944 81.8574 250.555 81.248C250.174 80.6302 249.983 79.9404 249.983 79.1787C249.983 78.4424 250.127 77.7949 250.415 77.2363C250.703 76.6693 251.118 76.1995 251.659 75.8271C252.201 75.4463 252.853 75.1585 253.614 74.9639C254.376 74.7692 255.227 74.6719 256.166 74.6719H258.896ZM266.894 63.5V83H264.532V63.5H266.894ZM275.285 69.2637L269.293 75.6748L265.941 79.1533L265.751 76.6523L268.15 73.7832L272.416 69.2637H275.285ZM273.14 83L268.239 76.4492L269.458 74.3545L275.907 83H273.14ZM283.156 83.2539C282.2 83.2539 281.332 83.0931 280.554 82.7715C279.784 82.4414 279.119 81.9801 278.561 81.3877C278.01 80.7952 277.587 80.0928 277.291 79.2803C276.995 78.4678 276.847 77.5791 276.847 76.6143V76.0811C276.847 74.9639 277.012 73.9694 277.342 73.0977C277.672 72.2174 278.12 71.4727 278.688 70.8633C279.255 70.2539 279.898 69.7926 280.617 69.4795C281.337 69.1663 282.081 69.0098 282.852 69.0098C283.833 69.0098 284.68 69.179 285.391 69.5176C286.11 69.8561 286.698 70.3301 287.155 70.9395C287.612 71.5404 287.951 72.2513 288.171 73.0723C288.391 73.8848 288.501 74.7734 288.501 75.7383V76.792H278.243V74.875H286.152V74.6973C286.118 74.0879 285.992 73.4954 285.771 72.9199C285.56 72.3444 285.221 71.8704 284.756 71.498C284.29 71.1257 283.656 70.9395 282.852 70.9395C282.318 70.9395 281.827 71.0537 281.379 71.2822C280.93 71.5023 280.545 71.8324 280.224 72.2725C279.902 72.7126 279.652 73.25 279.475 73.8848C279.297 74.5195 279.208 75.2516 279.208 76.0811V76.6143C279.208 77.266 279.297 77.8796 279.475 78.4551C279.661 79.0221 279.927 79.5215 280.274 79.9531C280.63 80.3848 281.057 80.7233 281.557 80.9688C282.064 81.2142 282.64 81.3369 283.283 81.3369C284.113 81.3369 284.815 81.1676 285.391 80.8291C285.966 80.4906 286.47 80.0378 286.901 79.4707L288.323 80.6006C288.027 81.0492 287.65 81.4766 287.193 81.8828C286.736 82.2891 286.174 82.6191 285.505 82.873C284.845 83.127 284.062 83.2539 283.156 83.2539ZM305.792 80.6514V73.5801C305.792 73.0384 305.682 72.5687 305.462 72.1709C305.25 71.7646 304.929 71.4515 304.497 71.2314C304.065 71.0114 303.532 70.9014 302.897 70.9014C302.305 70.9014 301.785 71.0029 301.336 71.2061C300.896 71.4092 300.549 71.6758 300.295 72.0059C300.049 72.3359 299.927 72.6914 299.927 73.0723H297.578C297.578 72.5814 297.705 72.0947 297.959 71.6123C298.213 71.1299 298.577 70.694 299.051 70.3047C299.533 69.9069 300.109 69.5938 300.777 69.3652C301.454 69.1283 302.208 69.0098 303.037 69.0098C304.036 69.0098 304.916 69.179 305.678 69.5176C306.448 69.8561 307.049 70.3682 307.48 71.0537C307.921 71.7308 308.141 72.5814 308.141 73.6055V80.0039C308.141 80.4609 308.179 80.9476 308.255 81.4639C308.34 81.9801 308.462 82.4245 308.623 82.7969V83H306.173C306.054 82.7292 305.961 82.3695 305.894 81.9209C305.826 81.4639 305.792 81.0407 305.792 80.6514ZM306.198 74.6719L306.224 76.3223H303.85C303.181 76.3223 302.584 76.3773 302.06 76.4873C301.535 76.5889 301.095 76.7454 300.739 76.957C300.384 77.1686 300.113 77.4352 299.927 77.7568C299.741 78.07 299.647 78.4382 299.647 78.8613C299.647 79.293 299.745 79.6865 299.939 80.042C300.134 80.3975 300.426 80.681 300.815 80.8926C301.213 81.0957 301.7 81.1973 302.275 81.1973C302.995 81.1973 303.63 81.0449 304.18 80.7402C304.73 80.4355 305.166 80.0632 305.487 79.623C305.817 79.1829 305.995 78.7555 306.021 78.3408L307.023 79.4707C306.964 79.8262 306.803 80.2197 306.541 80.6514C306.279 81.083 305.927 81.4977 305.487 81.8955C305.056 82.2848 304.539 82.6107 303.938 82.873C303.346 83.127 302.677 83.2539 301.933 83.2539C301.002 83.2539 300.185 83.0719 299.482 82.708C298.788 82.3441 298.247 81.8574 297.857 81.248C297.477 80.6302 297.286 79.9404 297.286 79.1787C297.286 78.4424 297.43 77.7949 297.718 77.2363C298.006 76.6693 298.42 76.1995 298.962 75.8271C299.504 75.4463 300.155 75.1585 300.917 74.9639C301.679 74.7692 302.529 74.6719 303.469 74.6719H306.198ZM314.184 72.1963V83H311.835V69.2637H314.057L314.184 72.1963ZM313.625 75.6113L312.647 75.5732C312.656 74.6338 312.796 73.7663 313.066 72.9707C313.337 72.1667 313.718 71.4684 314.209 70.876C314.7 70.2835 315.284 69.8265 315.961 69.5049C316.646 69.1748 317.404 69.0098 318.233 69.0098C318.91 69.0098 319.52 69.1029 320.062 69.2891C320.603 69.4668 321.064 69.7546 321.445 70.1523C321.835 70.5501 322.131 71.0664 322.334 71.7012C322.537 72.3275 322.639 73.0934 322.639 73.999V83H320.277V73.9736C320.277 73.2542 320.172 72.6787 319.96 72.2471C319.748 71.807 319.439 71.4896 319.033 71.2949C318.627 71.0918 318.128 70.9902 317.535 70.9902C316.951 70.9902 316.418 71.113 315.936 71.3584C315.462 71.6038 315.051 71.9424 314.704 72.374C314.366 72.8057 314.099 73.3008 313.904 73.8594C313.718 74.4095 313.625 74.9935 313.625 75.6113ZM334.864 80.334V63.5H337.226V83H335.067L334.864 80.334ZM325.622 76.2842V76.0176C325.622 74.9681 325.749 74.016 326.003 73.1611C326.265 72.2979 326.633 71.5573 327.107 70.9395C327.59 70.3216 328.161 69.8477 328.821 69.5176C329.49 69.179 330.235 69.0098 331.056 69.0098C331.919 69.0098 332.672 69.1621 333.315 69.4668C333.967 69.763 334.517 70.1989 334.966 70.7744C335.423 71.3415 335.783 72.027 336.045 72.8311C336.307 73.6351 336.489 74.5449 336.591 75.5605V76.7285C336.498 77.7357 336.316 78.6413 336.045 79.4453C335.783 80.2493 335.423 80.9349 334.966 81.502C334.517 82.069 333.967 82.5049 333.315 82.8096C332.664 83.1058 331.902 83.2539 331.03 83.2539C330.226 83.2539 329.49 83.0804 328.821 82.7334C328.161 82.3864 327.59 81.8997 327.107 81.2734C326.633 80.6471 326.265 79.9108 326.003 79.0645C325.749 78.2096 325.622 77.2829 325.622 76.2842ZM327.983 76.0176V76.2842C327.983 76.9697 328.051 77.613 328.187 78.2139C328.33 78.8148 328.55 79.3438 328.847 79.8008C329.143 80.2578 329.52 80.6175 329.977 80.8799C330.434 81.1338 330.979 81.2607 331.614 81.2607C332.393 81.2607 333.032 81.0957 333.531 80.7656C334.039 80.4355 334.445 79.9997 334.75 79.458C335.055 78.9163 335.292 78.3281 335.461 77.6934V74.6338C335.359 74.1683 335.211 73.7197 335.017 73.2881C334.83 72.848 334.585 72.4587 334.28 72.1201C333.984 71.7731 333.616 71.498 333.176 71.2949C332.744 71.0918 332.232 70.9902 331.64 70.9902C330.996 70.9902 330.442 71.1257 329.977 71.3965C329.52 71.6589 329.143 72.0228 328.847 72.4883C328.55 72.9453 328.33 73.4785 328.187 74.0879C328.051 74.6888 327.983 75.332 327.983 76.0176ZM353.082 69.2637V71.0664H345.655V69.2637H353.082ZM348.169 65.9248H350.518V79.5977C350.518 80.0632 350.59 80.4144 350.733 80.6514C350.877 80.8883 351.063 81.0449 351.292 81.1211C351.521 81.1973 351.766 81.2354 352.028 81.2354C352.223 81.2354 352.426 81.2184 352.638 81.1846C352.858 81.1423 353.023 81.1084 353.133 81.083L353.146 83C352.959 83.0592 352.714 83.1143 352.409 83.165C352.113 83.2243 351.753 83.2539 351.33 83.2539C350.755 83.2539 350.226 83.1396 349.743 82.9111C349.261 82.6826 348.876 82.3018 348.588 81.7686C348.309 81.2269 348.169 80.499 348.169 79.585V65.9248ZM358.186 71.4219V83H355.837V69.2637H358.122L358.186 71.4219ZM362.477 69.1875L362.464 71.3711C362.269 71.3288 362.083 71.3034 361.905 71.2949C361.736 71.278 361.541 71.2695 361.321 71.2695C360.78 71.2695 360.301 71.3542 359.887 71.5234C359.472 71.6927 359.121 71.9297 358.833 72.2344C358.545 72.5391 358.317 72.903 358.147 73.3262C357.987 73.7409 357.881 74.1979 357.83 74.6973L357.17 75.0781C357.17 74.2487 357.25 73.4701 357.411 72.7422C357.58 72.0143 357.839 71.3711 358.186 70.8125C358.533 70.2454 358.973 69.8053 359.506 69.4922C360.048 69.1706 360.691 69.0098 361.436 69.0098C361.605 69.0098 361.799 69.0309 362.02 69.0732C362.24 69.1071 362.392 69.1452 362.477 69.1875ZM372.239 80.6514V73.5801C372.239 73.0384 372.129 72.5687 371.909 72.1709C371.698 71.7646 371.376 71.4515 370.944 71.2314C370.513 71.0114 369.979 70.9014 369.345 70.9014C368.752 70.9014 368.232 71.0029 367.783 71.2061C367.343 71.4092 366.996 71.6758 366.742 72.0059C366.497 72.3359 366.374 72.6914 366.374 73.0723H364.025C364.025 72.5814 364.152 72.0947 364.406 71.6123C364.66 71.1299 365.024 70.694 365.498 70.3047C365.98 69.9069 366.556 69.5938 367.225 69.3652C367.902 69.1283 368.655 69.0098 369.484 69.0098C370.483 69.0098 371.363 69.179 372.125 69.5176C372.895 69.8561 373.496 70.3682 373.928 71.0537C374.368 71.7308 374.588 72.5814 374.588 73.6055V80.0039C374.588 80.4609 374.626 80.9476 374.702 81.4639C374.787 81.9801 374.91 82.4245 375.07 82.7969V83H372.62C372.502 82.7292 372.409 82.3695 372.341 81.9209C372.273 81.4639 372.239 81.0407 372.239 80.6514ZM372.646 74.6719L372.671 76.3223H370.297C369.628 76.3223 369.032 76.3773 368.507 76.4873C367.982 76.5889 367.542 76.7454 367.187 76.957C366.831 77.1686 366.56 77.4352 366.374 77.7568C366.188 78.07 366.095 78.4382 366.095 78.8613C366.095 79.293 366.192 79.6865 366.387 80.042C366.581 80.3975 366.873 80.681 367.263 80.8926C367.66 81.0957 368.147 81.1973 368.723 81.1973C369.442 81.1973 370.077 81.0449 370.627 80.7402C371.177 80.4355 371.613 80.0632 371.935 79.623C372.265 79.1829 372.442 78.7555 372.468 78.3408L373.471 79.4707C373.411 79.8262 373.251 80.2197 372.988 80.6514C372.726 81.083 372.375 81.4977 371.935 81.8955C371.503 82.2848 370.987 82.6107 370.386 82.873C369.793 83.127 369.125 83.2539 368.38 83.2539C367.449 83.2539 366.632 83.0719 365.93 82.708C365.236 82.3441 364.694 81.8574 364.305 81.248C363.924 80.6302 363.733 79.9404 363.733 79.1787C363.733 78.4424 363.877 77.7949 364.165 77.2363C364.453 76.6693 364.868 76.1995 365.409 75.8271C365.951 75.4463 366.603 75.1585 367.364 74.9639C368.126 74.7692 368.977 74.6719 369.916 74.6719H372.646ZM383.779 81.3242C384.338 81.3242 384.854 81.21 385.328 80.9814C385.802 80.7529 386.191 80.4398 386.496 80.042C386.801 79.6357 386.974 79.1745 387.017 78.6582H389.251C389.209 79.4707 388.934 80.2282 388.426 80.9307C387.926 81.6247 387.271 82.1875 386.458 82.6191C385.646 83.0423 384.753 83.2539 383.779 83.2539C382.747 83.2539 381.845 83.0719 381.075 82.708C380.313 82.3441 379.679 81.8447 379.171 81.21C378.672 80.5752 378.295 79.8473 378.041 79.0264C377.796 78.1969 377.673 77.321 377.673 76.3984V75.8652C377.673 74.9427 377.796 74.071 378.041 73.25C378.295 72.4206 378.672 71.6885 379.171 71.0537C379.679 70.4189 380.313 69.9196 381.075 69.5557C381.845 69.1917 382.747 69.0098 383.779 69.0098C384.854 69.0098 385.794 69.2298 386.598 69.6699C387.402 70.1016 388.032 70.694 388.489 71.4473C388.955 72.1921 389.209 73.0384 389.251 73.9863H387.017C386.974 73.4193 386.813 72.9072 386.534 72.4502C386.263 71.9932 385.891 71.6292 385.417 71.3584C384.951 71.0791 384.406 70.9395 383.779 70.9395C383.06 70.9395 382.455 71.0833 381.964 71.3711C381.481 71.6504 381.096 72.0312 380.809 72.5137C380.529 72.9876 380.326 73.5166 380.199 74.1006C380.081 74.6761 380.021 75.2643 380.021 75.8652V76.3984C380.021 76.9993 380.081 77.5918 380.199 78.1758C380.318 78.7598 380.517 79.2887 380.796 79.7627C381.084 80.2367 381.469 80.6175 381.951 80.9053C382.442 81.1846 383.051 81.3242 383.779 81.3242ZM394.253 63.5V83H391.892V63.5H394.253ZM402.645 69.2637L396.652 75.6748L393.301 79.1533L393.11 76.6523L395.51 73.7832L399.775 69.2637H402.645ZM400.499 83L395.599 76.4492L396.817 74.3545L403.267 83H400.499Z" fill="#2F2F2F"/>
</svg>
