<svg width="248" height="184" viewBox="0 0 248 184" fill="none" xmlns="http://www.w3.org/2000/svg">
<path d="M6.56543 3.20312V16H4.37695V3.20312H6.56543ZM10.582 3.20312V4.96094H0.395508V3.20312H10.582ZM13.5527 8.30078V16H11.4346V6.49023H13.4561L13.5527 8.30078ZM16.4619 6.42871L16.4443 8.39746C16.3154 8.37402 16.1748 8.35645 16.0225 8.34473C15.876 8.33301 15.7295 8.32715 15.583 8.32715C15.2197 8.32715 14.9004 8.37988 14.625 8.48535C14.3496 8.58496 14.1182 8.73145 13.9307 8.9248C13.749 9.1123 13.6084 9.34082 13.5088 9.61035C13.4092 9.87988 13.3506 10.1816 13.333 10.5156L12.8496 10.5508C12.8496 9.95312 12.9082 9.39941 13.0254 8.88965C13.1426 8.37988 13.3184 7.93164 13.5527 7.54492C13.793 7.1582 14.0918 6.85645 14.4492 6.63965C14.8125 6.42285 15.2314 6.31445 15.7061 6.31445C15.835 6.31445 15.9727 6.32617 16.1191 6.34961C16.2715 6.37305 16.3857 6.39941 16.4619 6.42871ZM22.834 14.0928V9.55762C22.834 9.21777 22.7725 8.9248 22.6494 8.67871C22.5264 8.43262 22.3389 8.24219 22.0869 8.10742C21.8408 7.97266 21.5303 7.90527 21.1553 7.90527C20.8096 7.90527 20.5107 7.96387 20.2588 8.08105C20.0068 8.19824 19.8105 8.35645 19.6699 8.55566C19.5293 8.75488 19.459 8.98047 19.459 9.23242H17.3496C17.3496 8.85742 17.4404 8.49414 17.6221 8.14258C17.8037 7.79102 18.0674 7.47754 18.4131 7.20215C18.7588 6.92676 19.1719 6.70996 19.6523 6.55176C20.1328 6.39355 20.6719 6.31445 21.2695 6.31445C21.9844 6.31445 22.6172 6.43457 23.168 6.6748C23.7246 6.91504 24.1611 7.27832 24.4775 7.76465C24.7998 8.24512 24.9609 8.84863 24.9609 9.5752V13.8027C24.9609 14.2363 24.9902 14.626 25.0488 14.9717C25.1133 15.3115 25.2041 15.6074 25.3213 15.8594V16H23.1504C23.0508 15.7715 22.9717 15.4814 22.9131 15.1299C22.8604 14.7725 22.834 14.4268 22.834 14.0928ZM23.1416 10.2168L23.1592 11.5264H21.6387C21.2461 11.5264 20.9004 11.5645 20.6016 11.6406C20.3027 11.7109 20.0537 11.8164 19.8545 11.957C19.6553 12.0977 19.5059 12.2676 19.4062 12.4668C19.3066 12.666 19.2568 12.8916 19.2568 13.1436C19.2568 13.3955 19.3154 13.627 19.4326 13.8379C19.5498 14.043 19.7197 14.2041 19.9424 14.3213C20.1709 14.4385 20.4463 14.4971 20.7686 14.4971C21.2021 14.4971 21.5801 14.4092 21.9023 14.2334C22.2305 14.0518 22.4883 13.832 22.6758 13.5742C22.8633 13.3105 22.9629 13.0615 22.9746 12.8271L23.6602 13.7676C23.5898 14.0078 23.4697 14.2656 23.2998 14.541C23.1299 14.8164 22.9072 15.0801 22.6318 15.332C22.3623 15.5781 22.0371 15.7803 21.6562 15.9385C21.2812 16.0967 20.8477 16.1758 20.3555 16.1758C19.7344 16.1758 19.1807 16.0527 18.6943 15.8066C18.208 15.5547 17.8271 15.2178 17.5518 14.7959C17.2764 14.3682 17.1387 13.8848 17.1387 13.3457C17.1387 12.8418 17.2324 12.3965 17.4199 12.0098C17.6133 11.6172 17.8945 11.2891 18.2637 11.0254C18.6387 10.7617 19.0957 10.5625 19.6348 10.4277C20.1738 10.2871 20.7891 10.2168 21.4805 10.2168H23.1416ZM31.0605 14.4883C31.4062 14.4883 31.7168 14.4209 31.9922 14.2861C32.2734 14.1455 32.499 13.9521 32.6689 13.7061C32.8447 13.46 32.9414 13.1758 32.959 12.8535H34.9541C34.9424 13.4688 34.7607 14.0283 34.4092 14.5322C34.0576 15.0361 33.5918 15.4375 33.0117 15.7363C32.4316 16.0293 31.79 16.1758 31.0869 16.1758C30.3604 16.1758 29.7275 16.0527 29.1885 15.8066C28.6494 15.5547 28.2012 15.209 27.8438 14.7695C27.4863 14.3301 27.2168 13.8232 27.0352 13.249C26.8594 12.6748 26.7715 12.0596 26.7715 11.4033V11.0957C26.7715 10.4395 26.8594 9.82422 27.0352 9.25C27.2168 8.66992 27.4863 8.16016 27.8438 7.7207C28.2012 7.28125 28.6494 6.93848 29.1885 6.69238C29.7275 6.44043 30.3574 6.31445 31.0781 6.31445C31.8398 6.31445 32.5078 6.4668 33.082 6.77148C33.6562 7.07031 34.1074 7.48926 34.4355 8.02832C34.7695 8.56152 34.9424 9.18262 34.9541 9.8916H32.959C32.9414 9.54004 32.8535 9.22363 32.6953 8.94238C32.543 8.65527 32.3262 8.42676 32.0449 8.25684C31.7695 8.08691 31.4385 8.00195 31.0518 8.00195C30.624 8.00195 30.2695 8.08984 29.9883 8.26562C29.707 8.43555 29.4873 8.66992 29.3291 8.96875C29.1709 9.26172 29.0566 9.59277 28.9863 9.96191C28.9219 10.3252 28.8896 10.7031 28.8896 11.0957V11.4033C28.8896 11.7959 28.9219 12.1768 28.9863 12.5459C29.0508 12.915 29.1621 13.2461 29.3203 13.5391C29.4844 13.8262 29.707 14.0576 29.9883 14.2334C30.2695 14.4033 30.627 14.4883 31.0605 14.4883ZM38.7158 2.5V16H36.5889V2.5H38.7158ZM44.6221 6.49023L40.4824 11.0781L38.2148 13.3984L37.6611 11.6055L39.375 9.4873L42.0645 6.49023H44.6221ZM42.5215 16L39.4365 11.5352L40.7725 10.0498L44.9736 16H42.5215ZM49.9834 16.1758C49.2803 16.1758 48.6445 16.0615 48.0762 15.833C47.5137 15.5986 47.0332 15.2734 46.6348 14.8574C46.2422 14.4414 45.9404 13.9521 45.7295 13.3896C45.5186 12.8271 45.4131 12.2207 45.4131 11.5703V11.2188C45.4131 10.4746 45.5215 9.80078 45.7383 9.19727C45.9551 8.59375 46.2568 8.07812 46.6436 7.65039C47.0303 7.2168 47.4873 6.88574 48.0146 6.65723C48.542 6.42871 49.1133 6.31445 49.7285 6.31445C50.4082 6.31445 51.0029 6.42871 51.5127 6.65723C52.0225 6.88574 52.4443 7.20801 52.7783 7.62402C53.1182 8.03418 53.3701 8.52344 53.5342 9.0918C53.7041 9.66016 53.7891 10.2871 53.7891 10.9727V11.8779H46.4414V10.3574H51.6973V10.1904C51.6855 9.80957 51.6094 9.45215 51.4688 9.11816C51.334 8.78418 51.126 8.51465 50.8447 8.30957C50.5635 8.10449 50.1885 8.00195 49.7197 8.00195C49.3682 8.00195 49.0547 8.07812 48.7793 8.23047C48.5098 8.37695 48.2842 8.59082 48.1025 8.87207C47.9209 9.15332 47.7803 9.49316 47.6807 9.8916C47.5869 10.2842 47.54 10.7266 47.54 11.2188V11.5703C47.54 11.9863 47.5957 12.373 47.707 12.7305C47.8242 13.082 47.9941 13.3896 48.2168 13.6533C48.4395 13.917 48.709 14.125 49.0254 14.2773C49.3418 14.4238 49.7021 14.4971 50.1064 14.4971C50.6162 14.4971 51.0703 14.3945 51.4688 14.1895C51.8672 13.9844 52.2129 13.6943 52.5059 13.3193L53.6221 14.4004C53.417 14.6992 53.1504 14.9863 52.8223 15.2617C52.4941 15.5312 52.0928 15.751 51.6182 15.9209C51.1494 16.0908 50.6045 16.1758 49.9834 16.1758ZM57.5684 8.30078V16H55.4502V6.49023H57.4717L57.5684 8.30078ZM60.4775 6.42871L60.46 8.39746C60.3311 8.37402 60.1904 8.35645 60.0381 8.34473C59.8916 8.33301 59.7451 8.32715 59.5986 8.32715C59.2354 8.32715 58.916 8.37988 58.6406 8.48535C58.3652 8.58496 58.1338 8.73145 57.9463 8.9248C57.7646 9.1123 57.624 9.34082 57.5244 9.61035C57.4248 9.87988 57.3662 10.1816 57.3486 10.5156L56.8652 10.5508C56.8652 9.95312 56.9238 9.39941 57.041 8.88965C57.1582 8.37988 57.334 7.93164 57.5684 7.54492C57.8086 7.1582 58.1074 6.85645 58.4648 6.63965C58.8281 6.42285 59.2471 6.31445 59.7217 6.31445C59.8506 6.31445 59.9883 6.32617 60.1348 6.34961C60.2871 6.37305 60.4014 6.39941 60.4775 6.42871ZM71.2969 10.2168H68.0361L68.0186 8.6084H70.8662C71.3467 8.6084 71.7539 8.53809 72.0879 8.39746C72.4277 8.25098 72.6855 8.04297 72.8613 7.77344C73.0371 7.49805 73.125 7.16699 73.125 6.78027C73.125 6.35254 73.043 6.00391 72.8789 5.73438C72.7148 5.46484 72.4629 5.26855 72.123 5.14551C71.7891 5.02246 71.3613 4.96094 70.8398 4.96094H68.7041V16H66.498V3.20312H70.8398C71.543 3.20312 72.1699 3.27051 72.7207 3.40527C73.2773 3.54004 73.749 3.75098 74.1357 4.03809C74.5283 4.31934 74.8242 4.67676 75.0234 5.11035C75.2285 5.54395 75.3311 6.05957 75.3311 6.65723C75.3311 7.18457 75.2051 7.66797 74.9531 8.10742C74.7012 8.54102 74.3291 8.89551 73.8369 9.1709C73.3447 9.44629 72.7324 9.61035 72 9.66309L71.2969 10.2168ZM71.2002 16H67.3418L68.335 14.251H71.2002C71.6982 14.251 72.1143 14.1689 72.4482 14.0049C72.7822 13.835 73.0312 13.6035 73.1953 13.3105C73.3652 13.0117 73.4502 12.6631 73.4502 12.2646C73.4502 11.8486 73.377 11.4883 73.2305 11.1836C73.084 10.873 72.8525 10.6357 72.5361 10.4717C72.2197 10.3018 71.8066 10.2168 71.2969 10.2168H68.8184L68.8359 8.6084H72.0615L72.5625 9.21484C73.2656 9.23828 73.8428 9.39355 74.2939 9.68066C74.751 9.96777 75.0908 10.3398 75.3135 10.7969C75.5361 11.2539 75.6475 11.7461 75.6475 12.2734C75.6475 13.0879 75.4688 13.7705 75.1113 14.3213C74.7598 14.8721 74.2529 15.291 73.5908 15.5781C72.9287 15.8594 72.1318 16 71.2002 16ZM81.8525 16.1758C81.1494 16.1758 80.5137 16.0615 79.9453 15.833C79.3828 15.5986 78.9023 15.2734 78.5039 14.8574C78.1113 14.4414 77.8096 13.9521 77.5986 13.3896C77.3877 12.8271 77.2822 12.2207 77.2822 11.5703V11.2188C77.2822 10.4746 77.3906 9.80078 77.6074 9.19727C77.8242 8.59375 78.126 8.07812 78.5127 7.65039C78.8994 7.2168 79.3564 6.88574 79.8838 6.65723C80.4111 6.42871 80.9824 6.31445 81.5977 6.31445C82.2773 6.31445 82.8721 6.42871 83.3818 6.65723C83.8916 6.88574 84.3135 7.20801 84.6475 7.62402C84.9873 8.03418 85.2393 8.52344 85.4033 9.0918C85.5732 9.66016 85.6582 10.2871 85.6582 10.9727V11.8779H78.3105V10.3574H83.5664V10.1904C83.5547 9.80957 83.4785 9.45215 83.3379 9.11816C83.2031 8.78418 82.9951 8.51465 82.7139 8.30957C82.4326 8.10449 82.0576 8.00195 81.5889 8.00195C81.2373 8.00195 80.9238 8.07812 80.6484 8.23047C80.3789 8.37695 80.1533 8.59082 79.9717 8.87207C79.79 9.15332 79.6494 9.49316 79.5498 9.8916C79.4561 10.2842 79.4092 10.7266 79.4092 11.2188V11.5703C79.4092 11.9863 79.4648 12.373 79.5762 12.7305C79.6934 13.082 79.8633 13.3896 80.0859 13.6533C80.3086 13.917 80.5781 14.125 80.8945 14.2773C81.2109 14.4238 81.5713 14.4971 81.9756 14.4971C82.4854 14.4971 82.9395 14.3945 83.3379 14.1895C83.7363 13.9844 84.082 13.6943 84.375 13.3193L85.4912 14.4004C85.2861 14.6992 85.0195 14.9863 84.6914 15.2617C84.3633 15.5312 83.9619 15.751 83.4873 15.9209C83.0186 16.0908 82.4736 16.1758 81.8525 16.1758ZM89.4111 8.52051V16H87.293V6.49023H89.2881L89.4111 8.52051ZM89.0332 10.8936L88.3477 10.8848C88.3535 10.2109 88.4473 9.59277 88.6289 9.03027C88.8164 8.46777 89.0742 7.98438 89.4023 7.58008C89.7363 7.17578 90.1348 6.86523 90.5977 6.64844C91.0605 6.42578 91.5762 6.31445 92.1445 6.31445C92.6016 6.31445 93.0146 6.37891 93.3838 6.50781C93.7588 6.63086 94.0781 6.83301 94.3418 7.11426C94.6113 7.39551 94.8164 7.76172 94.957 8.21289C95.0977 8.6582 95.168 9.20605 95.168 9.85645V16H93.041V9.84766C93.041 9.39062 92.9736 9.03027 92.8389 8.7666C92.71 8.49707 92.5195 8.30664 92.2676 8.19531C92.0215 8.07812 91.7139 8.01953 91.3447 8.01953C90.9814 8.01953 90.6562 8.0957 90.3691 8.24805C90.082 8.40039 89.8389 8.6084 89.6396 8.87207C89.4463 9.13574 89.2969 9.44043 89.1914 9.78613C89.0859 10.1318 89.0332 10.501 89.0332 10.8936ZM101.522 16.1758C100.819 16.1758 100.184 16.0615 99.6152 15.833C99.0527 15.5986 98.5723 15.2734 98.1738 14.8574C97.7812 14.4414 97.4795 13.9521 97.2686 13.3896C97.0576 12.8271 96.9521 12.2207 96.9521 11.5703V11.2188C96.9521 10.4746 97.0605 9.80078 97.2773 9.19727C97.4941 8.59375 97.7959 8.07812 98.1826 7.65039C98.5693 7.2168 99.0264 6.88574 99.5537 6.65723C100.081 6.42871 100.652 6.31445 101.268 6.31445C101.947 6.31445 102.542 6.42871 103.052 6.65723C103.562 6.88574 103.983 7.20801 104.317 7.62402C104.657 8.03418 104.909 8.52344 105.073 9.0918C105.243 9.66016 105.328 10.2871 105.328 10.9727V11.8779H97.9805V10.3574H103.236V10.1904C103.225 9.80957 103.148 9.45215 103.008 9.11816C102.873 8.78418 102.665 8.51465 102.384 8.30957C102.103 8.10449 101.728 8.00195 101.259 8.00195C100.907 8.00195 100.594 8.07812 100.318 8.23047C100.049 8.37695 99.8232 8.59082 99.6416 8.87207C99.46 9.15332 99.3193 9.49316 99.2197 9.8916C99.126 10.2842 99.0791 10.7266 99.0791 11.2188V11.5703C99.0791 11.9863 99.1348 12.373 99.2461 12.7305C99.3633 13.082 99.5332 13.3896 99.7559 13.6533C99.9785 13.917 100.248 14.125 100.564 14.2773C100.881 14.4238 101.241 14.4971 101.646 14.4971C102.155 14.4971 102.609 14.3945 103.008 14.1895C103.406 13.9844 103.752 13.6943 104.045 13.3193L105.161 14.4004C104.956 14.6992 104.689 14.9863 104.361 15.2617C104.033 15.5312 103.632 15.751 103.157 15.9209C102.688 16.0908 102.144 16.1758 101.522 16.1758ZM109.705 16H107.578V5.875C107.578 5.10742 107.73 4.45996 108.035 3.93262C108.346 3.40527 108.788 3.00391 109.362 2.72852C109.942 2.45313 110.631 2.31543 111.428 2.31543C111.896 2.31543 112.348 2.36523 112.781 2.46484C113.221 2.56445 113.675 2.69043 114.144 2.84277L113.818 4.56543C113.52 4.46582 113.188 4.37207 112.825 4.28418C112.462 4.19043 112.043 4.14355 111.568 4.14355C110.93 4.14355 110.458 4.29004 110.153 4.58301C109.854 4.87012 109.705 5.30078 109.705 5.875V16ZM111.612 6.49023V8.03711H106.119V6.49023H111.612ZM115.146 6.49023V16H113.027V6.49023H115.146ZM121.869 6.49023V8.03711H116.508V6.49023H121.869ZM118.055 4.16113H120.173V13.3721C120.173 13.665 120.214 13.8906 120.296 14.0488C120.384 14.2012 120.504 14.3037 120.656 14.3564C120.809 14.4092 120.987 14.4355 121.192 14.4355C121.339 14.4355 121.479 14.4268 121.614 14.4092C121.749 14.3916 121.857 14.374 121.939 14.3564L121.948 15.9736C121.772 16.0264 121.567 16.0732 121.333 16.1143C121.104 16.1553 120.841 16.1758 120.542 16.1758C120.056 16.1758 119.625 16.0908 119.25 15.9209C118.875 15.7451 118.582 15.4609 118.371 15.0684C118.16 14.6758 118.055 14.1543 118.055 13.5039V4.16113ZM128.839 13.4248C128.839 13.2139 128.786 13.0234 128.681 12.8535C128.575 12.6777 128.373 12.5195 128.074 12.3789C127.781 12.2383 127.348 12.1094 126.773 11.9922C126.27 11.8809 125.807 11.749 125.385 11.5967C124.969 11.4385 124.611 11.248 124.312 11.0254C124.014 10.8027 123.782 10.5391 123.618 10.2344C123.454 9.92969 123.372 9.57812 123.372 9.17969C123.372 8.79297 123.457 8.42676 123.627 8.08105C123.797 7.73535 124.04 7.43066 124.356 7.16699C124.673 6.90332 125.057 6.69531 125.508 6.54297C125.965 6.39063 126.475 6.31445 127.037 6.31445C127.834 6.31445 128.517 6.44922 129.085 6.71875C129.659 6.98242 130.099 7.34277 130.403 7.7998C130.708 8.25098 130.86 8.76074 130.86 9.3291H128.742C128.742 9.07715 128.678 8.84277 128.549 8.62598C128.426 8.40332 128.238 8.22461 127.986 8.08984C127.734 7.94922 127.418 7.87891 127.037 7.87891C126.674 7.87891 126.372 7.9375 126.132 8.05469C125.897 8.16602 125.722 8.3125 125.604 8.49414C125.493 8.67578 125.438 8.875 125.438 9.0918C125.438 9.25 125.467 9.39355 125.525 9.52246C125.59 9.64551 125.695 9.75977 125.842 9.86523C125.988 9.96484 126.188 10.0586 126.439 10.1465C126.697 10.2344 127.02 10.3193 127.406 10.4014C128.133 10.5537 128.757 10.75 129.278 10.9902C129.806 11.2246 130.21 11.5293 130.491 11.9043C130.772 12.2734 130.913 12.7422 130.913 13.3105C130.913 13.7324 130.822 14.1191 130.641 14.4707C130.465 14.8164 130.207 15.1182 129.867 15.376C129.527 15.6279 129.12 15.8242 128.646 15.9648C128.177 16.1055 127.649 16.1758 127.063 16.1758C126.202 16.1758 125.473 16.0234 124.875 15.7188C124.277 15.4082 123.823 15.0127 123.513 14.5322C123.208 14.0459 123.056 13.542 123.056 13.0205H125.104C125.127 13.4131 125.235 13.7266 125.429 13.9609C125.628 14.1895 125.874 14.3564 126.167 14.4619C126.466 14.5615 126.773 14.6113 127.09 14.6113C127.471 14.6113 127.79 14.5615 128.048 14.4619C128.306 14.3564 128.502 14.2158 128.637 14.04C128.771 13.8584 128.839 13.6533 128.839 13.4248Z" fill="#2F2F2F"/>
<path d="M11.25 37V40.75M28.75 37V40.75M5 63.25V44.5C5 43.5054 5.39509 42.5516 6.09835 41.8483C6.80161 41.1451 7.75544 40.75 8.75 40.75H31.25C32.2446 40.75 33.1984 41.1451 33.9016 41.8483C34.6049 42.5516 35 43.5054 35 44.5V63.25M5 63.25C5 64.2446 5.39509 65.1984 6.09835 65.9016C6.80161 66.6049 7.75544 67 8.75 67H31.25C32.2446 67 33.1984 66.6049 33.9016 65.9016C34.6049 65.1984 35 64.2446 35 63.25M5 63.25V50.75C5 49.7554 5.39509 48.8016 6.09835 48.0983C6.80161 47.3951 7.75544 47 8.75 47H31.25C32.2446 47 33.1984 47.3951 33.9016 48.0983C34.6049 48.8016 35 49.7554 35 50.75V63.25M20 53.25H20.0133V53.2633H20V53.25ZM20 57H20.0133V57.0133H20V57ZM20 60.75H20.0133V60.7633H20V60.75ZM16.25 57H16.2633V57.0133H16.25V57ZM16.25 60.75H16.2633V60.7633H16.25V60.75ZM12.5 57H12.5133V57.0133H12.5V57ZM12.5 60.75H12.5133V60.7633H12.5V60.75ZM23.75 53.25H23.7633V53.2633H23.75V53.25ZM23.75 57H23.7633V57.0133H23.75V57ZM23.75 60.75H23.7633V60.7633H23.75V60.75ZM27.5 53.25H27.5133V53.2633H27.5V53.25ZM27.5 57H27.5133V57.0133H27.5V57Z" stroke="#407BFF" stroke-width="2" stroke-linecap="round" stroke-linejoin="round"/>
<path d="M56.75 50.5156V51.7422H50.5938V50.5156H56.75ZM50.8281 45.625V57H49.3203V45.625H50.8281ZM58.0625 45.625V57H56.5625V45.625H58.0625ZM65.5078 55.5547V51.2031C65.5078 50.8698 65.4401 50.5807 65.3047 50.3359C65.1745 50.0859 64.9766 49.8932 64.7109 49.7578C64.4453 49.6224 64.1172 49.5547 63.7266 49.5547C63.362 49.5547 63.0417 49.6172 62.7656 49.7422C62.4948 49.8672 62.2812 50.0312 62.125 50.2344C61.974 50.4375 61.8984 50.6562 61.8984 50.8906H60.4531C60.4531 50.5885 60.5312 50.2891 60.6875 49.9922C60.8438 49.6953 61.0677 49.4271 61.3594 49.1875C61.6562 48.9427 62.0104 48.75 62.4219 48.6094C62.8385 48.4635 63.3021 48.3906 63.8125 48.3906C64.4271 48.3906 64.9688 48.4948 65.4375 48.7031C65.9115 48.9115 66.2812 49.2266 66.5469 49.6484C66.8177 50.0651 66.9531 50.5885 66.9531 51.2188V55.1562C66.9531 55.4375 66.9766 55.737 67.0234 56.0547C67.0755 56.3724 67.151 56.6458 67.25 56.875V57H65.7422C65.6693 56.8333 65.612 56.612 65.5703 56.3359C65.5286 56.0547 65.5078 55.7943 65.5078 55.5547ZM65.7578 51.875L65.7734 52.8906H64.3125C63.901 52.8906 63.5339 52.9245 63.2109 52.9922C62.888 53.0547 62.6172 53.151 62.3984 53.2812C62.1797 53.4115 62.013 53.5755 61.8984 53.7734C61.7839 53.9661 61.7266 54.1927 61.7266 54.4531C61.7266 54.7188 61.7865 54.9609 61.9062 55.1797C62.026 55.3984 62.2057 55.5729 62.4453 55.7031C62.6901 55.8281 62.9896 55.8906 63.3438 55.8906C63.7865 55.8906 64.1771 55.7969 64.5156 55.6094C64.8542 55.4219 65.1224 55.1927 65.3203 54.9219C65.5234 54.651 65.6328 54.388 65.6484 54.1328L66.2656 54.8281C66.2292 55.0469 66.1302 55.2891 65.9688 55.5547C65.8073 55.8203 65.5911 56.0755 65.3203 56.3203C65.0547 56.5599 64.737 56.7604 64.3672 56.9219C64.0026 57.0781 63.5911 57.1562 63.1328 57.1562C62.5599 57.1562 62.0573 57.0443 61.625 56.8203C61.1979 56.5964 60.8646 56.2969 60.625 55.9219C60.3906 55.5417 60.2734 55.1172 60.2734 54.6484C60.2734 54.1953 60.362 53.7969 60.5391 53.4531C60.7161 53.1042 60.9714 52.8151 61.3047 52.5859C61.638 52.3516 62.0391 52.1745 62.5078 52.0547C62.9766 51.9349 63.5 51.875 64.0781 51.875H65.7578ZM69.2188 45H70.6719V55.3594L70.5469 57H69.2188V45ZM76.3828 52.7031V52.8672C76.3828 53.4818 76.3099 54.0521 76.1641 54.5781C76.0182 55.099 75.8047 55.5521 75.5234 55.9375C75.2422 56.3229 74.8984 56.6224 74.4922 56.8359C74.0859 57.0495 73.6198 57.1562 73.0938 57.1562C72.5573 57.1562 72.0859 57.0651 71.6797 56.8828C71.2786 56.6953 70.9401 56.4271 70.6641 56.0781C70.388 55.7292 70.1667 55.3073 70 54.8125C69.8385 54.3177 69.7266 53.7604 69.6641 53.1406V52.4219C69.7266 51.7969 69.8385 51.237 70 50.7422C70.1667 50.2474 70.388 49.8255 70.6641 49.4766C70.9401 49.1224 71.2786 48.8542 71.6797 48.6719C72.0807 48.4844 72.5469 48.3906 73.0781 48.3906C73.6094 48.3906 74.0807 48.4948 74.4922 48.7031C74.9036 48.9062 75.2474 49.1979 75.5234 49.5781C75.8047 49.9583 76.0182 50.4141 76.1641 50.9453C76.3099 51.4714 76.3828 52.0573 76.3828 52.7031ZM74.9297 52.8672V52.7031C74.9297 52.2812 74.8906 51.8854 74.8125 51.5156C74.7344 51.1406 74.6094 50.8125 74.4375 50.5312C74.2656 50.2448 74.0391 50.0208 73.7578 49.8594C73.4766 49.6927 73.1302 49.6094 72.7188 49.6094C72.3542 49.6094 72.0365 49.6719 71.7656 49.7969C71.5 49.9219 71.2734 50.0911 71.0859 50.3047C70.8984 50.513 70.7448 50.7526 70.625 51.0234C70.5104 51.2891 70.4245 51.5651 70.3672 51.8516V53.7344C70.4505 54.099 70.5859 54.4505 70.7734 54.7891C70.9661 55.1224 71.2214 55.3958 71.5391 55.6094C71.862 55.8229 72.2604 55.9297 72.7344 55.9297C73.125 55.9297 73.4583 55.8516 73.7344 55.6953C74.0156 55.5339 74.2422 55.3125 74.4141 55.0312C74.5911 54.75 74.7214 54.4245 74.8047 54.0547C74.888 53.6849 74.9297 53.2891 74.9297 52.8672ZM79.7812 48.5469V57H78.3281V48.5469H79.7812ZM78.2188 46.3047C78.2188 46.0703 78.2891 45.8724 78.4297 45.7109C78.5755 45.5495 78.7891 45.4688 79.0703 45.4688C79.3464 45.4688 79.5573 45.5495 79.7031 45.7109C79.8542 45.8724 79.9297 46.0703 79.9297 46.3047C79.9297 46.5286 79.8542 46.7214 79.7031 46.8828C79.5573 47.0391 79.3464 47.1172 79.0703 47.1172C78.7891 47.1172 78.5755 47.0391 78.4297 46.8828C78.2891 46.7214 78.2188 46.5286 78.2188 46.3047ZM85.6406 48.5469V49.6562H81.0703V48.5469H85.6406ZM82.6172 46.4922H84.0625V54.9062C84.0625 55.1927 84.1068 55.4089 84.1953 55.5547C84.2839 55.7005 84.3984 55.7969 84.5391 55.8438C84.6797 55.8906 84.8307 55.9141 84.9922 55.9141C85.112 55.9141 85.237 55.9036 85.3672 55.8828C85.5026 55.8568 85.6042 55.8359 85.6719 55.8203L85.6797 57C85.5651 57.0365 85.4141 57.0703 85.2266 57.1016C85.0443 57.138 84.8229 57.1562 84.5625 57.1562C84.2083 57.1562 83.8828 57.0859 83.5859 56.9453C83.2891 56.8047 83.0521 56.5703 82.875 56.2422C82.7031 55.9089 82.6172 55.4609 82.6172 54.8984V46.4922ZM96.6328 55.3594V45H98.0859V57H96.7578L96.6328 55.3594ZM90.9453 52.8672V52.7031C90.9453 52.0573 91.0234 51.4714 91.1797 50.9453C91.3411 50.4141 91.5677 49.9583 91.8594 49.5781C92.1562 49.1979 92.5078 48.9062 92.9141 48.7031C93.3255 48.4948 93.7839 48.3906 94.2891 48.3906C94.8203 48.3906 95.2839 48.4844 95.6797 48.6719C96.0807 48.8542 96.4193 49.1224 96.6953 49.4766C96.9766 49.8255 97.1979 50.2474 97.3594 50.7422C97.5208 51.237 97.6328 51.7969 97.6953 52.4219V53.1406C97.638 53.7604 97.526 54.3177 97.3594 54.8125C97.1979 55.3073 96.9766 55.7292 96.6953 56.0781C96.4193 56.4271 96.0807 56.6953 95.6797 56.8828C95.2786 57.0651 94.8099 57.1562 94.2734 57.1562C93.7786 57.1562 93.3255 57.0495 92.9141 56.8359C92.5078 56.6224 92.1562 56.3229 91.8594 55.9375C91.5677 55.5521 91.3411 55.099 91.1797 54.5781C91.0234 54.0521 90.9453 53.4818 90.9453 52.8672ZM92.3984 52.7031V52.8672C92.3984 53.2891 92.4401 53.6849 92.5234 54.0547C92.612 54.4245 92.7474 54.75 92.9297 55.0312C93.112 55.3125 93.3438 55.5339 93.625 55.6953C93.9062 55.8516 94.2422 55.9297 94.6328 55.9297C95.112 55.9297 95.5052 55.8281 95.8125 55.625C96.125 55.4219 96.375 55.1536 96.5625 54.8203C96.75 54.487 96.8958 54.125 97 53.7344V51.8516C96.9375 51.5651 96.8464 51.2891 96.7266 51.0234C96.612 50.7526 96.4609 50.513 96.2734 50.3047C96.0911 50.0911 95.8646 49.9219 95.5938 49.7969C95.3281 49.6719 95.013 49.6094 94.6484 49.6094C94.2526 49.6094 93.9115 49.6927 93.625 49.8594C93.3438 50.0208 93.112 50.2448 92.9297 50.5312C92.7474 50.8125 92.612 51.1406 92.5234 51.5156C92.4401 51.8854 92.3984 52.2812 92.3984 52.7031ZM101.781 49.875V57H100.336V48.5469H101.742L101.781 49.875ZM104.422 48.5L104.414 49.8438C104.294 49.8177 104.18 49.8021 104.07 49.7969C103.966 49.7865 103.846 49.7812 103.711 49.7812C103.378 49.7812 103.083 49.8333 102.828 49.9375C102.573 50.0417 102.357 50.1875 102.18 50.375C102.003 50.5625 101.862 50.7865 101.758 51.0469C101.659 51.3021 101.594 51.5833 101.562 51.8906L101.156 52.125C101.156 51.6146 101.206 51.1354 101.305 50.6875C101.409 50.2396 101.568 49.8438 101.781 49.5C101.995 49.151 102.266 48.8802 102.594 48.6875C102.927 48.4896 103.323 48.3906 103.781 48.3906C103.885 48.3906 104.005 48.4036 104.141 48.4297C104.276 48.4505 104.37 48.474 104.422 48.5ZM107.328 48.5469V57H105.875V48.5469H107.328ZM105.766 46.3047C105.766 46.0703 105.836 45.8724 105.977 45.7109C106.122 45.5495 106.336 45.4688 106.617 45.4688C106.893 45.4688 107.104 45.5495 107.25 45.7109C107.401 45.8724 107.477 46.0703 107.477 46.3047C107.477 46.5286 107.401 46.7214 107.25 46.8828C107.104 47.0391 106.893 47.1172 106.617 47.1172C106.336 47.1172 106.122 47.0391 105.977 46.8828C105.836 46.7214 105.766 46.5286 105.766 46.3047ZM112.219 55.6953L114.531 48.5469H116.008L112.969 57H112L112.219 55.6953ZM110.289 48.5469L112.672 55.7344L112.836 57H111.867L108.805 48.5469H110.289ZM120.797 57.1562C120.208 57.1562 119.674 57.0573 119.195 56.8594C118.721 56.6562 118.312 56.3724 117.969 56.0078C117.63 55.6432 117.37 55.2109 117.188 54.7109C117.005 54.2109 116.914 53.6641 116.914 53.0703V52.7422C116.914 52.0547 117.016 51.4427 117.219 50.9062C117.422 50.3646 117.698 49.9062 118.047 49.5312C118.396 49.1562 118.792 48.8724 119.234 48.6797C119.677 48.487 120.135 48.3906 120.609 48.3906C121.214 48.3906 121.734 48.4948 122.172 48.7031C122.615 48.9115 122.977 49.2031 123.258 49.5781C123.539 49.9479 123.747 50.3854 123.883 50.8906C124.018 51.3906 124.086 51.9375 124.086 52.5312V53.1797H117.773V52H122.641V51.8906C122.62 51.5156 122.542 51.151 122.406 50.7969C122.276 50.4427 122.068 50.151 121.781 49.9219C121.495 49.6927 121.104 49.5781 120.609 49.5781C120.281 49.5781 119.979 49.6484 119.703 49.7891C119.427 49.9245 119.19 50.1276 118.992 50.3984C118.794 50.6693 118.641 51 118.531 51.3906C118.422 51.7812 118.367 52.2318 118.367 52.7422V53.0703C118.367 53.4714 118.422 53.849 118.531 54.2031C118.646 54.5521 118.81 54.8594 119.023 55.125C119.242 55.3906 119.505 55.599 119.812 55.75C120.125 55.901 120.479 55.9766 120.875 55.9766C121.385 55.9766 121.818 55.8724 122.172 55.6641C122.526 55.4557 122.836 55.1771 123.102 54.8281L123.977 55.5234C123.794 55.7995 123.562 56.0625 123.281 56.3125C123 56.5625 122.654 56.7656 122.242 56.9219C121.836 57.0781 121.354 57.1562 120.797 57.1562Z" fill="#2F2F2F"/>
<path d="M6.25 93V111.75C6.25 112.745 6.64509 113.698 7.34835 114.402C8.05161 115.105 9.00544 115.5 10 115.5H13.75M6.25 93H3.75M6.25 93H33.75M13.75 115.5H26.25M13.75 115.5L12.0833 120.5M33.75 93H36.25M33.75 93V111.75C33.75 112.745 33.3549 113.698 32.6516 114.402C31.9484 115.105 30.9946 115.5 30 115.5H26.25M26.25 115.5L27.9167 120.5M12.0833 120.5H27.9167M12.0833 120.5L11.25 123M27.9167 120.5L28.75 123M15 106.75V109.25M20 103V109.25M25 99.25V109.25" stroke="#407BFF" stroke-width="2" stroke-linecap="round" stroke-linejoin="round"/>
<path d="M52.9922 111.273L56.3438 101.625H57.9766L53.7656 113H52.6016L52.9922 111.273ZM49.8594 101.625L53.1797 111.273L53.5938 113H52.4297L48.2266 101.625H49.8594ZM60.8594 104.547V113H59.4062V104.547H60.8594ZM59.2969 102.305C59.2969 102.07 59.3672 101.872 59.5078 101.711C59.6536 101.549 59.8672 101.469 60.1484 101.469C60.4245 101.469 60.6354 101.549 60.7812 101.711C60.9323 101.872 61.0078 102.07 61.0078 102.305C61.0078 102.529 60.9323 102.721 60.7812 102.883C60.6354 103.039 60.4245 103.117 60.1484 103.117C59.8672 103.117 59.6536 103.039 59.5078 102.883C59.3672 102.721 59.2969 102.529 59.2969 102.305ZM66.6875 113.156C66.099 113.156 65.5651 113.057 65.0859 112.859C64.612 112.656 64.2031 112.372 63.8594 112.008C63.5208 111.643 63.2604 111.211 63.0781 110.711C62.8958 110.211 62.8047 109.664 62.8047 109.07V108.742C62.8047 108.055 62.9062 107.443 63.1094 106.906C63.3125 106.365 63.5885 105.906 63.9375 105.531C64.2865 105.156 64.6823 104.872 65.125 104.68C65.5677 104.487 66.026 104.391 66.5 104.391C67.1042 104.391 67.625 104.495 68.0625 104.703C68.5052 104.911 68.8672 105.203 69.1484 105.578C69.4297 105.948 69.638 106.385 69.7734 106.891C69.9089 107.391 69.9766 107.938 69.9766 108.531V109.18H63.6641V108H68.5312V107.891C68.5104 107.516 68.4323 107.151 68.2969 106.797C68.1667 106.443 67.9583 106.151 67.6719 105.922C67.3854 105.693 66.9948 105.578 66.5 105.578C66.1719 105.578 65.8698 105.648 65.5938 105.789C65.3177 105.924 65.0807 106.128 64.8828 106.398C64.6849 106.669 64.5312 107 64.4219 107.391C64.3125 107.781 64.2578 108.232 64.2578 108.742V109.07C64.2578 109.471 64.3125 109.849 64.4219 110.203C64.5365 110.552 64.7005 110.859 64.9141 111.125C65.1328 111.391 65.3958 111.599 65.7031 111.75C66.0156 111.901 66.3698 111.977 66.7656 111.977C67.276 111.977 67.7083 111.872 68.0625 111.664C68.4167 111.456 68.7266 111.177 68.9922 110.828L69.8672 111.523C69.6849 111.799 69.4531 112.062 69.1719 112.312C68.8906 112.562 68.5443 112.766 68.1328 112.922C67.7266 113.078 67.2448 113.156 66.6875 113.156ZM73.8047 111.5L75.9766 104.547H76.9297L76.7422 105.93L74.5312 113H73.6016L73.8047 111.5ZM72.3438 104.547L74.1953 111.578L74.3281 113H73.3516L70.8984 104.547H72.3438ZM79.0078 111.523L80.7734 104.547H82.2109L79.7578 113H78.7891L79.0078 111.523ZM77.1406 104.547L79.2656 111.383L79.5078 113H78.5859L76.3125 105.914L76.125 104.547H77.1406ZM92.5859 110.758C92.5859 110.549 92.5391 110.357 92.4453 110.18C92.3568 109.997 92.1719 109.833 91.8906 109.688C91.6146 109.536 91.1979 109.406 90.6406 109.297C90.1719 109.198 89.7474 109.081 89.3672 108.945C88.9922 108.81 88.6719 108.646 88.4062 108.453C88.1458 108.26 87.9453 108.034 87.8047 107.773C87.6641 107.513 87.5938 107.208 87.5938 106.859C87.5938 106.526 87.6667 106.211 87.8125 105.914C87.9635 105.617 88.1745 105.354 88.4453 105.125C88.7214 104.896 89.0521 104.716 89.4375 104.586C89.8229 104.456 90.2526 104.391 90.7266 104.391C91.4036 104.391 91.9818 104.51 92.4609 104.75C92.9401 104.99 93.3073 105.31 93.5625 105.711C93.8177 106.107 93.9453 106.547 93.9453 107.031H92.5C92.5 106.797 92.4297 106.57 92.2891 106.352C92.1536 106.128 91.9531 105.943 91.6875 105.797C91.4271 105.651 91.1068 105.578 90.7266 105.578C90.3255 105.578 90 105.641 89.75 105.766C89.5052 105.885 89.3255 106.039 89.2109 106.227C89.1016 106.414 89.0469 106.612 89.0469 106.82C89.0469 106.977 89.0729 107.117 89.125 107.242C89.1823 107.362 89.2812 107.474 89.4219 107.578C89.5625 107.677 89.7604 107.771 90.0156 107.859C90.2708 107.948 90.5964 108.036 90.9922 108.125C91.6849 108.281 92.2552 108.469 92.7031 108.688C93.151 108.906 93.4844 109.174 93.7031 109.492C93.9219 109.81 94.0312 110.195 94.0312 110.648C94.0312 111.018 93.9531 111.357 93.7969 111.664C93.6458 111.971 93.4245 112.237 93.1328 112.461C92.8464 112.68 92.5026 112.852 92.1016 112.977C91.7057 113.096 91.2604 113.156 90.7656 113.156C90.0208 113.156 89.3906 113.023 88.875 112.758C88.3594 112.492 87.9688 112.148 87.7031 111.727C87.4375 111.305 87.3047 110.859 87.3047 110.391H88.7578C88.7786 110.786 88.8932 111.102 89.1016 111.336C89.3099 111.565 89.5651 111.729 89.8672 111.828C90.1693 111.922 90.4688 111.969 90.7656 111.969C91.1615 111.969 91.4922 111.917 91.7578 111.812C92.0286 111.708 92.2344 111.565 92.375 111.383C92.5156 111.201 92.5859 110.992 92.5859 110.758ZM99.4688 104.547V105.656H94.8984V104.547H99.4688ZM96.4453 102.492H97.8906V110.906C97.8906 111.193 97.9349 111.409 98.0234 111.555C98.112 111.701 98.2266 111.797 98.3672 111.844C98.5078 111.891 98.6589 111.914 98.8203 111.914C98.9401 111.914 99.0651 111.904 99.1953 111.883C99.3307 111.857 99.4323 111.836 99.5 111.82L99.5078 113C99.3932 113.036 99.2422 113.07 99.0547 113.102C98.8724 113.138 98.651 113.156 98.3906 113.156C98.0365 113.156 97.7109 113.086 97.4141 112.945C97.1172 112.805 96.8802 112.57 96.7031 112.242C96.5312 111.909 96.4453 111.461 96.4453 110.898V102.492ZM106.148 111.555V107.203C106.148 106.87 106.081 106.581 105.945 106.336C105.815 106.086 105.617 105.893 105.352 105.758C105.086 105.622 104.758 105.555 104.367 105.555C104.003 105.555 103.682 105.617 103.406 105.742C103.135 105.867 102.922 106.031 102.766 106.234C102.615 106.438 102.539 106.656 102.539 106.891H101.094C101.094 106.589 101.172 106.289 101.328 105.992C101.484 105.695 101.708 105.427 102 105.188C102.297 104.943 102.651 104.75 103.062 104.609C103.479 104.464 103.943 104.391 104.453 104.391C105.068 104.391 105.609 104.495 106.078 104.703C106.552 104.911 106.922 105.227 107.188 105.648C107.458 106.065 107.594 106.589 107.594 107.219V111.156C107.594 111.438 107.617 111.737 107.664 112.055C107.716 112.372 107.792 112.646 107.891 112.875V113H106.383C106.31 112.833 106.253 112.612 106.211 112.336C106.169 112.055 106.148 111.794 106.148 111.555ZM106.398 107.875L106.414 108.891H104.953C104.542 108.891 104.174 108.924 103.852 108.992C103.529 109.055 103.258 109.151 103.039 109.281C102.82 109.411 102.654 109.576 102.539 109.773C102.424 109.966 102.367 110.193 102.367 110.453C102.367 110.719 102.427 110.961 102.547 111.18C102.667 111.398 102.846 111.573 103.086 111.703C103.331 111.828 103.63 111.891 103.984 111.891C104.427 111.891 104.818 111.797 105.156 111.609C105.495 111.422 105.763 111.193 105.961 110.922C106.164 110.651 106.273 110.388 106.289 110.133L106.906 110.828C106.87 111.047 106.771 111.289 106.609 111.555C106.448 111.82 106.232 112.076 105.961 112.32C105.695 112.56 105.378 112.76 105.008 112.922C104.643 113.078 104.232 113.156 103.773 113.156C103.201 113.156 102.698 113.044 102.266 112.82C101.839 112.596 101.505 112.297 101.266 111.922C101.031 111.542 100.914 111.117 100.914 110.648C100.914 110.195 101.003 109.797 101.18 109.453C101.357 109.104 101.612 108.815 101.945 108.586C102.279 108.352 102.68 108.174 103.148 108.055C103.617 107.935 104.141 107.875 104.719 107.875H106.398ZM113.406 104.547V105.656H108.836V104.547H113.406ZM110.383 102.492H111.828V110.906C111.828 111.193 111.872 111.409 111.961 111.555C112.049 111.701 112.164 111.797 112.305 111.844C112.445 111.891 112.596 111.914 112.758 111.914C112.878 111.914 113.003 111.904 113.133 111.883C113.268 111.857 113.37 111.836 113.438 111.82L113.445 113C113.331 113.036 113.18 113.07 112.992 113.102C112.81 113.138 112.589 113.156 112.328 113.156C111.974 113.156 111.648 113.086 111.352 112.945C111.055 112.805 110.818 112.57 110.641 112.242C110.469 111.909 110.383 111.461 110.383 110.898V102.492ZM116.672 104.547V113H115.219V104.547H116.672ZM115.109 102.305C115.109 102.07 115.18 101.872 115.32 101.711C115.466 101.549 115.68 101.469 115.961 101.469C116.237 101.469 116.448 101.549 116.594 101.711C116.745 101.872 116.82 102.07 116.82 102.305C116.82 102.529 116.745 102.721 116.594 102.883C116.448 103.039 116.237 103.117 115.961 103.117C115.68 103.117 115.466 103.039 115.32 102.883C115.18 102.721 115.109 102.529 115.109 102.305ZM123.914 110.758C123.914 110.549 123.867 110.357 123.773 110.18C123.685 109.997 123.5 109.833 123.219 109.688C122.943 109.536 122.526 109.406 121.969 109.297C121.5 109.198 121.076 109.081 120.695 108.945C120.32 108.81 120 108.646 119.734 108.453C119.474 108.26 119.273 108.034 119.133 107.773C118.992 107.513 118.922 107.208 118.922 106.859C118.922 106.526 118.995 106.211 119.141 105.914C119.292 105.617 119.503 105.354 119.773 105.125C120.049 104.896 120.38 104.716 120.766 104.586C121.151 104.456 121.581 104.391 122.055 104.391C122.732 104.391 123.31 104.51 123.789 104.75C124.268 104.99 124.635 105.31 124.891 105.711C125.146 106.107 125.273 106.547 125.273 107.031H123.828C123.828 106.797 123.758 106.57 123.617 106.352C123.482 106.128 123.281 105.943 123.016 105.797C122.755 105.651 122.435 105.578 122.055 105.578C121.654 105.578 121.328 105.641 121.078 105.766C120.833 105.885 120.654 106.039 120.539 106.227C120.43 106.414 120.375 106.612 120.375 106.82C120.375 106.977 120.401 107.117 120.453 107.242C120.51 107.362 120.609 107.474 120.75 107.578C120.891 107.677 121.089 107.771 121.344 107.859C121.599 107.948 121.924 108.036 122.32 108.125C123.013 108.281 123.583 108.469 124.031 108.688C124.479 108.906 124.812 109.174 125.031 109.492C125.25 109.81 125.359 110.195 125.359 110.648C125.359 111.018 125.281 111.357 125.125 111.664C124.974 111.971 124.753 112.237 124.461 112.461C124.174 112.68 123.831 112.852 123.43 112.977C123.034 113.096 122.589 113.156 122.094 113.156C121.349 113.156 120.719 113.023 120.203 112.758C119.688 112.492 119.297 112.148 119.031 111.727C118.766 111.305 118.633 110.859 118.633 110.391H120.086C120.107 110.786 120.221 111.102 120.43 111.336C120.638 111.565 120.893 111.729 121.195 111.828C121.497 111.922 121.797 111.969 122.094 111.969C122.49 111.969 122.82 111.917 123.086 111.812C123.357 111.708 123.562 111.565 123.703 111.383C123.844 111.201 123.914 110.992 123.914 110.758ZM130.797 104.547V105.656H126.227V104.547H130.797ZM127.773 102.492H129.219V110.906C129.219 111.193 129.263 111.409 129.352 111.555C129.44 111.701 129.555 111.797 129.695 111.844C129.836 111.891 129.987 111.914 130.148 111.914C130.268 111.914 130.393 111.904 130.523 111.883C130.659 111.857 130.76 111.836 130.828 111.82L130.836 113C130.721 113.036 130.57 113.07 130.383 113.102C130.201 113.138 129.979 113.156 129.719 113.156C129.365 113.156 129.039 113.086 128.742 112.945C128.445 112.805 128.208 112.57 128.031 112.242C127.859 111.909 127.773 111.461 127.773 110.898V102.492ZM134.062 104.547V113H132.609V104.547H134.062ZM132.5 102.305C132.5 102.07 132.57 101.872 132.711 101.711C132.857 101.549 133.07 101.469 133.352 101.469C133.628 101.469 133.839 101.549 133.984 101.711C134.135 101.872 134.211 102.07 134.211 102.305C134.211 102.529 134.135 102.721 133.984 102.883C133.839 103.039 133.628 103.117 133.352 103.117C133.07 103.117 132.857 103.039 132.711 102.883C132.57 102.721 132.5 102.529 132.5 102.305ZM139.766 111.969C140.109 111.969 140.427 111.898 140.719 111.758C141.01 111.617 141.25 111.424 141.438 111.18C141.625 110.93 141.732 110.646 141.758 110.328H143.133C143.107 110.828 142.938 111.294 142.625 111.727C142.318 112.154 141.914 112.5 141.414 112.766C140.914 113.026 140.365 113.156 139.766 113.156C139.13 113.156 138.576 113.044 138.102 112.82C137.633 112.596 137.242 112.289 136.93 111.898C136.622 111.508 136.391 111.06 136.234 110.555C136.083 110.044 136.008 109.505 136.008 108.938V108.609C136.008 108.042 136.083 107.505 136.234 107C136.391 106.49 136.622 106.039 136.93 105.648C137.242 105.258 137.633 104.951 138.102 104.727C138.576 104.503 139.13 104.391 139.766 104.391C140.427 104.391 141.005 104.526 141.5 104.797C141.995 105.062 142.383 105.427 142.664 105.891C142.951 106.349 143.107 106.87 143.133 107.453H141.758C141.732 107.104 141.633 106.789 141.461 106.508C141.294 106.227 141.065 106.003 140.773 105.836C140.487 105.664 140.151 105.578 139.766 105.578C139.323 105.578 138.951 105.667 138.648 105.844C138.352 106.016 138.115 106.25 137.938 106.547C137.766 106.839 137.641 107.164 137.562 107.523C137.49 107.878 137.453 108.24 137.453 108.609V108.938C137.453 109.307 137.49 109.672 137.562 110.031C137.635 110.391 137.758 110.716 137.93 111.008C138.107 111.299 138.344 111.534 138.641 111.711C138.943 111.883 139.318 111.969 139.766 111.969ZM149.68 110.758C149.68 110.549 149.633 110.357 149.539 110.18C149.451 109.997 149.266 109.833 148.984 109.688C148.708 109.536 148.292 109.406 147.734 109.297C147.266 109.198 146.841 109.081 146.461 108.945C146.086 108.81 145.766 108.646 145.5 108.453C145.24 108.26 145.039 108.034 144.898 107.773C144.758 107.513 144.688 107.208 144.688 106.859C144.688 106.526 144.76 106.211 144.906 105.914C145.057 105.617 145.268 105.354 145.539 105.125C145.815 104.896 146.146 104.716 146.531 104.586C146.917 104.456 147.346 104.391 147.82 104.391C148.497 104.391 149.076 104.51 149.555 104.75C150.034 104.99 150.401 105.31 150.656 105.711C150.911 106.107 151.039 106.547 151.039 107.031H149.594C149.594 106.797 149.523 106.57 149.383 106.352C149.247 106.128 149.047 105.943 148.781 105.797C148.521 105.651 148.201 105.578 147.82 105.578C147.419 105.578 147.094 105.641 146.844 105.766C146.599 105.885 146.419 106.039 146.305 106.227C146.195 106.414 146.141 106.612 146.141 106.82C146.141 106.977 146.167 107.117 146.219 107.242C146.276 107.362 146.375 107.474 146.516 107.578C146.656 107.677 146.854 107.771 147.109 107.859C147.365 107.948 147.69 108.036 148.086 108.125C148.779 108.281 149.349 108.469 149.797 108.688C150.245 108.906 150.578 109.174 150.797 109.492C151.016 109.81 151.125 110.195 151.125 110.648C151.125 111.018 151.047 111.357 150.891 111.664C150.74 111.971 150.518 112.237 150.227 112.461C149.94 112.68 149.596 112.852 149.195 112.977C148.799 113.096 148.354 113.156 147.859 113.156C147.115 113.156 146.484 113.023 145.969 112.758C145.453 112.492 145.062 112.148 144.797 111.727C144.531 111.305 144.398 110.859 144.398 110.391H145.852C145.872 110.786 145.987 111.102 146.195 111.336C146.404 111.565 146.659 111.729 146.961 111.828C147.263 111.922 147.562 111.969 147.859 111.969C148.255 111.969 148.586 111.917 148.852 111.812C149.122 111.708 149.328 111.565 149.469 111.383C149.609 111.201 149.68 110.992 149.68 110.758Z" fill="#2F2F2F"/>
<path d="M19.0333 169.283L28.75 179C29.5833 179.807 30.7003 180.254 31.8601 180.244C33.0199 180.235 34.1295 179.77 34.9497 178.95C35.7698 178.13 36.2347 177.02 36.2441 175.86C36.2535 174.7 35.8067 173.583 35 172.75L25.205 162.955M19.0333 169.283L23.1933 164.233C23.7217 163.593 24.4267 163.19 25.2067 162.957C26.1233 162.683 27.145 162.643 28.1117 162.723C29.4147 162.835 30.7244 162.604 31.9107 162.054C33.097 161.503 34.1187 160.652 34.8744 159.585C35.6301 158.517 36.0936 157.271 36.2188 155.969C36.3441 154.667 36.1267 153.355 35.5883 152.163L30.1283 157.625C29.2148 157.414 28.379 156.95 27.716 156.287C27.0531 155.624 26.5896 154.788 26.3783 153.875L31.8383 148.415C30.6464 147.877 29.3345 147.659 28.0327 147.784C26.7308 147.91 25.4844 148.373 24.417 149.129C23.3496 149.885 22.4984 150.906 21.9478 152.093C21.3972 153.279 21.1664 154.589 21.2783 155.892C21.43 157.685 21.16 159.665 19.7717 160.808L19.6017 160.95M19.0333 169.283L11.275 178.705C10.899 179.163 10.4312 179.538 9.90165 179.805C9.37215 180.071 8.79268 180.224 8.20055 180.253C7.60842 180.282 7.01674 180.187 6.46361 179.974C5.91048 179.76 5.40814 179.434 4.98894 179.014C4.56973 178.595 4.24294 178.093 4.0296 177.54C3.81627 176.987 3.72111 176.395 3.75025 175.803C3.7794 175.211 3.9322 174.631 4.19882 174.102C4.46544 173.572 4.83998 173.104 5.29833 172.728L16.6933 163.345L9.84833 156.5H7.49999L3.75 150.25L6.24999 147.75L12.5 151.5V153.848L19.6 160.948L16.6917 163.343M30.625 174.625L26.25 170.25M8.11166 175.875H8.12499V175.888H8.11166V175.875Z" stroke="#407BFF" stroke-width="2" stroke-linecap="round" stroke-linejoin="round"/>
<path d="M53.5156 164.539H50.4766V163.312H53.5156C54.1042 163.312 54.5807 163.219 54.9453 163.031C55.3099 162.844 55.5755 162.583 55.7422 162.25C55.9141 161.917 56 161.536 56 161.109C56 160.719 55.9141 160.352 55.7422 160.008C55.5755 159.664 55.3099 159.388 54.9453 159.18C54.5807 158.966 54.1042 158.859 53.5156 158.859H50.8281V169H49.3203V157.625H53.5156C54.375 157.625 55.1016 157.773 55.6953 158.07C56.2891 158.367 56.7396 158.779 57.0469 159.305C57.3542 159.826 57.5078 160.422 57.5078 161.094C57.5078 161.823 57.3542 162.445 57.0469 162.961C56.7396 163.477 56.2891 163.87 55.6953 164.141C55.1016 164.406 54.375 164.539 53.5156 164.539ZM62.5938 169.156C62.0052 169.156 61.4714 169.057 60.9922 168.859C60.5182 168.656 60.1094 168.372 59.7656 168.008C59.4271 167.643 59.1667 167.211 58.9844 166.711C58.8021 166.211 58.7109 165.664 58.7109 165.07V164.742C58.7109 164.055 58.8125 163.443 59.0156 162.906C59.2188 162.365 59.4948 161.906 59.8438 161.531C60.1927 161.156 60.5885 160.872 61.0312 160.68C61.474 160.487 61.9323 160.391 62.4062 160.391C63.0104 160.391 63.5312 160.495 63.9688 160.703C64.4115 160.911 64.7734 161.203 65.0547 161.578C65.3359 161.948 65.5443 162.385 65.6797 162.891C65.8151 163.391 65.8828 163.938 65.8828 164.531V165.18H59.5703V164H64.4375V163.891C64.4167 163.516 64.3385 163.151 64.2031 162.797C64.0729 162.443 63.8646 162.151 63.5781 161.922C63.2917 161.693 62.901 161.578 62.4062 161.578C62.0781 161.578 61.776 161.648 61.5 161.789C61.224 161.924 60.987 162.128 60.7891 162.398C60.5911 162.669 60.4375 163 60.3281 163.391C60.2188 163.781 60.1641 164.232 60.1641 164.742V165.07C60.1641 165.471 60.2188 165.849 60.3281 166.203C60.4427 166.552 60.6068 166.859 60.8203 167.125C61.0391 167.391 61.3021 167.599 61.6094 167.75C61.9219 167.901 62.276 167.977 62.6719 167.977C63.1823 167.977 63.6146 167.872 63.9688 167.664C64.3229 167.456 64.6328 167.177 64.8984 166.828L65.7734 167.523C65.5911 167.799 65.3594 168.062 65.0781 168.312C64.7969 168.562 64.4505 168.766 64.0391 168.922C63.6328 169.078 63.151 169.156 62.5938 169.156ZM69.0156 161.875V169H67.5703V160.547H68.9766L69.0156 161.875ZM71.6562 160.5L71.6484 161.844C71.5286 161.818 71.4141 161.802 71.3047 161.797C71.2005 161.786 71.0807 161.781 70.9453 161.781C70.612 161.781 70.3177 161.833 70.0625 161.938C69.8073 162.042 69.5911 162.188 69.4141 162.375C69.237 162.562 69.0964 162.786 68.9922 163.047C68.8932 163.302 68.8281 163.583 68.7969 163.891L68.3906 164.125C68.3906 163.615 68.4401 163.135 68.5391 162.688C68.6432 162.24 68.8021 161.844 69.0156 161.5C69.2292 161.151 69.5 160.88 69.8281 160.688C70.1615 160.49 70.5573 160.391 71.0156 160.391C71.1198 160.391 71.2396 160.404 71.375 160.43C71.5104 160.451 71.6042 160.474 71.6562 160.5ZM77.9141 166.758C77.9141 166.549 77.8672 166.357 77.7734 166.18C77.6849 165.997 77.5 165.833 77.2188 165.688C76.9427 165.536 76.526 165.406 75.9688 165.297C75.5 165.198 75.0755 165.081 74.6953 164.945C74.3203 164.81 74 164.646 73.7344 164.453C73.474 164.26 73.2734 164.034 73.1328 163.773C72.9922 163.513 72.9219 163.208 72.9219 162.859C72.9219 162.526 72.9948 162.211 73.1406 161.914C73.2917 161.617 73.5026 161.354 73.7734 161.125C74.0495 160.896 74.3802 160.716 74.7656 160.586C75.151 160.456 75.5807 160.391 76.0547 160.391C76.7318 160.391 77.3099 160.51 77.7891 160.75C78.2682 160.99 78.6354 161.31 78.8906 161.711C79.1458 162.107 79.2734 162.547 79.2734 163.031H77.8281C77.8281 162.797 77.7578 162.57 77.6172 162.352C77.4818 162.128 77.2812 161.943 77.0156 161.797C76.7552 161.651 76.4349 161.578 76.0547 161.578C75.6536 161.578 75.3281 161.641 75.0781 161.766C74.8333 161.885 74.6536 162.039 74.5391 162.227C74.4297 162.414 74.375 162.612 74.375 162.82C74.375 162.977 74.401 163.117 74.4531 163.242C74.5104 163.362 74.6094 163.474 74.75 163.578C74.8906 163.677 75.0885 163.771 75.3438 163.859C75.599 163.948 75.9245 164.036 76.3203 164.125C77.013 164.281 77.5833 164.469 78.0312 164.688C78.4792 164.906 78.8125 165.174 79.0312 165.492C79.25 165.81 79.3594 166.195 79.3594 166.648C79.3594 167.018 79.2812 167.357 79.125 167.664C78.974 167.971 78.7526 168.237 78.4609 168.461C78.1745 168.68 77.8307 168.852 77.4297 168.977C77.0339 169.096 76.5885 169.156 76.0938 169.156C75.349 169.156 74.7188 169.023 74.2031 168.758C73.6875 168.492 73.2969 168.148 73.0312 167.727C72.7656 167.305 72.6328 166.859 72.6328 166.391H74.0859C74.1068 166.786 74.2214 167.102 74.4297 167.336C74.638 167.565 74.8932 167.729 75.1953 167.828C75.4974 167.922 75.7969 167.969 76.0938 167.969C76.4896 167.969 76.8203 167.917 77.0859 167.812C77.3568 167.708 77.5625 167.565 77.7031 167.383C77.8438 167.201 77.9141 166.992 77.9141 166.758ZM80.875 164.867V164.688C80.875 164.078 80.9635 163.513 81.1406 162.992C81.3177 162.466 81.5729 162.01 81.9062 161.625C82.2396 161.234 82.6432 160.932 83.1172 160.719C83.5911 160.5 84.1224 160.391 84.7109 160.391C85.3047 160.391 85.8385 160.5 86.3125 160.719C86.7917 160.932 87.1979 161.234 87.5312 161.625C87.8698 162.01 88.1276 162.466 88.3047 162.992C88.4818 163.513 88.5703 164.078 88.5703 164.688V164.867C88.5703 165.477 88.4818 166.042 88.3047 166.562C88.1276 167.083 87.8698 167.539 87.5312 167.93C87.1979 168.315 86.7943 168.617 86.3203 168.836C85.8516 169.049 85.3203 169.156 84.7266 169.156C84.1328 169.156 83.599 169.049 83.125 168.836C82.651 168.617 82.2448 168.315 81.9062 167.93C81.5729 167.539 81.3177 167.083 81.1406 166.562C80.9635 166.042 80.875 165.477 80.875 164.867ZM82.3203 164.688V164.867C82.3203 165.289 82.3698 165.688 82.4688 166.062C82.5677 166.432 82.7161 166.76 82.9141 167.047C83.1172 167.333 83.3698 167.56 83.6719 167.727C83.974 167.888 84.3255 167.969 84.7266 167.969C85.1224 167.969 85.4688 167.888 85.7656 167.727C86.0677 167.56 86.3177 167.333 86.5156 167.047C86.7135 166.76 86.862 166.432 86.9609 166.062C87.0651 165.688 87.1172 165.289 87.1172 164.867V164.688C87.1172 164.271 87.0651 163.878 86.9609 163.508C86.862 163.133 86.7109 162.802 86.5078 162.516C86.3099 162.224 86.0599 161.995 85.7578 161.828C85.4609 161.661 85.112 161.578 84.7109 161.578C84.3151 161.578 83.9661 161.661 83.6641 161.828C83.3672 161.995 83.1172 162.224 82.9141 162.516C82.7161 162.802 82.5677 163.133 82.4688 163.508C82.3698 163.878 82.3203 164.271 82.3203 164.688ZM91.8281 162.352V169H90.3828V160.547H91.75L91.8281 162.352ZM91.4844 164.453L90.8828 164.43C90.888 163.852 90.974 163.318 91.1406 162.828C91.3073 162.333 91.5417 161.904 91.8438 161.539C92.1458 161.174 92.5052 160.893 92.9219 160.695C93.3438 160.492 93.8099 160.391 94.3203 160.391C94.737 160.391 95.112 160.448 95.4453 160.562C95.7786 160.672 96.0625 160.849 96.2969 161.094C96.5365 161.339 96.7188 161.656 96.8438 162.047C96.9688 162.432 97.0312 162.904 97.0312 163.461V169H95.5781V163.445C95.5781 163.003 95.513 162.648 95.3828 162.383C95.2526 162.112 95.0625 161.917 94.8125 161.797C94.5625 161.672 94.2552 161.609 93.8906 161.609C93.5312 161.609 93.2031 161.685 92.9062 161.836C92.6146 161.987 92.362 162.195 92.1484 162.461C91.9401 162.727 91.776 163.031 91.6562 163.375C91.5417 163.714 91.4844 164.073 91.4844 164.453ZM104.211 167.555V163.203C104.211 162.87 104.143 162.581 104.008 162.336C103.878 162.086 103.68 161.893 103.414 161.758C103.148 161.622 102.82 161.555 102.43 161.555C102.065 161.555 101.745 161.617 101.469 161.742C101.198 161.867 100.984 162.031 100.828 162.234C100.677 162.438 100.602 162.656 100.602 162.891H99.1562C99.1562 162.589 99.2344 162.289 99.3906 161.992C99.5469 161.695 99.7708 161.427 100.062 161.188C100.359 160.943 100.714 160.75 101.125 160.609C101.542 160.464 102.005 160.391 102.516 160.391C103.13 160.391 103.672 160.495 104.141 160.703C104.615 160.911 104.984 161.227 105.25 161.648C105.521 162.065 105.656 162.589 105.656 163.219V167.156C105.656 167.438 105.68 167.737 105.727 168.055C105.779 168.372 105.854 168.646 105.953 168.875V169H104.445C104.372 168.833 104.315 168.612 104.273 168.336C104.232 168.055 104.211 167.794 104.211 167.555ZM104.461 163.875L104.477 164.891H103.016C102.604 164.891 102.237 164.924 101.914 164.992C101.591 165.055 101.32 165.151 101.102 165.281C100.883 165.411 100.716 165.576 100.602 165.773C100.487 165.966 100.43 166.193 100.43 166.453C100.43 166.719 100.49 166.961 100.609 167.18C100.729 167.398 100.909 167.573 101.148 167.703C101.393 167.828 101.693 167.891 102.047 167.891C102.49 167.891 102.88 167.797 103.219 167.609C103.557 167.422 103.826 167.193 104.023 166.922C104.227 166.651 104.336 166.388 104.352 166.133L104.969 166.828C104.932 167.047 104.833 167.289 104.672 167.555C104.51 167.82 104.294 168.076 104.023 168.32C103.758 168.56 103.44 168.76 103.07 168.922C102.706 169.078 102.294 169.156 101.836 169.156C101.263 169.156 100.76 169.044 100.328 168.82C99.901 168.596 99.5677 168.297 99.3281 167.922C99.0938 167.542 98.9766 167.117 98.9766 166.648C98.9766 166.195 99.0651 165.797 99.2422 165.453C99.4193 165.104 99.6745 164.815 100.008 164.586C100.341 164.352 100.742 164.174 101.211 164.055C101.68 163.935 102.203 163.875 102.781 163.875H104.461ZM109.5 157V169H108.047V157H109.5ZM117.234 161.875V169H115.789V160.547H117.195L117.234 161.875ZM119.875 160.5L119.867 161.844C119.747 161.818 119.633 161.802 119.523 161.797C119.419 161.786 119.299 161.781 119.164 161.781C118.831 161.781 118.536 161.833 118.281 161.938C118.026 162.042 117.81 162.188 117.633 162.375C117.456 162.562 117.315 162.786 117.211 163.047C117.112 163.302 117.047 163.583 117.016 163.891L116.609 164.125C116.609 163.615 116.659 163.135 116.758 162.688C116.862 162.24 117.021 161.844 117.234 161.5C117.448 161.151 117.719 160.88 118.047 160.688C118.38 160.49 118.776 160.391 119.234 160.391C119.339 160.391 119.458 160.404 119.594 160.43C119.729 160.451 119.823 160.474 119.875 160.5ZM125.883 167.555V163.203C125.883 162.87 125.815 162.581 125.68 162.336C125.549 162.086 125.352 161.893 125.086 161.758C124.82 161.622 124.492 161.555 124.102 161.555C123.737 161.555 123.417 161.617 123.141 161.742C122.87 161.867 122.656 162.031 122.5 162.234C122.349 162.438 122.273 162.656 122.273 162.891H120.828C120.828 162.589 120.906 162.289 121.062 161.992C121.219 161.695 121.443 161.427 121.734 161.188C122.031 160.943 122.385 160.75 122.797 160.609C123.214 160.464 123.677 160.391 124.188 160.391C124.802 160.391 125.344 160.495 125.812 160.703C126.286 160.911 126.656 161.227 126.922 161.648C127.193 162.065 127.328 162.589 127.328 163.219V167.156C127.328 167.438 127.352 167.737 127.398 168.055C127.451 168.372 127.526 168.646 127.625 168.875V169H126.117C126.044 168.833 125.987 168.612 125.945 168.336C125.904 168.055 125.883 167.794 125.883 167.555ZM126.133 163.875L126.148 164.891H124.688C124.276 164.891 123.909 164.924 123.586 164.992C123.263 165.055 122.992 165.151 122.773 165.281C122.555 165.411 122.388 165.576 122.273 165.773C122.159 165.966 122.102 166.193 122.102 166.453C122.102 166.719 122.161 166.961 122.281 167.18C122.401 167.398 122.581 167.573 122.82 167.703C123.065 167.828 123.365 167.891 123.719 167.891C124.161 167.891 124.552 167.797 124.891 167.609C125.229 167.422 125.497 167.193 125.695 166.922C125.898 166.651 126.008 166.388 126.023 166.133L126.641 166.828C126.604 167.047 126.505 167.289 126.344 167.555C126.182 167.82 125.966 168.076 125.695 168.32C125.43 168.56 125.112 168.76 124.742 168.922C124.378 169.078 123.966 169.156 123.508 169.156C122.935 169.156 122.432 169.044 122 168.82C121.573 168.596 121.24 168.297 121 167.922C120.766 167.542 120.648 167.117 120.648 166.648C120.648 166.195 120.737 165.797 120.914 165.453C121.091 165.104 121.346 164.815 121.68 164.586C122.013 164.352 122.414 164.174 122.883 164.055C123.352 163.935 123.875 163.875 124.453 163.875H126.133ZM133.141 160.547V161.656H128.57V160.547H133.141ZM130.117 158.492H131.562V166.906C131.562 167.193 131.607 167.409 131.695 167.555C131.784 167.701 131.898 167.797 132.039 167.844C132.18 167.891 132.331 167.914 132.492 167.914C132.612 167.914 132.737 167.904 132.867 167.883C133.003 167.857 133.104 167.836 133.172 167.82L133.18 169C133.065 169.036 132.914 169.07 132.727 169.102C132.544 169.138 132.323 169.156 132.062 169.156C131.708 169.156 131.383 169.086 131.086 168.945C130.789 168.805 130.552 168.57 130.375 168.242C130.203 167.909 130.117 167.461 130.117 166.898V158.492ZM138.344 169.156C137.755 169.156 137.221 169.057 136.742 168.859C136.268 168.656 135.859 168.372 135.516 168.008C135.177 167.643 134.917 167.211 134.734 166.711C134.552 166.211 134.461 165.664 134.461 165.07V164.742C134.461 164.055 134.562 163.443 134.766 162.906C134.969 162.365 135.245 161.906 135.594 161.531C135.943 161.156 136.339 160.872 136.781 160.68C137.224 160.487 137.682 160.391 138.156 160.391C138.76 160.391 139.281 160.495 139.719 160.703C140.161 160.911 140.523 161.203 140.805 161.578C141.086 161.948 141.294 162.385 141.43 162.891C141.565 163.391 141.633 163.938 141.633 164.531V165.18H135.32V164H140.188V163.891C140.167 163.516 140.089 163.151 139.953 162.797C139.823 162.443 139.615 162.151 139.328 161.922C139.042 161.693 138.651 161.578 138.156 161.578C137.828 161.578 137.526 161.648 137.25 161.789C136.974 161.924 136.737 162.128 136.539 162.398C136.341 162.669 136.188 163 136.078 163.391C135.969 163.781 135.914 164.232 135.914 164.742V165.07C135.914 165.471 135.969 165.849 136.078 166.203C136.193 166.552 136.357 166.859 136.57 167.125C136.789 167.391 137.052 167.599 137.359 167.75C137.672 167.901 138.026 167.977 138.422 167.977C138.932 167.977 139.365 167.872 139.719 167.664C140.073 167.456 140.383 167.177 140.648 166.828L141.523 167.523C141.341 167.799 141.109 168.062 140.828 168.312C140.547 168.562 140.201 168.766 139.789 168.922C139.383 169.078 138.901 169.156 138.344 169.156ZM152.211 166.758C152.211 166.549 152.164 166.357 152.07 166.18C151.982 165.997 151.797 165.833 151.516 165.688C151.24 165.536 150.823 165.406 150.266 165.297C149.797 165.198 149.372 165.081 148.992 164.945C148.617 164.81 148.297 164.646 148.031 164.453C147.771 164.26 147.57 164.034 147.43 163.773C147.289 163.513 147.219 163.208 147.219 162.859C147.219 162.526 147.292 162.211 147.438 161.914C147.589 161.617 147.799 161.354 148.07 161.125C148.346 160.896 148.677 160.716 149.062 160.586C149.448 160.456 149.878 160.391 150.352 160.391C151.029 160.391 151.607 160.51 152.086 160.75C152.565 160.99 152.932 161.31 153.188 161.711C153.443 162.107 153.57 162.547 153.57 163.031H152.125C152.125 162.797 152.055 162.57 151.914 162.352C151.779 162.128 151.578 161.943 151.312 161.797C151.052 161.651 150.732 161.578 150.352 161.578C149.951 161.578 149.625 161.641 149.375 161.766C149.13 161.885 148.951 162.039 148.836 162.227C148.727 162.414 148.672 162.612 148.672 162.82C148.672 162.977 148.698 163.117 148.75 163.242C148.807 163.362 148.906 163.474 149.047 163.578C149.188 163.677 149.385 163.771 149.641 163.859C149.896 163.948 150.221 164.036 150.617 164.125C151.31 164.281 151.88 164.469 152.328 164.688C152.776 164.906 153.109 165.174 153.328 165.492C153.547 165.81 153.656 166.195 153.656 166.648C153.656 167.018 153.578 167.357 153.422 167.664C153.271 167.971 153.049 168.237 152.758 168.461C152.471 168.68 152.128 168.852 151.727 168.977C151.331 169.096 150.885 169.156 150.391 169.156C149.646 169.156 149.016 169.023 148.5 168.758C147.984 168.492 147.594 168.148 147.328 167.727C147.062 167.305 146.93 166.859 146.93 166.391H148.383C148.404 166.786 148.518 167.102 148.727 167.336C148.935 167.565 149.19 167.729 149.492 167.828C149.794 167.922 150.094 167.969 150.391 167.969C150.786 167.969 151.117 167.917 151.383 167.812C151.654 167.708 151.859 167.565 152 167.383C152.141 167.201 152.211 166.992 152.211 166.758ZM159.062 169.156C158.474 169.156 157.94 169.057 157.461 168.859C156.987 168.656 156.578 168.372 156.234 168.008C155.896 167.643 155.635 167.211 155.453 166.711C155.271 166.211 155.18 165.664 155.18 165.07V164.742C155.18 164.055 155.281 163.443 155.484 162.906C155.688 162.365 155.964 161.906 156.312 161.531C156.661 161.156 157.057 160.872 157.5 160.68C157.943 160.487 158.401 160.391 158.875 160.391C159.479 160.391 160 160.495 160.438 160.703C160.88 160.911 161.242 161.203 161.523 161.578C161.805 161.948 162.013 162.385 162.148 162.891C162.284 163.391 162.352 163.938 162.352 164.531V165.18H156.039V164H160.906V163.891C160.885 163.516 160.807 163.151 160.672 162.797C160.542 162.443 160.333 162.151 160.047 161.922C159.76 161.693 159.37 161.578 158.875 161.578C158.547 161.578 158.245 161.648 157.969 161.789C157.693 161.924 157.456 162.128 157.258 162.398C157.06 162.669 156.906 163 156.797 163.391C156.688 163.781 156.633 164.232 156.633 164.742V165.07C156.633 165.471 156.688 165.849 156.797 166.203C156.911 166.552 157.076 166.859 157.289 167.125C157.508 167.391 157.771 167.599 158.078 167.75C158.391 167.901 158.745 167.977 159.141 167.977C159.651 167.977 160.083 167.872 160.438 167.664C160.792 167.456 161.102 167.177 161.367 166.828L162.242 167.523C162.06 167.799 161.828 168.062 161.547 168.312C161.266 168.562 160.919 168.766 160.508 168.922C160.102 169.078 159.62 169.156 159.062 169.156ZM167.578 160.547V161.656H163.008V160.547H167.578ZM164.555 158.492H166V166.906C166 167.193 166.044 167.409 166.133 167.555C166.221 167.701 166.336 167.797 166.477 167.844C166.617 167.891 166.768 167.914 166.93 167.914C167.049 167.914 167.174 167.904 167.305 167.883C167.44 167.857 167.542 167.836 167.609 167.82L167.617 169C167.503 169.036 167.352 169.07 167.164 169.102C166.982 169.138 166.76 169.156 166.5 169.156C166.146 169.156 165.82 169.086 165.523 168.945C165.227 168.805 164.99 168.57 164.812 168.242C164.641 167.909 164.555 167.461 164.555 166.898V158.492ZM172.812 160.547V161.656H168.242V160.547H172.812ZM169.789 158.492H171.234V166.906C171.234 167.193 171.279 167.409 171.367 167.555C171.456 167.701 171.57 167.797 171.711 167.844C171.852 167.891 172.003 167.914 172.164 167.914C172.284 167.914 172.409 167.904 172.539 167.883C172.674 167.857 172.776 167.836 172.844 167.82L172.852 169C172.737 169.036 172.586 169.07 172.398 169.102C172.216 169.138 171.995 169.156 171.734 169.156C171.38 169.156 171.055 169.086 170.758 168.945C170.461 168.805 170.224 168.57 170.047 168.242C169.875 167.909 169.789 167.461 169.789 166.898V158.492ZM176.078 160.547V169H174.625V160.547H176.078ZM174.516 158.305C174.516 158.07 174.586 157.872 174.727 157.711C174.872 157.549 175.086 157.469 175.367 157.469C175.643 157.469 175.854 157.549 176 157.711C176.151 157.872 176.227 158.07 176.227 158.305C176.227 158.529 176.151 158.721 176 158.883C175.854 159.039 175.643 159.117 175.367 159.117C175.086 159.117 174.872 159.039 174.727 158.883C174.586 158.721 174.516 158.529 174.516 158.305ZM179.844 162.352V169H178.398V160.547H179.766L179.844 162.352ZM179.5 164.453L178.898 164.43C178.904 163.852 178.99 163.318 179.156 162.828C179.323 162.333 179.557 161.904 179.859 161.539C180.161 161.174 180.521 160.893 180.938 160.695C181.359 160.492 181.826 160.391 182.336 160.391C182.753 160.391 183.128 160.448 183.461 160.562C183.794 160.672 184.078 160.849 184.312 161.094C184.552 161.339 184.734 161.656 184.859 162.047C184.984 162.432 185.047 162.904 185.047 163.461V169H183.594V163.445C183.594 163.003 183.529 162.648 183.398 162.383C183.268 162.112 183.078 161.917 182.828 161.797C182.578 161.672 182.271 161.609 181.906 161.609C181.547 161.609 181.219 161.685 180.922 161.836C180.63 161.987 180.378 162.195 180.164 162.461C179.956 162.727 179.792 163.031 179.672 163.375C179.557 163.714 179.5 164.073 179.5 164.453ZM192.719 160.547H194.031V168.82C194.031 169.565 193.88 170.201 193.578 170.727C193.276 171.253 192.854 171.651 192.312 171.922C191.776 172.198 191.156 172.336 190.453 172.336C190.161 172.336 189.818 172.289 189.422 172.195C189.031 172.107 188.646 171.953 188.266 171.734C187.891 171.521 187.576 171.232 187.32 170.867L188.078 170.008C188.432 170.435 188.802 170.732 189.188 170.898C189.578 171.065 189.964 171.148 190.344 171.148C190.802 171.148 191.198 171.062 191.531 170.891C191.865 170.719 192.122 170.464 192.305 170.125C192.492 169.792 192.586 169.38 192.586 168.891V162.406L192.719 160.547ZM186.898 164.867V164.703C186.898 164.057 186.974 163.471 187.125 162.945C187.281 162.414 187.503 161.958 187.789 161.578C188.081 161.198 188.432 160.906 188.844 160.703C189.255 160.495 189.719 160.391 190.234 160.391C190.766 160.391 191.229 160.484 191.625 160.672C192.026 160.854 192.365 161.122 192.641 161.477C192.922 161.826 193.143 162.247 193.305 162.742C193.466 163.237 193.578 163.797 193.641 164.422V165.141C193.583 165.76 193.471 166.318 193.305 166.812C193.143 167.307 192.922 167.729 192.641 168.078C192.365 168.427 192.026 168.695 191.625 168.883C191.224 169.065 190.755 169.156 190.219 169.156C189.714 169.156 189.255 169.049 188.844 168.836C188.438 168.622 188.089 168.323 187.797 167.938C187.505 167.552 187.281 167.099 187.125 166.578C186.974 166.052 186.898 165.482 186.898 164.867ZM188.344 164.703V164.867C188.344 165.289 188.385 165.685 188.469 166.055C188.557 166.424 188.69 166.75 188.867 167.031C189.049 167.312 189.281 167.534 189.562 167.695C189.844 167.852 190.18 167.93 190.57 167.93C191.049 167.93 191.445 167.828 191.758 167.625C192.07 167.422 192.318 167.154 192.5 166.82C192.688 166.487 192.833 166.125 192.938 165.734V163.852C192.88 163.565 192.792 163.289 192.672 163.023C192.557 162.753 192.406 162.513 192.219 162.305C192.036 162.091 191.81 161.922 191.539 161.797C191.268 161.672 190.951 161.609 190.586 161.609C190.19 161.609 189.849 161.693 189.562 161.859C189.281 162.021 189.049 162.245 188.867 162.531C188.69 162.812 188.557 163.141 188.469 163.516C188.385 163.885 188.344 164.281 188.344 164.703Z" fill="#2F2F2F"/>
</svg>
