<svg width="704" height="72" viewBox="0 0 704 72" fill="none" xmlns="http://www.w3.org/2000/svg">
<path d="M6.56543 3.20312V16H4.37695V3.20312H6.56543ZM10.582 3.20312V4.96094H0.395508V3.20312H10.582ZM13.5527 8.30078V16H11.4346V6.49023H13.4561L13.5527 8.30078ZM16.4619 6.42871L16.4443 8.39746C16.3154 8.37402 16.1748 8.35645 16.0225 8.34473C15.876 8.33301 15.7295 8.32715 15.583 8.32715C15.2197 8.32715 14.9004 8.37988 14.625 8.48535C14.3496 8.58496 14.1182 8.73145 13.9307 8.9248C13.749 9.1123 13.6084 9.34082 13.5088 9.61035C13.4092 9.87988 13.3506 10.1816 13.333 10.5156L12.8496 10.5508C12.8496 9.95312 12.9082 9.39941 13.0254 8.88965C13.1426 8.37988 13.3184 7.93164 13.5527 7.54492C13.793 7.1582 14.0918 6.85645 14.4492 6.63965C14.8125 6.42285 15.2314 6.31445 15.7061 6.31445C15.835 6.31445 15.9727 6.32617 16.1191 6.34961C16.2715 6.37305 16.3857 6.39941 16.4619 6.42871ZM22.834 14.0928V9.55762C22.834 9.21777 22.7725 8.9248 22.6494 8.67871C22.5264 8.43262 22.3389 8.24219 22.0869 8.10742C21.8408 7.97266 21.5303 7.90527 21.1553 7.90527C20.8096 7.90527 20.5107 7.96387 20.2588 8.08105C20.0068 8.19824 19.8105 8.35645 19.6699 8.55566C19.5293 8.75488 19.459 8.98047 19.459 9.23242H17.3496C17.3496 8.85742 17.4404 8.49414 17.6221 8.14258C17.8037 7.79102 18.0674 7.47754 18.4131 7.20215C18.7588 6.92676 19.1719 6.70996 19.6523 6.55176C20.1328 6.39355 20.6719 6.31445 21.2695 6.31445C21.9844 6.31445 22.6172 6.43457 23.168 6.6748C23.7246 6.91504 24.1611 7.27832 24.4775 7.76465C24.7998 8.24512 24.9609 8.84863 24.9609 9.5752V13.8027C24.9609 14.2363 24.9902 14.626 25.0488 14.9717C25.1133 15.3115 25.2041 15.6074 25.3213 15.8594V16H23.1504C23.0508 15.7715 22.9717 15.4814 22.9131 15.1299C22.8604 14.7725 22.834 14.4268 22.834 14.0928ZM23.1416 10.2168L23.1592 11.5264H21.6387C21.2461 11.5264 20.9004 11.5645 20.6016 11.6406C20.3027 11.7109 20.0537 11.8164 19.8545 11.957C19.6553 12.0977 19.5059 12.2676 19.4062 12.4668C19.3066 12.666 19.2568 12.8916 19.2568 13.1436C19.2568 13.3955 19.3154 13.627 19.4326 13.8379C19.5498 14.043 19.7197 14.2041 19.9424 14.3213C20.1709 14.4385 20.4463 14.4971 20.7686 14.4971C21.2021 14.4971 21.5801 14.4092 21.9023 14.2334C22.2305 14.0518 22.4883 13.832 22.6758 13.5742C22.8633 13.3105 22.9629 13.0615 22.9746 12.8271L23.6602 13.7676C23.5898 14.0078 23.4697 14.2656 23.2998 14.541C23.1299 14.8164 22.9072 15.0801 22.6318 15.332C22.3623 15.5781 22.0371 15.7803 21.6562 15.9385C21.2812 16.0967 20.8477 16.1758 20.3555 16.1758C19.7344 16.1758 19.1807 16.0527 18.6943 15.8066C18.208 15.5547 17.8271 15.2178 17.5518 14.7959C17.2764 14.3682 17.1387 13.8848 17.1387 13.3457C17.1387 12.8418 17.2324 12.3965 17.4199 12.0098C17.6133 11.6172 17.8945 11.2891 18.2637 11.0254C18.6387 10.7617 19.0957 10.5625 19.6348 10.4277C20.1738 10.2871 20.7891 10.2168 21.4805 10.2168H23.1416ZM31.0605 14.4883C31.4062 14.4883 31.7168 14.4209 31.9922 14.2861C32.2734 14.1455 32.499 13.9521 32.6689 13.7061C32.8447 13.46 32.9414 13.1758 32.959 12.8535H34.9541C34.9424 13.4688 34.7607 14.0283 34.4092 14.5322C34.0576 15.0361 33.5918 15.4375 33.0117 15.7363C32.4316 16.0293 31.79 16.1758 31.0869 16.1758C30.3604 16.1758 29.7275 16.0527 29.1885 15.8066C28.6494 15.5547 28.2012 15.209 27.8438 14.7695C27.4863 14.3301 27.2168 13.8232 27.0352 13.249C26.8594 12.6748 26.7715 12.0596 26.7715 11.4033V11.0957C26.7715 10.4395 26.8594 9.82422 27.0352 9.25C27.2168 8.66992 27.4863 8.16016 27.8438 7.7207C28.2012 7.28125 28.6494 6.93848 29.1885 6.69238C29.7275 6.44043 30.3574 6.31445 31.0781 6.31445C31.8398 6.31445 32.5078 6.4668 33.082 6.77148C33.6562 7.07031 34.1074 7.48926 34.4355 8.02832C34.7695 8.56152 34.9424 9.18262 34.9541 9.8916H32.959C32.9414 9.54004 32.8535 9.22363 32.6953 8.94238C32.543 8.65527 32.3262 8.42676 32.0449 8.25684C31.7695 8.08691 31.4385 8.00195 31.0518 8.00195C30.624 8.00195 30.2695 8.08984 29.9883 8.26562C29.707 8.43555 29.4873 8.66992 29.3291 8.96875C29.1709 9.26172 29.0566 9.59277 28.9863 9.96191C28.9219 10.3252 28.8896 10.7031 28.8896 11.0957V11.4033C28.8896 11.7959 28.9219 12.1768 28.9863 12.5459C29.0508 12.915 29.1621 13.2461 29.3203 13.5391C29.4844 13.8262 29.707 14.0576 29.9883 14.2334C30.2695 14.4033 30.627 14.4883 31.0605 14.4883ZM38.7158 2.5V16H36.5889V2.5H38.7158ZM44.6221 6.49023L40.4824 11.0781L38.2148 13.3984L37.6611 11.6055L39.375 9.4873L42.0645 6.49023H44.6221ZM42.5215 16L39.4365 11.5352L40.7725 10.0498L44.9736 16H42.5215ZM49.9834 16.1758C49.2803 16.1758 48.6445 16.0615 48.0762 15.833C47.5137 15.5986 47.0332 15.2734 46.6348 14.8574C46.2422 14.4414 45.9404 13.9521 45.7295 13.3896C45.5186 12.8271 45.4131 12.2207 45.4131 11.5703V11.2188C45.4131 10.4746 45.5215 9.80078 45.7383 9.19727C45.9551 8.59375 46.2568 8.07812 46.6436 7.65039C47.0303 7.2168 47.4873 6.88574 48.0146 6.65723C48.542 6.42871 49.1133 6.31445 49.7285 6.31445C50.4082 6.31445 51.0029 6.42871 51.5127 6.65723C52.0225 6.88574 52.4443 7.20801 52.7783 7.62402C53.1182 8.03418 53.3701 8.52344 53.5342 9.0918C53.7041 9.66016 53.7891 10.2871 53.7891 10.9727V11.8779H46.4414V10.3574H51.6973V10.1904C51.6855 9.80957 51.6094 9.45215 51.4688 9.11816C51.334 8.78418 51.126 8.51465 50.8447 8.30957C50.5635 8.10449 50.1885 8.00195 49.7197 8.00195C49.3682 8.00195 49.0547 8.07812 48.7793 8.23047C48.5098 8.37695 48.2842 8.59082 48.1025 8.87207C47.9209 9.15332 47.7803 9.49316 47.6807 9.8916C47.5869 10.2842 47.54 10.7266 47.54 11.2188V11.5703C47.54 11.9863 47.5957 12.373 47.707 12.7305C47.8242 13.082 47.9941 13.3896 48.2168 13.6533C48.4395 13.917 48.709 14.125 49.0254 14.2773C49.3418 14.4238 49.7021 14.4971 50.1064 14.4971C50.6162 14.4971 51.0703 14.3945 51.4688 14.1895C51.8672 13.9844 52.2129 13.6943 52.5059 13.3193L53.6221 14.4004C53.417 14.6992 53.1504 14.9863 52.8223 15.2617C52.4941 15.5312 52.0928 15.751 51.6182 15.9209C51.1494 16.0908 50.6045 16.1758 49.9834 16.1758ZM57.5684 8.30078V16H55.4502V6.49023H57.4717L57.5684 8.30078ZM60.4775 6.42871L60.46 8.39746C60.3311 8.37402 60.1904 8.35645 60.0381 8.34473C59.8916 8.33301 59.7451 8.32715 59.5986 8.32715C59.2354 8.32715 58.916 8.37988 58.6406 8.48535C58.3652 8.58496 58.1338 8.73145 57.9463 8.9248C57.7646 9.1123 57.624 9.34082 57.5244 9.61035C57.4248 9.87988 57.3662 10.1816 57.3486 10.5156L56.8652 10.5508C56.8652 9.95312 56.9238 9.39941 57.041 8.88965C57.1582 8.37988 57.334 7.93164 57.5684 7.54492C57.8086 7.1582 58.1074 6.85645 58.4648 6.63965C58.8281 6.42285 59.2471 6.31445 59.7217 6.31445C59.8506 6.31445 59.9883 6.32617 60.1348 6.34961C60.2871 6.37305 60.4014 6.39941 60.4775 6.42871ZM71.2969 10.2168H68.0361L68.0186 8.6084H70.8662C71.3467 8.6084 71.7539 8.53809 72.0879 8.39746C72.4277 8.25098 72.6855 8.04297 72.8613 7.77344C73.0371 7.49805 73.125 7.16699 73.125 6.78027C73.125 6.35254 73.043 6.00391 72.8789 5.73438C72.7148 5.46484 72.4629 5.26855 72.123 5.14551C71.7891 5.02246 71.3613 4.96094 70.8398 4.96094H68.7041V16H66.498V3.20312H70.8398C71.543 3.20312 72.1699 3.27051 72.7207 3.40527C73.2773 3.54004 73.749 3.75098 74.1357 4.03809C74.5283 4.31934 74.8242 4.67676 75.0234 5.11035C75.2285 5.54395 75.3311 6.05957 75.3311 6.65723C75.3311 7.18457 75.2051 7.66797 74.9531 8.10742C74.7012 8.54102 74.3291 8.89551 73.8369 9.1709C73.3447 9.44629 72.7324 9.61035 72 9.66309L71.2969 10.2168ZM71.2002 16H67.3418L68.335 14.251H71.2002C71.6982 14.251 72.1143 14.1689 72.4482 14.0049C72.7822 13.835 73.0312 13.6035 73.1953 13.3105C73.3652 13.0117 73.4502 12.6631 73.4502 12.2646C73.4502 11.8486 73.377 11.4883 73.2305 11.1836C73.084 10.873 72.8525 10.6357 72.5361 10.4717C72.2197 10.3018 71.8066 10.2168 71.2969 10.2168H68.8184L68.8359 8.6084H72.0615L72.5625 9.21484C73.2656 9.23828 73.8428 9.39355 74.2939 9.68066C74.751 9.96777 75.0908 10.3398 75.3135 10.7969C75.5361 11.2539 75.6475 11.7461 75.6475 12.2734C75.6475 13.0879 75.4688 13.7705 75.1113 14.3213C74.7598 14.8721 74.2529 15.291 73.5908 15.5781C72.9287 15.8594 72.1318 16 71.2002 16ZM81.8525 16.1758C81.1494 16.1758 80.5137 16.0615 79.9453 15.833C79.3828 15.5986 78.9023 15.2734 78.5039 14.8574C78.1113 14.4414 77.8096 13.9521 77.5986 13.3896C77.3877 12.8271 77.2822 12.2207 77.2822 11.5703V11.2188C77.2822 10.4746 77.3906 9.80078 77.6074 9.19727C77.8242 8.59375 78.126 8.07812 78.5127 7.65039C78.8994 7.2168 79.3564 6.88574 79.8838 6.65723C80.4111 6.42871 80.9824 6.31445 81.5977 6.31445C82.2773 6.31445 82.8721 6.42871 83.3818 6.65723C83.8916 6.88574 84.3135 7.20801 84.6475 7.62402C84.9873 8.03418 85.2393 8.52344 85.4033 9.0918C85.5732 9.66016 85.6582 10.2871 85.6582 10.9727V11.8779H78.3105V10.3574H83.5664V10.1904C83.5547 9.80957 83.4785 9.45215 83.3379 9.11816C83.2031 8.78418 82.9951 8.51465 82.7139 8.30957C82.4326 8.10449 82.0576 8.00195 81.5889 8.00195C81.2373 8.00195 80.9238 8.07812 80.6484 8.23047C80.3789 8.37695 80.1533 8.59082 79.9717 8.87207C79.79 9.15332 79.6494 9.49316 79.5498 9.8916C79.4561 10.2842 79.4092 10.7266 79.4092 11.2188V11.5703C79.4092 11.9863 79.4648 12.373 79.5762 12.7305C79.6934 13.082 79.8633 13.3896 80.0859 13.6533C80.3086 13.917 80.5781 14.125 80.8945 14.2773C81.2109 14.4238 81.5713 14.4971 81.9756 14.4971C82.4854 14.4971 82.9395 14.3945 83.3379 14.1895C83.7363 13.9844 84.082 13.6943 84.375 13.3193L85.4912 14.4004C85.2861 14.6992 85.0195 14.9863 84.6914 15.2617C84.3633 15.5312 83.9619 15.751 83.4873 15.9209C83.0186 16.0908 82.4736 16.1758 81.8525 16.1758ZM89.4111 8.52051V16H87.293V6.49023H89.2881L89.4111 8.52051ZM89.0332 10.8936L88.3477 10.8848C88.3535 10.2109 88.4473 9.59277 88.6289 9.03027C88.8164 8.46777 89.0742 7.98438 89.4023 7.58008C89.7363 7.17578 90.1348 6.86523 90.5977 6.64844C91.0605 6.42578 91.5762 6.31445 92.1445 6.31445C92.6016 6.31445 93.0146 6.37891 93.3838 6.50781C93.7588 6.63086 94.0781 6.83301 94.3418 7.11426C94.6113 7.39551 94.8164 7.76172 94.957 8.21289C95.0977 8.6582 95.168 9.20605 95.168 9.85645V16H93.041V9.84766C93.041 9.39062 92.9736 9.03027 92.8389 8.7666C92.71 8.49707 92.5195 8.30664 92.2676 8.19531C92.0215 8.07812 91.7139 8.01953 91.3447 8.01953C90.9814 8.01953 90.6562 8.0957 90.3691 8.24805C90.082 8.40039 89.8389 8.6084 89.6396 8.87207C89.4463 9.13574 89.2969 9.44043 89.1914 9.78613C89.0859 10.1318 89.0332 10.501 89.0332 10.8936ZM101.522 16.1758C100.819 16.1758 100.184 16.0615 99.6152 15.833C99.0527 15.5986 98.5723 15.2734 98.1738 14.8574C97.7812 14.4414 97.4795 13.9521 97.2686 13.3896C97.0576 12.8271 96.9521 12.2207 96.9521 11.5703V11.2188C96.9521 10.4746 97.0605 9.80078 97.2773 9.19727C97.4941 8.59375 97.7959 8.07812 98.1826 7.65039C98.5693 7.2168 99.0264 6.88574 99.5537 6.65723C100.081 6.42871 100.652 6.31445 101.268 6.31445C101.947 6.31445 102.542 6.42871 103.052 6.65723C103.562 6.88574 103.983 7.20801 104.317 7.62402C104.657 8.03418 104.909 8.52344 105.073 9.0918C105.243 9.66016 105.328 10.2871 105.328 10.9727V11.8779H97.9805V10.3574H103.236V10.1904C103.225 9.80957 103.148 9.45215 103.008 9.11816C102.873 8.78418 102.665 8.51465 102.384 8.30957C102.103 8.10449 101.728 8.00195 101.259 8.00195C100.907 8.00195 100.594 8.07812 100.318 8.23047C100.049 8.37695 99.8232 8.59082 99.6416 8.87207C99.46 9.15332 99.3193 9.49316 99.2197 9.8916C99.126 10.2842 99.0791 10.7266 99.0791 11.2188V11.5703C99.0791 11.9863 99.1348 12.373 99.2461 12.7305C99.3633 13.082 99.5332 13.3896 99.7559 13.6533C99.9785 13.917 100.248 14.125 100.564 14.2773C100.881 14.4238 101.241 14.4971 101.646 14.4971C102.155 14.4971 102.609 14.3945 103.008 14.1895C103.406 13.9844 103.752 13.6943 104.045 13.3193L105.161 14.4004C104.956 14.6992 104.689 14.9863 104.361 15.2617C104.033 15.5312 103.632 15.751 103.157 15.9209C102.688 16.0908 102.144 16.1758 101.522 16.1758ZM109.705 16H107.578V5.875C107.578 5.10742 107.73 4.45996 108.035 3.93262C108.346 3.40527 108.788 3.00391 109.362 2.72852C109.942 2.45313 110.631 2.31543 111.428 2.31543C111.896 2.31543 112.348 2.36523 112.781 2.46484C113.221 2.56445 113.675 2.69043 114.144 2.84277L113.818 4.56543C113.52 4.46582 113.188 4.37207 112.825 4.28418C112.462 4.19043 112.043 4.14355 111.568 4.14355C110.93 4.14355 110.458 4.29004 110.153 4.58301C109.854 4.87012 109.705 5.30078 109.705 5.875V16ZM111.612 6.49023V8.03711H106.119V6.49023H111.612ZM115.146 6.49023V16H113.027V6.49023H115.146ZM121.869 6.49023V8.03711H116.508V6.49023H121.869ZM118.055 4.16113H120.173V13.3721C120.173 13.665 120.214 13.8906 120.296 14.0488C120.384 14.2012 120.504 14.3037 120.656 14.3564C120.809 14.4092 120.987 14.4355 121.192 14.4355C121.339 14.4355 121.479 14.4268 121.614 14.4092C121.749 14.3916 121.857 14.374 121.939 14.3564L121.948 15.9736C121.772 16.0264 121.567 16.0732 121.333 16.1143C121.104 16.1553 120.841 16.1758 120.542 16.1758C120.056 16.1758 119.625 16.0908 119.25 15.9209C118.875 15.7451 118.582 15.4609 118.371 15.0684C118.16 14.6758 118.055 14.1543 118.055 13.5039V4.16113ZM128.839 13.4248C128.839 13.2139 128.786 13.0234 128.681 12.8535C128.575 12.6777 128.373 12.5195 128.074 12.3789C127.781 12.2383 127.348 12.1094 126.773 11.9922C126.27 11.8809 125.807 11.749 125.385 11.5967C124.969 11.4385 124.611 11.248 124.312 11.0254C124.014 10.8027 123.782 10.5391 123.618 10.2344C123.454 9.92969 123.372 9.57812 123.372 9.17969C123.372 8.79297 123.457 8.42676 123.627 8.08105C123.797 7.73535 124.04 7.43066 124.356 7.16699C124.673 6.90332 125.057 6.69531 125.508 6.54297C125.965 6.39063 126.475 6.31445 127.037 6.31445C127.834 6.31445 128.517 6.44922 129.085 6.71875C129.659 6.98242 130.099 7.34277 130.403 7.7998C130.708 8.25098 130.86 8.76074 130.86 9.3291H128.742C128.742 9.07715 128.678 8.84277 128.549 8.62598C128.426 8.40332 128.238 8.22461 127.986 8.08984C127.734 7.94922 127.418 7.87891 127.037 7.87891C126.674 7.87891 126.372 7.9375 126.132 8.05469C125.897 8.16602 125.722 8.3125 125.604 8.49414C125.493 8.67578 125.438 8.875 125.438 9.0918C125.438 9.25 125.467 9.39355 125.525 9.52246C125.59 9.64551 125.695 9.75977 125.842 9.86523C125.988 9.96484 126.188 10.0586 126.439 10.1465C126.697 10.2344 127.02 10.3193 127.406 10.4014C128.133 10.5537 128.757 10.75 129.278 10.9902C129.806 11.2246 130.21 11.5293 130.491 11.9043C130.772 12.2734 130.913 12.7422 130.913 13.3105C130.913 13.7324 130.822 14.1191 130.641 14.4707C130.465 14.8164 130.207 15.1182 129.867 15.376C129.527 15.6279 129.12 15.8242 128.646 15.9648C128.177 16.1055 127.649 16.1758 127.063 16.1758C126.202 16.1758 125.473 16.0234 124.875 15.7188C124.277 15.4082 123.823 15.0127 123.513 14.5322C123.208 14.0459 123.056 13.542 123.056 13.0205H125.104C125.127 13.4131 125.235 13.7266 125.429 13.9609C125.628 14.1895 125.874 14.3564 126.167 14.4619C126.466 14.5615 126.773 14.6113 127.09 14.6113C127.471 14.6113 127.79 14.5615 128.048 14.4619C128.306 14.3564 128.502 14.2158 128.637 14.04C128.771 13.8584 128.839 13.6533 128.839 13.4248Z" fill="#2F2F2F"/>
<path d="M11.25 37V40.75M28.75 37V40.75M5 63.25V44.5C5 43.5054 5.39509 42.5516 6.09835 41.8483C6.80161 41.1451 7.75544 40.75 8.75 40.75H31.25C32.2446 40.75 33.1984 41.1451 33.9016 41.8483C34.6049 42.5516 35 43.5054 35 44.5V63.25M5 63.25C5 64.2446 5.39509 65.1984 6.09835 65.9016C6.80161 66.6049 7.75544 67 8.75 67H31.25C32.2446 67 33.1984 66.6049 33.9016 65.9016C34.6049 65.1984 35 64.2446 35 63.25M5 63.25V50.75C5 49.7554 5.39509 48.8016 6.09835 48.0983C6.80161 47.3951 7.75544 47 8.75 47H31.25C32.2446 47 33.1984 47.3951 33.9016 48.0983C34.6049 48.8016 35 49.7554 35 50.75V63.25M20 53.25H20.0133V53.2633H20V53.25ZM20 57H20.0133V57.0133H20V57ZM20 60.75H20.0133V60.7633H20V60.75ZM16.25 57H16.2633V57.0133H16.25V57ZM16.25 60.75H16.2633V60.7633H16.25V60.75ZM12.5 57H12.5133V57.0133H12.5V57ZM12.5 60.75H12.5133V60.7633H12.5V60.75ZM23.75 53.25H23.7633V53.2633H23.75V53.25ZM23.75 57H23.7633V57.0133H23.75V57ZM23.75 60.75H23.7633V60.7633H23.75V60.75ZM27.5 53.25H27.5133V53.2633H27.5V53.25ZM27.5 57H27.5133V57.0133H27.5V57Z" stroke="#407BFF" stroke-width="2" stroke-linecap="round" stroke-linejoin="round"/>
<path d="M56.75 50.5156V51.7422H50.5938V50.5156H56.75ZM50.8281 45.625V57H49.3203V45.625H50.8281ZM58.0625 45.625V57H56.5625V45.625H58.0625ZM65.5078 55.5547V51.2031C65.5078 50.8698 65.4401 50.5807 65.3047 50.3359C65.1745 50.0859 64.9766 49.8932 64.7109 49.7578C64.4453 49.6224 64.1172 49.5547 63.7266 49.5547C63.362 49.5547 63.0417 49.6172 62.7656 49.7422C62.4948 49.8672 62.2812 50.0312 62.125 50.2344C61.974 50.4375 61.8984 50.6562 61.8984 50.8906H60.4531C60.4531 50.5885 60.5312 50.2891 60.6875 49.9922C60.8438 49.6953 61.0677 49.4271 61.3594 49.1875C61.6562 48.9427 62.0104 48.75 62.4219 48.6094C62.8385 48.4635 63.3021 48.3906 63.8125 48.3906C64.4271 48.3906 64.9688 48.4948 65.4375 48.7031C65.9115 48.9115 66.2812 49.2266 66.5469 49.6484C66.8177 50.0651 66.9531 50.5885 66.9531 51.2188V55.1562C66.9531 55.4375 66.9766 55.737 67.0234 56.0547C67.0755 56.3724 67.151 56.6458 67.25 56.875V57H65.7422C65.6693 56.8333 65.612 56.612 65.5703 56.3359C65.5286 56.0547 65.5078 55.7943 65.5078 55.5547ZM65.7578 51.875L65.7734 52.8906H64.3125C63.901 52.8906 63.5339 52.9245 63.2109 52.9922C62.888 53.0547 62.6172 53.151 62.3984 53.2812C62.1797 53.4115 62.013 53.5755 61.8984 53.7734C61.7839 53.9661 61.7266 54.1927 61.7266 54.4531C61.7266 54.7188 61.7865 54.9609 61.9062 55.1797C62.026 55.3984 62.2057 55.5729 62.4453 55.7031C62.6901 55.8281 62.9896 55.8906 63.3438 55.8906C63.7865 55.8906 64.1771 55.7969 64.5156 55.6094C64.8542 55.4219 65.1224 55.1927 65.3203 54.9219C65.5234 54.651 65.6328 54.388 65.6484 54.1328L66.2656 54.8281C66.2292 55.0469 66.1302 55.2891 65.9688 55.5547C65.8073 55.8203 65.5911 56.0755 65.3203 56.3203C65.0547 56.5599 64.737 56.7604 64.3672 56.9219C64.0026 57.0781 63.5911 57.1562 63.1328 57.1562C62.5599 57.1562 62.0573 57.0443 61.625 56.8203C61.1979 56.5964 60.8646 56.2969 60.625 55.9219C60.3906 55.5417 60.2734 55.1172 60.2734 54.6484C60.2734 54.1953 60.362 53.7969 60.5391 53.4531C60.7161 53.1042 60.9714 52.8151 61.3047 52.5859C61.638 52.3516 62.0391 52.1745 62.5078 52.0547C62.9766 51.9349 63.5 51.875 64.0781 51.875H65.7578ZM69.2188 45H70.6719V55.3594L70.5469 57H69.2188V45ZM76.3828 52.7031V52.8672C76.3828 53.4818 76.3099 54.0521 76.1641 54.5781C76.0182 55.099 75.8047 55.5521 75.5234 55.9375C75.2422 56.3229 74.8984 56.6224 74.4922 56.8359C74.0859 57.0495 73.6198 57.1562 73.0938 57.1562C72.5573 57.1562 72.0859 57.0651 71.6797 56.8828C71.2786 56.6953 70.9401 56.4271 70.6641 56.0781C70.388 55.7292 70.1667 55.3073 70 54.8125C69.8385 54.3177 69.7266 53.7604 69.6641 53.1406V52.4219C69.7266 51.7969 69.8385 51.237 70 50.7422C70.1667 50.2474 70.388 49.8255 70.6641 49.4766C70.9401 49.1224 71.2786 48.8542 71.6797 48.6719C72.0807 48.4844 72.5469 48.3906 73.0781 48.3906C73.6094 48.3906 74.0807 48.4948 74.4922 48.7031C74.9036 48.9062 75.2474 49.1979 75.5234 49.5781C75.8047 49.9583 76.0182 50.4141 76.1641 50.9453C76.3099 51.4714 76.3828 52.0573 76.3828 52.7031ZM74.9297 52.8672V52.7031C74.9297 52.2812 74.8906 51.8854 74.8125 51.5156C74.7344 51.1406 74.6094 50.8125 74.4375 50.5312C74.2656 50.2448 74.0391 50.0208 73.7578 49.8594C73.4766 49.6927 73.1302 49.6094 72.7188 49.6094C72.3542 49.6094 72.0365 49.6719 71.7656 49.7969C71.5 49.9219 71.2734 50.0911 71.0859 50.3047C70.8984 50.513 70.7448 50.7526 70.625 51.0234C70.5104 51.2891 70.4245 51.5651 70.3672 51.8516V53.7344C70.4505 54.099 70.5859 54.4505 70.7734 54.7891C70.9661 55.1224 71.2214 55.3958 71.5391 55.6094C71.862 55.8229 72.2604 55.9297 72.7344 55.9297C73.125 55.9297 73.4583 55.8516 73.7344 55.6953C74.0156 55.5339 74.2422 55.3125 74.4141 55.0312C74.5911 54.75 74.7214 54.4245 74.8047 54.0547C74.888 53.6849 74.9297 53.2891 74.9297 52.8672ZM79.7812 48.5469V57H78.3281V48.5469H79.7812ZM78.2188 46.3047C78.2188 46.0703 78.2891 45.8724 78.4297 45.7109C78.5755 45.5495 78.7891 45.4688 79.0703 45.4688C79.3464 45.4688 79.5573 45.5495 79.7031 45.7109C79.8542 45.8724 79.9297 46.0703 79.9297 46.3047C79.9297 46.5286 79.8542 46.7214 79.7031 46.8828C79.5573 47.0391 79.3464 47.1172 79.0703 47.1172C78.7891 47.1172 78.5755 47.0391 78.4297 46.8828C78.2891 46.7214 78.2188 46.5286 78.2188 46.3047ZM85.6406 48.5469V49.6562H81.0703V48.5469H85.6406ZM82.6172 46.4922H84.0625V54.9062C84.0625 55.1927 84.1068 55.4089 84.1953 55.5547C84.2839 55.7005 84.3984 55.7969 84.5391 55.8438C84.6797 55.8906 84.8307 55.9141 84.9922 55.9141C85.112 55.9141 85.237 55.9036 85.3672 55.8828C85.5026 55.8568 85.6042 55.8359 85.6719 55.8203L85.6797 57C85.5651 57.0365 85.4141 57.0703 85.2266 57.1016C85.0443 57.138 84.8229 57.1562 84.5625 57.1562C84.2083 57.1562 83.8828 57.0859 83.5859 56.9453C83.2891 56.8047 83.0521 56.5703 82.875 56.2422C82.7031 55.9089 82.6172 55.4609 82.6172 54.8984V46.4922ZM96.6328 55.3594V45H98.0859V57H96.7578L96.6328 55.3594ZM90.9453 52.8672V52.7031C90.9453 52.0573 91.0234 51.4714 91.1797 50.9453C91.3411 50.4141 91.5677 49.9583 91.8594 49.5781C92.1562 49.1979 92.5078 48.9062 92.9141 48.7031C93.3255 48.4948 93.7839 48.3906 94.2891 48.3906C94.8203 48.3906 95.2839 48.4844 95.6797 48.6719C96.0807 48.8542 96.4193 49.1224 96.6953 49.4766C96.9766 49.8255 97.1979 50.2474 97.3594 50.7422C97.5208 51.237 97.6328 51.7969 97.6953 52.4219V53.1406C97.638 53.7604 97.526 54.3177 97.3594 54.8125C97.1979 55.3073 96.9766 55.7292 96.6953 56.0781C96.4193 56.4271 96.0807 56.6953 95.6797 56.8828C95.2786 57.0651 94.8099 57.1562 94.2734 57.1562C93.7786 57.1562 93.3255 57.0495 92.9141 56.8359C92.5078 56.6224 92.1562 56.3229 91.8594 55.9375C91.5677 55.5521 91.3411 55.099 91.1797 54.5781C91.0234 54.0521 90.9453 53.4818 90.9453 52.8672ZM92.3984 52.7031V52.8672C92.3984 53.2891 92.4401 53.6849 92.5234 54.0547C92.612 54.4245 92.7474 54.75 92.9297 55.0312C93.112 55.3125 93.3438 55.5339 93.625 55.6953C93.9062 55.8516 94.2422 55.9297 94.6328 55.9297C95.112 55.9297 95.5052 55.8281 95.8125 55.625C96.125 55.4219 96.375 55.1536 96.5625 54.8203C96.75 54.487 96.8958 54.125 97 53.7344V51.8516C96.9375 51.5651 96.8464 51.2891 96.7266 51.0234C96.612 50.7526 96.4609 50.513 96.2734 50.3047C96.0911 50.0911 95.8646 49.9219 95.5938 49.7969C95.3281 49.6719 95.013 49.6094 94.6484 49.6094C94.2526 49.6094 93.9115 49.6927 93.625 49.8594C93.3438 50.0208 93.112 50.2448 92.9297 50.5312C92.7474 50.8125 92.612 51.1406 92.5234 51.5156C92.4401 51.8854 92.3984 52.2812 92.3984 52.7031ZM101.781 49.875V57H100.336V48.5469H101.742L101.781 49.875ZM104.422 48.5L104.414 49.8438C104.294 49.8177 104.18 49.8021 104.07 49.7969C103.966 49.7865 103.846 49.7812 103.711 49.7812C103.378 49.7812 103.083 49.8333 102.828 49.9375C102.573 50.0417 102.357 50.1875 102.18 50.375C102.003 50.5625 101.862 50.7865 101.758 51.0469C101.659 51.3021 101.594 51.5833 101.562 51.8906L101.156 52.125C101.156 51.6146 101.206 51.1354 101.305 50.6875C101.409 50.2396 101.568 49.8438 101.781 49.5C101.995 49.151 102.266 48.8802 102.594 48.6875C102.927 48.4896 103.323 48.3906 103.781 48.3906C103.885 48.3906 104.005 48.4036 104.141 48.4297C104.276 48.4505 104.37 48.474 104.422 48.5ZM107.328 48.5469V57H105.875V48.5469H107.328ZM105.766 46.3047C105.766 46.0703 105.836 45.8724 105.977 45.7109C106.122 45.5495 106.336 45.4688 106.617 45.4688C106.893 45.4688 107.104 45.5495 107.25 45.7109C107.401 45.8724 107.477 46.0703 107.477 46.3047C107.477 46.5286 107.401 46.7214 107.25 46.8828C107.104 47.0391 106.893 47.1172 106.617 47.1172C106.336 47.1172 106.122 47.0391 105.977 46.8828C105.836 46.7214 105.766 46.5286 105.766 46.3047ZM112.219 55.6953L114.531 48.5469H116.008L112.969 57H112L112.219 55.6953ZM110.289 48.5469L112.672 55.7344L112.836 57H111.867L108.805 48.5469H110.289ZM120.797 57.1562C120.208 57.1562 119.674 57.0573 119.195 56.8594C118.721 56.6562 118.312 56.3724 117.969 56.0078C117.63 55.6432 117.37 55.2109 117.188 54.7109C117.005 54.2109 116.914 53.6641 116.914 53.0703V52.7422C116.914 52.0547 117.016 51.4427 117.219 50.9062C117.422 50.3646 117.698 49.9062 118.047 49.5312C118.396 49.1562 118.792 48.8724 119.234 48.6797C119.677 48.487 120.135 48.3906 120.609 48.3906C121.214 48.3906 121.734 48.4948 122.172 48.7031C122.615 48.9115 122.977 49.2031 123.258 49.5781C123.539 49.9479 123.747 50.3854 123.883 50.8906C124.018 51.3906 124.086 51.9375 124.086 52.5312V53.1797H117.773V52H122.641V51.8906C122.62 51.5156 122.542 51.151 122.406 50.7969C122.276 50.4427 122.068 50.151 121.781 49.9219C121.495 49.6927 121.104 49.5781 120.609 49.5781C120.281 49.5781 119.979 49.6484 119.703 49.7891C119.427 49.9245 119.19 50.1276 118.992 50.3984C118.794 50.6693 118.641 51 118.531 51.3906C118.422 51.7812 118.367 52.2318 118.367 52.7422V53.0703C118.367 53.4714 118.422 53.849 118.531 54.2031C118.646 54.5521 118.81 54.8594 119.023 55.125C119.242 55.3906 119.505 55.599 119.812 55.75C120.125 55.901 120.479 55.9766 120.875 55.9766C121.385 55.9766 121.818 55.8724 122.172 55.6641C122.526 55.4557 122.836 55.1771 123.102 54.8281L123.977 55.5234C123.794 55.7995 123.562 56.0625 123.281 56.3125C123 56.5625 122.654 56.7656 122.242 56.9219C121.836 57.0781 121.354 57.1562 120.797 57.1562Z" fill="#2F2F2F"/>
<path d="M246.25 37V55.75C246.25 56.7446 246.645 57.6984 247.348 58.4016C248.052 59.1049 249.005 59.5 250 59.5H253.75M246.25 37H243.75M246.25 37H273.75M253.75 59.5H266.25M253.75 59.5L252.083 64.5M273.75 37H276.25M273.75 37V55.75C273.75 56.7446 273.355 57.6984 272.652 58.4016C271.948 59.1049 270.995 59.5 270 59.5H266.25M266.25 59.5L267.917 64.5M252.083 64.5H267.917M252.083 64.5L251.25 67M267.917 64.5L268.75 67M255 50.75V53.25M260 47V53.25M265 43.25V53.25" stroke="#407BFF" stroke-width="2" stroke-linecap="round" stroke-linejoin="round"/>
<path d="M292.992 55.2734L296.344 45.625H297.977L293.766 57H292.602L292.992 55.2734ZM289.859 45.625L293.18 55.2734L293.594 57H292.43L288.227 45.625H289.859ZM300.859 48.5469V57H299.406V48.5469H300.859ZM299.297 46.3047C299.297 46.0703 299.367 45.8724 299.508 45.7109C299.654 45.5495 299.867 45.4688 300.148 45.4688C300.424 45.4688 300.635 45.5495 300.781 45.7109C300.932 45.8724 301.008 46.0703 301.008 46.3047C301.008 46.5286 300.932 46.7214 300.781 46.8828C300.635 47.0391 300.424 47.1172 300.148 47.1172C299.867 47.1172 299.654 47.0391 299.508 46.8828C299.367 46.7214 299.297 46.5286 299.297 46.3047ZM306.688 57.1562C306.099 57.1562 305.565 57.0573 305.086 56.8594C304.612 56.6562 304.203 56.3724 303.859 56.0078C303.521 55.6432 303.26 55.2109 303.078 54.7109C302.896 54.2109 302.805 53.6641 302.805 53.0703V52.7422C302.805 52.0547 302.906 51.4427 303.109 50.9062C303.312 50.3646 303.589 49.9062 303.938 49.5312C304.286 49.1562 304.682 48.8724 305.125 48.6797C305.568 48.487 306.026 48.3906 306.5 48.3906C307.104 48.3906 307.625 48.4948 308.062 48.7031C308.505 48.9115 308.867 49.2031 309.148 49.5781C309.43 49.9479 309.638 50.3854 309.773 50.8906C309.909 51.3906 309.977 51.9375 309.977 52.5312V53.1797H303.664V52H308.531V51.8906C308.51 51.5156 308.432 51.151 308.297 50.7969C308.167 50.4427 307.958 50.151 307.672 49.9219C307.385 49.6927 306.995 49.5781 306.5 49.5781C306.172 49.5781 305.87 49.6484 305.594 49.7891C305.318 49.9245 305.081 50.1276 304.883 50.3984C304.685 50.6693 304.531 51 304.422 51.3906C304.312 51.7812 304.258 52.2318 304.258 52.7422V53.0703C304.258 53.4714 304.312 53.849 304.422 54.2031C304.536 54.5521 304.701 54.8594 304.914 55.125C305.133 55.3906 305.396 55.599 305.703 55.75C306.016 55.901 306.37 55.9766 306.766 55.9766C307.276 55.9766 307.708 55.8724 308.062 55.6641C308.417 55.4557 308.727 55.1771 308.992 54.8281L309.867 55.5234C309.685 55.7995 309.453 56.0625 309.172 56.3125C308.891 56.5625 308.544 56.7656 308.133 56.9219C307.727 57.0781 307.245 57.1562 306.688 57.1562ZM313.805 55.5L315.977 48.5469H316.93L316.742 49.9297L314.531 57H313.602L313.805 55.5ZM312.344 48.5469L314.195 55.5781L314.328 57H313.352L310.898 48.5469H312.344ZM319.008 55.5234L320.773 48.5469H322.211L319.758 57H318.789L319.008 55.5234ZM317.141 48.5469L319.266 55.3828L319.508 57H318.586L316.312 49.9141L316.125 48.5469H317.141ZM332.586 54.7578C332.586 54.5495 332.539 54.3568 332.445 54.1797C332.357 53.9974 332.172 53.8333 331.891 53.6875C331.615 53.5365 331.198 53.4062 330.641 53.2969C330.172 53.1979 329.747 53.0807 329.367 52.9453C328.992 52.8099 328.672 52.6458 328.406 52.4531C328.146 52.2604 327.945 52.0339 327.805 51.7734C327.664 51.513 327.594 51.2083 327.594 50.8594C327.594 50.526 327.667 50.2109 327.812 49.9141C327.964 49.6172 328.174 49.3542 328.445 49.125C328.721 48.8958 329.052 48.7161 329.438 48.5859C329.823 48.4557 330.253 48.3906 330.727 48.3906C331.404 48.3906 331.982 48.5104 332.461 48.75C332.94 48.9896 333.307 49.3099 333.562 49.7109C333.818 50.1068 333.945 50.5469 333.945 51.0312H332.5C332.5 50.7969 332.43 50.5703 332.289 50.3516C332.154 50.1276 331.953 49.9427 331.688 49.7969C331.427 49.651 331.107 49.5781 330.727 49.5781C330.326 49.5781 330 49.6406 329.75 49.7656C329.505 49.8854 329.326 50.0391 329.211 50.2266C329.102 50.4141 329.047 50.612 329.047 50.8203C329.047 50.9766 329.073 51.1172 329.125 51.2422C329.182 51.362 329.281 51.474 329.422 51.5781C329.562 51.6771 329.76 51.7708 330.016 51.8594C330.271 51.9479 330.596 52.0365 330.992 52.125C331.685 52.2812 332.255 52.4688 332.703 52.6875C333.151 52.9062 333.484 53.1745 333.703 53.4922C333.922 53.8099 334.031 54.1953 334.031 54.6484C334.031 55.0182 333.953 55.3568 333.797 55.6641C333.646 55.9714 333.424 56.237 333.133 56.4609C332.846 56.6797 332.503 56.8516 332.102 56.9766C331.706 57.0964 331.26 57.1562 330.766 57.1562C330.021 57.1562 329.391 57.0234 328.875 56.7578C328.359 56.4922 327.969 56.1484 327.703 55.7266C327.438 55.3047 327.305 54.8594 327.305 54.3906H328.758C328.779 54.7865 328.893 55.1016 329.102 55.3359C329.31 55.5651 329.565 55.7292 329.867 55.8281C330.169 55.9219 330.469 55.9688 330.766 55.9688C331.161 55.9688 331.492 55.9167 331.758 55.8125C332.029 55.7083 332.234 55.5651 332.375 55.3828C332.516 55.2005 332.586 54.9922 332.586 54.7578ZM339.469 48.5469V49.6562H334.898V48.5469H339.469ZM336.445 46.4922H337.891V54.9062C337.891 55.1927 337.935 55.4089 338.023 55.5547C338.112 55.7005 338.227 55.7969 338.367 55.8438C338.508 55.8906 338.659 55.9141 338.82 55.9141C338.94 55.9141 339.065 55.9036 339.195 55.8828C339.331 55.8568 339.432 55.8359 339.5 55.8203L339.508 57C339.393 57.0365 339.242 57.0703 339.055 57.1016C338.872 57.138 338.651 57.1562 338.391 57.1562C338.036 57.1562 337.711 57.0859 337.414 56.9453C337.117 56.8047 336.88 56.5703 336.703 56.2422C336.531 55.9089 336.445 55.4609 336.445 54.8984V46.4922ZM346.148 55.5547V51.2031C346.148 50.8698 346.081 50.5807 345.945 50.3359C345.815 50.0859 345.617 49.8932 345.352 49.7578C345.086 49.6224 344.758 49.5547 344.367 49.5547C344.003 49.5547 343.682 49.6172 343.406 49.7422C343.135 49.8672 342.922 50.0312 342.766 50.2344C342.615 50.4375 342.539 50.6562 342.539 50.8906H341.094C341.094 50.5885 341.172 50.2891 341.328 49.9922C341.484 49.6953 341.708 49.4271 342 49.1875C342.297 48.9427 342.651 48.75 343.062 48.6094C343.479 48.4635 343.943 48.3906 344.453 48.3906C345.068 48.3906 345.609 48.4948 346.078 48.7031C346.552 48.9115 346.922 49.2266 347.188 49.6484C347.458 50.0651 347.594 50.5885 347.594 51.2188V55.1562C347.594 55.4375 347.617 55.737 347.664 56.0547C347.716 56.3724 347.792 56.6458 347.891 56.875V57H346.383C346.31 56.8333 346.253 56.612 346.211 56.3359C346.169 56.0547 346.148 55.7943 346.148 55.5547ZM346.398 51.875L346.414 52.8906H344.953C344.542 52.8906 344.174 52.9245 343.852 52.9922C343.529 53.0547 343.258 53.151 343.039 53.2812C342.82 53.4115 342.654 53.5755 342.539 53.7734C342.424 53.9661 342.367 54.1927 342.367 54.4531C342.367 54.7188 342.427 54.9609 342.547 55.1797C342.667 55.3984 342.846 55.5729 343.086 55.7031C343.331 55.8281 343.63 55.8906 343.984 55.8906C344.427 55.8906 344.818 55.7969 345.156 55.6094C345.495 55.4219 345.763 55.1927 345.961 54.9219C346.164 54.651 346.273 54.388 346.289 54.1328L346.906 54.8281C346.87 55.0469 346.771 55.2891 346.609 55.5547C346.448 55.8203 346.232 56.0755 345.961 56.3203C345.695 56.5599 345.378 56.7604 345.008 56.9219C344.643 57.0781 344.232 57.1562 343.773 57.1562C343.201 57.1562 342.698 57.0443 342.266 56.8203C341.839 56.5964 341.505 56.2969 341.266 55.9219C341.031 55.5417 340.914 55.1172 340.914 54.6484C340.914 54.1953 341.003 53.7969 341.18 53.4531C341.357 53.1042 341.612 52.8151 341.945 52.5859C342.279 52.3516 342.68 52.1745 343.148 52.0547C343.617 51.9349 344.141 51.875 344.719 51.875H346.398ZM353.406 48.5469V49.6562H348.836V48.5469H353.406ZM350.383 46.4922H351.828V54.9062C351.828 55.1927 351.872 55.4089 351.961 55.5547C352.049 55.7005 352.164 55.7969 352.305 55.8438C352.445 55.8906 352.596 55.9141 352.758 55.9141C352.878 55.9141 353.003 55.9036 353.133 55.8828C353.268 55.8568 353.37 55.8359 353.438 55.8203L353.445 57C353.331 57.0365 353.18 57.0703 352.992 57.1016C352.81 57.138 352.589 57.1562 352.328 57.1562C351.974 57.1562 351.648 57.0859 351.352 56.9453C351.055 56.8047 350.818 56.5703 350.641 56.2422C350.469 55.9089 350.383 55.4609 350.383 54.8984V46.4922ZM356.672 48.5469V57H355.219V48.5469H356.672ZM355.109 46.3047C355.109 46.0703 355.18 45.8724 355.32 45.7109C355.466 45.5495 355.68 45.4688 355.961 45.4688C356.237 45.4688 356.448 45.5495 356.594 45.7109C356.745 45.8724 356.82 46.0703 356.82 46.3047C356.82 46.5286 356.745 46.7214 356.594 46.8828C356.448 47.0391 356.237 47.1172 355.961 47.1172C355.68 47.1172 355.466 47.0391 355.32 46.8828C355.18 46.7214 355.109 46.5286 355.109 46.3047ZM363.914 54.7578C363.914 54.5495 363.867 54.3568 363.773 54.1797C363.685 53.9974 363.5 53.8333 363.219 53.6875C362.943 53.5365 362.526 53.4062 361.969 53.2969C361.5 53.1979 361.076 53.0807 360.695 52.9453C360.32 52.8099 360 52.6458 359.734 52.4531C359.474 52.2604 359.273 52.0339 359.133 51.7734C358.992 51.513 358.922 51.2083 358.922 50.8594C358.922 50.526 358.995 50.2109 359.141 49.9141C359.292 49.6172 359.503 49.3542 359.773 49.125C360.049 48.8958 360.38 48.7161 360.766 48.5859C361.151 48.4557 361.581 48.3906 362.055 48.3906C362.732 48.3906 363.31 48.5104 363.789 48.75C364.268 48.9896 364.635 49.3099 364.891 49.7109C365.146 50.1068 365.273 50.5469 365.273 51.0312H363.828C363.828 50.7969 363.758 50.5703 363.617 50.3516C363.482 50.1276 363.281 49.9427 363.016 49.7969C362.755 49.651 362.435 49.5781 362.055 49.5781C361.654 49.5781 361.328 49.6406 361.078 49.7656C360.833 49.8854 360.654 50.0391 360.539 50.2266C360.43 50.4141 360.375 50.612 360.375 50.8203C360.375 50.9766 360.401 51.1172 360.453 51.2422C360.51 51.362 360.609 51.474 360.75 51.5781C360.891 51.6771 361.089 51.7708 361.344 51.8594C361.599 51.9479 361.924 52.0365 362.32 52.125C363.013 52.2812 363.583 52.4688 364.031 52.6875C364.479 52.9062 364.812 53.1745 365.031 53.4922C365.25 53.8099 365.359 54.1953 365.359 54.6484C365.359 55.0182 365.281 55.3568 365.125 55.6641C364.974 55.9714 364.753 56.237 364.461 56.4609C364.174 56.6797 363.831 56.8516 363.43 56.9766C363.034 57.0964 362.589 57.1562 362.094 57.1562C361.349 57.1562 360.719 57.0234 360.203 56.7578C359.688 56.4922 359.297 56.1484 359.031 55.7266C358.766 55.3047 358.633 54.8594 358.633 54.3906H360.086C360.107 54.7865 360.221 55.1016 360.43 55.3359C360.638 55.5651 360.893 55.7292 361.195 55.8281C361.497 55.9219 361.797 55.9688 362.094 55.9688C362.49 55.9688 362.82 55.9167 363.086 55.8125C363.357 55.7083 363.562 55.5651 363.703 55.3828C363.844 55.2005 363.914 54.9922 363.914 54.7578ZM370.797 48.5469V49.6562H366.227V48.5469H370.797ZM367.773 46.4922H369.219V54.9062C369.219 55.1927 369.263 55.4089 369.352 55.5547C369.44 55.7005 369.555 55.7969 369.695 55.8438C369.836 55.8906 369.987 55.9141 370.148 55.9141C370.268 55.9141 370.393 55.9036 370.523 55.8828C370.659 55.8568 370.76 55.8359 370.828 55.8203L370.836 57C370.721 57.0365 370.57 57.0703 370.383 57.1016C370.201 57.138 369.979 57.1562 369.719 57.1562C369.365 57.1562 369.039 57.0859 368.742 56.9453C368.445 56.8047 368.208 56.5703 368.031 56.2422C367.859 55.9089 367.773 55.4609 367.773 54.8984V46.4922ZM374.062 48.5469V57H372.609V48.5469H374.062ZM372.5 46.3047C372.5 46.0703 372.57 45.8724 372.711 45.7109C372.857 45.5495 373.07 45.4688 373.352 45.4688C373.628 45.4688 373.839 45.5495 373.984 45.7109C374.135 45.8724 374.211 46.0703 374.211 46.3047C374.211 46.5286 374.135 46.7214 373.984 46.8828C373.839 47.0391 373.628 47.1172 373.352 47.1172C373.07 47.1172 372.857 47.0391 372.711 46.8828C372.57 46.7214 372.5 46.5286 372.5 46.3047ZM379.766 55.9688C380.109 55.9688 380.427 55.8984 380.719 55.7578C381.01 55.6172 381.25 55.4245 381.438 55.1797C381.625 54.9297 381.732 54.6458 381.758 54.3281H383.133C383.107 54.8281 382.938 55.2943 382.625 55.7266C382.318 56.1536 381.914 56.5 381.414 56.7656C380.914 57.026 380.365 57.1562 379.766 57.1562C379.13 57.1562 378.576 57.0443 378.102 56.8203C377.633 56.5964 377.242 56.2891 376.93 55.8984C376.622 55.5078 376.391 55.0599 376.234 54.5547C376.083 54.0443 376.008 53.5052 376.008 52.9375V52.6094C376.008 52.0417 376.083 51.5052 376.234 51C376.391 50.4896 376.622 50.0391 376.93 49.6484C377.242 49.2578 377.633 48.9505 378.102 48.7266C378.576 48.5026 379.13 48.3906 379.766 48.3906C380.427 48.3906 381.005 48.526 381.5 48.7969C381.995 49.0625 382.383 49.4271 382.664 49.8906C382.951 50.349 383.107 50.8698 383.133 51.4531H381.758C381.732 51.1042 381.633 50.7891 381.461 50.5078C381.294 50.2266 381.065 50.0026 380.773 49.8359C380.487 49.6641 380.151 49.5781 379.766 49.5781C379.323 49.5781 378.951 49.6667 378.648 49.8438C378.352 50.0156 378.115 50.25 377.938 50.5469C377.766 50.8385 377.641 51.1641 377.562 51.5234C377.49 51.8776 377.453 52.2396 377.453 52.6094V52.9375C377.453 53.3073 377.49 53.6719 377.562 54.0312C377.635 54.3906 377.758 54.7161 377.93 55.0078C378.107 55.2995 378.344 55.5339 378.641 55.7109C378.943 55.8828 379.318 55.9688 379.766 55.9688ZM389.68 54.7578C389.68 54.5495 389.633 54.3568 389.539 54.1797C389.451 53.9974 389.266 53.8333 388.984 53.6875C388.708 53.5365 388.292 53.4062 387.734 53.2969C387.266 53.1979 386.841 53.0807 386.461 52.9453C386.086 52.8099 385.766 52.6458 385.5 52.4531C385.24 52.2604 385.039 52.0339 384.898 51.7734C384.758 51.513 384.688 51.2083 384.688 50.8594C384.688 50.526 384.76 50.2109 384.906 49.9141C385.057 49.6172 385.268 49.3542 385.539 49.125C385.815 48.8958 386.146 48.7161 386.531 48.5859C386.917 48.4557 387.346 48.3906 387.82 48.3906C388.497 48.3906 389.076 48.5104 389.555 48.75C390.034 48.9896 390.401 49.3099 390.656 49.7109C390.911 50.1068 391.039 50.5469 391.039 51.0312H389.594C389.594 50.7969 389.523 50.5703 389.383 50.3516C389.247 50.1276 389.047 49.9427 388.781 49.7969C388.521 49.651 388.201 49.5781 387.82 49.5781C387.419 49.5781 387.094 49.6406 386.844 49.7656C386.599 49.8854 386.419 50.0391 386.305 50.2266C386.195 50.4141 386.141 50.612 386.141 50.8203C386.141 50.9766 386.167 51.1172 386.219 51.2422C386.276 51.362 386.375 51.474 386.516 51.5781C386.656 51.6771 386.854 51.7708 387.109 51.8594C387.365 51.9479 387.69 52.0365 388.086 52.125C388.779 52.2812 389.349 52.4688 389.797 52.6875C390.245 52.9062 390.578 53.1745 390.797 53.4922C391.016 53.8099 391.125 54.1953 391.125 54.6484C391.125 55.0182 391.047 55.3568 390.891 55.6641C390.74 55.9714 390.518 56.237 390.227 56.4609C389.94 56.6797 389.596 56.8516 389.195 56.9766C388.799 57.0964 388.354 57.1562 387.859 57.1562C387.115 57.1562 386.484 57.0234 385.969 56.7578C385.453 56.4922 385.062 56.1484 384.797 55.7266C384.531 55.3047 384.398 54.8594 384.398 54.3906H385.852C385.872 54.7865 385.987 55.1016 386.195 55.3359C386.404 55.5651 386.659 55.7292 386.961 55.8281C387.263 55.9219 387.562 55.9688 387.859 55.9688C388.255 55.9688 388.586 55.9167 388.852 55.8125C389.122 55.7083 389.328 55.5651 389.469 55.3828C389.609 55.2005 389.68 54.9922 389.68 54.7578Z" fill="#2F2F2F"/>
<path d="M499.033 57.2833L508.75 67C509.583 67.8067 510.7 68.2535 511.86 68.2441C513.02 68.2347 514.13 67.7698 514.95 66.9497C515.77 66.1295 516.235 65.0199 516.244 63.8601C516.254 62.7003 515.807 61.5833 515 60.75L505.205 50.955M499.033 57.2833L503.193 52.2333C503.722 51.5933 504.427 51.19 505.207 50.9567C506.123 50.6833 507.145 50.6433 508.112 50.7233C509.415 50.8352 510.724 50.6044 511.911 50.0539C513.097 49.5033 514.119 48.6521 514.874 47.5847C515.63 46.5173 516.094 45.2708 516.219 43.969C516.344 42.6672 516.127 41.3552 515.588 40.1633L510.128 45.625C509.215 45.4138 508.379 44.9503 507.716 44.2873C507.053 43.6243 506.59 42.7885 506.378 41.875L511.838 36.415C510.646 35.8766 509.334 35.6592 508.033 35.7845C506.731 35.9097 505.484 36.3732 504.417 37.1289C503.35 37.8846 502.498 38.9064 501.948 40.0927C501.397 41.279 501.166 42.5886 501.278 43.8917C501.43 45.685 501.16 47.665 499.772 48.8083L499.602 48.95M499.033 57.2833L491.275 66.705C490.899 67.1633 490.431 67.5379 489.902 67.8045C489.372 68.0711 488.793 68.2239 488.201 68.2531C487.608 68.2822 487.017 68.1871 486.464 67.9737C485.91 67.7604 485.408 67.4336 484.989 67.0144C484.57 66.5952 484.243 66.0928 484.03 65.5397C483.816 64.9866 483.721 64.3949 483.75 63.8028C483.779 63.2107 483.932 62.6312 484.199 62.1017C484.465 61.5722 484.84 61.1043 485.298 60.7283L496.693 51.345L489.848 44.5H487.5L483.75 38.25L486.25 35.75L492.5 39.5V41.8483L499.6 48.9483L496.692 51.3433M510.625 62.625L506.25 58.25M488.112 63.875H488.125V63.8883H488.112V63.875Z" stroke="#407BFF" stroke-width="2" stroke-linecap="round" stroke-linejoin="round"/>
<path d="M533.516 52.5391H530.477V51.3125H533.516C534.104 51.3125 534.581 51.2188 534.945 51.0312C535.31 50.8438 535.576 50.5833 535.742 50.25C535.914 49.9167 536 49.5365 536 49.1094C536 48.7188 535.914 48.3516 535.742 48.0078C535.576 47.6641 535.31 47.388 534.945 47.1797C534.581 46.9661 534.104 46.8594 533.516 46.8594H530.828V57H529.32V45.625H533.516C534.375 45.625 535.102 45.7734 535.695 46.0703C536.289 46.3672 536.74 46.7786 537.047 47.3047C537.354 47.8255 537.508 48.4219 537.508 49.0938C537.508 49.8229 537.354 50.4453 537.047 50.9609C536.74 51.4766 536.289 51.8698 535.695 52.1406C535.102 52.4062 534.375 52.5391 533.516 52.5391ZM542.594 57.1562C542.005 57.1562 541.471 57.0573 540.992 56.8594C540.518 56.6562 540.109 56.3724 539.766 56.0078C539.427 55.6432 539.167 55.2109 538.984 54.7109C538.802 54.2109 538.711 53.6641 538.711 53.0703V52.7422C538.711 52.0547 538.812 51.4427 539.016 50.9062C539.219 50.3646 539.495 49.9062 539.844 49.5312C540.193 49.1562 540.589 48.8724 541.031 48.6797C541.474 48.487 541.932 48.3906 542.406 48.3906C543.01 48.3906 543.531 48.4948 543.969 48.7031C544.411 48.9115 544.773 49.2031 545.055 49.5781C545.336 49.9479 545.544 50.3854 545.68 50.8906C545.815 51.3906 545.883 51.9375 545.883 52.5312V53.1797H539.57V52H544.438V51.8906C544.417 51.5156 544.339 51.151 544.203 50.7969C544.073 50.4427 543.865 50.151 543.578 49.9219C543.292 49.6927 542.901 49.5781 542.406 49.5781C542.078 49.5781 541.776 49.6484 541.5 49.7891C541.224 49.9245 540.987 50.1276 540.789 50.3984C540.591 50.6693 540.438 51 540.328 51.3906C540.219 51.7812 540.164 52.2318 540.164 52.7422V53.0703C540.164 53.4714 540.219 53.849 540.328 54.2031C540.443 54.5521 540.607 54.8594 540.82 55.125C541.039 55.3906 541.302 55.599 541.609 55.75C541.922 55.901 542.276 55.9766 542.672 55.9766C543.182 55.9766 543.615 55.8724 543.969 55.6641C544.323 55.4557 544.633 55.1771 544.898 54.8281L545.773 55.5234C545.591 55.7995 545.359 56.0625 545.078 56.3125C544.797 56.5625 544.451 56.7656 544.039 56.9219C543.633 57.0781 543.151 57.1562 542.594 57.1562ZM549.016 49.875V57H547.57V48.5469H548.977L549.016 49.875ZM551.656 48.5L551.648 49.8438C551.529 49.8177 551.414 49.8021 551.305 49.7969C551.201 49.7865 551.081 49.7812 550.945 49.7812C550.612 49.7812 550.318 49.8333 550.062 49.9375C549.807 50.0417 549.591 50.1875 549.414 50.375C549.237 50.5625 549.096 50.7865 548.992 51.0469C548.893 51.3021 548.828 51.5833 548.797 51.8906L548.391 52.125C548.391 51.6146 548.44 51.1354 548.539 50.6875C548.643 50.2396 548.802 49.8438 549.016 49.5C549.229 49.151 549.5 48.8802 549.828 48.6875C550.161 48.4896 550.557 48.3906 551.016 48.3906C551.12 48.3906 551.24 48.4036 551.375 48.4297C551.51 48.4505 551.604 48.474 551.656 48.5ZM557.914 54.7578C557.914 54.5495 557.867 54.3568 557.773 54.1797C557.685 53.9974 557.5 53.8333 557.219 53.6875C556.943 53.5365 556.526 53.4062 555.969 53.2969C555.5 53.1979 555.076 53.0807 554.695 52.9453C554.32 52.8099 554 52.6458 553.734 52.4531C553.474 52.2604 553.273 52.0339 553.133 51.7734C552.992 51.513 552.922 51.2083 552.922 50.8594C552.922 50.526 552.995 50.2109 553.141 49.9141C553.292 49.6172 553.503 49.3542 553.773 49.125C554.049 48.8958 554.38 48.7161 554.766 48.5859C555.151 48.4557 555.581 48.3906 556.055 48.3906C556.732 48.3906 557.31 48.5104 557.789 48.75C558.268 48.9896 558.635 49.3099 558.891 49.7109C559.146 50.1068 559.273 50.5469 559.273 51.0312H557.828C557.828 50.7969 557.758 50.5703 557.617 50.3516C557.482 50.1276 557.281 49.9427 557.016 49.7969C556.755 49.651 556.435 49.5781 556.055 49.5781C555.654 49.5781 555.328 49.6406 555.078 49.7656C554.833 49.8854 554.654 50.0391 554.539 50.2266C554.43 50.4141 554.375 50.612 554.375 50.8203C554.375 50.9766 554.401 51.1172 554.453 51.2422C554.51 51.362 554.609 51.474 554.75 51.5781C554.891 51.6771 555.089 51.7708 555.344 51.8594C555.599 51.9479 555.924 52.0365 556.32 52.125C557.013 52.2812 557.583 52.4688 558.031 52.6875C558.479 52.9062 558.812 53.1745 559.031 53.4922C559.25 53.8099 559.359 54.1953 559.359 54.6484C559.359 55.0182 559.281 55.3568 559.125 55.6641C558.974 55.9714 558.753 56.237 558.461 56.4609C558.174 56.6797 557.831 56.8516 557.43 56.9766C557.034 57.0964 556.589 57.1562 556.094 57.1562C555.349 57.1562 554.719 57.0234 554.203 56.7578C553.688 56.4922 553.297 56.1484 553.031 55.7266C552.766 55.3047 552.633 54.8594 552.633 54.3906H554.086C554.107 54.7865 554.221 55.1016 554.43 55.3359C554.638 55.5651 554.893 55.7292 555.195 55.8281C555.497 55.9219 555.797 55.9688 556.094 55.9688C556.49 55.9688 556.82 55.9167 557.086 55.8125C557.357 55.7083 557.562 55.5651 557.703 55.3828C557.844 55.2005 557.914 54.9922 557.914 54.7578ZM560.875 52.8672V52.6875C560.875 52.0781 560.964 51.513 561.141 50.9922C561.318 50.4661 561.573 50.0104 561.906 49.625C562.24 49.2344 562.643 48.9323 563.117 48.7188C563.591 48.5 564.122 48.3906 564.711 48.3906C565.305 48.3906 565.839 48.5 566.312 48.7188C566.792 48.9323 567.198 49.2344 567.531 49.625C567.87 50.0104 568.128 50.4661 568.305 50.9922C568.482 51.513 568.57 52.0781 568.57 52.6875V52.8672C568.57 53.4766 568.482 54.0417 568.305 54.5625C568.128 55.0833 567.87 55.5391 567.531 55.9297C567.198 56.3151 566.794 56.6172 566.32 56.8359C565.852 57.0495 565.32 57.1562 564.727 57.1562C564.133 57.1562 563.599 57.0495 563.125 56.8359C562.651 56.6172 562.245 56.3151 561.906 55.9297C561.573 55.5391 561.318 55.0833 561.141 54.5625C560.964 54.0417 560.875 53.4766 560.875 52.8672ZM562.32 52.6875V52.8672C562.32 53.2891 562.37 53.6875 562.469 54.0625C562.568 54.4323 562.716 54.7604 562.914 55.0469C563.117 55.3333 563.37 55.5599 563.672 55.7266C563.974 55.888 564.326 55.9688 564.727 55.9688C565.122 55.9688 565.469 55.888 565.766 55.7266C566.068 55.5599 566.318 55.3333 566.516 55.0469C566.714 54.7604 566.862 54.4323 566.961 54.0625C567.065 53.6875 567.117 53.2891 567.117 52.8672V52.6875C567.117 52.2708 567.065 51.8776 566.961 51.5078C566.862 51.1328 566.711 50.8021 566.508 50.5156C566.31 50.224 566.06 49.9948 565.758 49.8281C565.461 49.6615 565.112 49.5781 564.711 49.5781C564.315 49.5781 563.966 49.6615 563.664 49.8281C563.367 49.9948 563.117 50.224 562.914 50.5156C562.716 50.8021 562.568 51.1328 562.469 51.5078C562.37 51.8776 562.32 52.2708 562.32 52.6875ZM571.828 50.3516V57H570.383V48.5469H571.75L571.828 50.3516ZM571.484 52.4531L570.883 52.4297C570.888 51.8516 570.974 51.3177 571.141 50.8281C571.307 50.3333 571.542 49.9036 571.844 49.5391C572.146 49.1745 572.505 48.8932 572.922 48.6953C573.344 48.4922 573.81 48.3906 574.32 48.3906C574.737 48.3906 575.112 48.4479 575.445 48.5625C575.779 48.6719 576.062 48.849 576.297 49.0938C576.536 49.3385 576.719 49.6562 576.844 50.0469C576.969 50.4323 577.031 50.9036 577.031 51.4609V57H575.578V51.4453C575.578 51.0026 575.513 50.6484 575.383 50.3828C575.253 50.112 575.062 49.9167 574.812 49.7969C574.562 49.6719 574.255 49.6094 573.891 49.6094C573.531 49.6094 573.203 49.6849 572.906 49.8359C572.615 49.987 572.362 50.1953 572.148 50.4609C571.94 50.7266 571.776 51.0312 571.656 51.375C571.542 51.7135 571.484 52.0729 571.484 52.4531ZM584.211 55.5547V51.2031C584.211 50.8698 584.143 50.5807 584.008 50.3359C583.878 50.0859 583.68 49.8932 583.414 49.7578C583.148 49.6224 582.82 49.5547 582.43 49.5547C582.065 49.5547 581.745 49.6172 581.469 49.7422C581.198 49.8672 580.984 50.0312 580.828 50.2344C580.677 50.4375 580.602 50.6562 580.602 50.8906H579.156C579.156 50.5885 579.234 50.2891 579.391 49.9922C579.547 49.6953 579.771 49.4271 580.062 49.1875C580.359 48.9427 580.714 48.75 581.125 48.6094C581.542 48.4635 582.005 48.3906 582.516 48.3906C583.13 48.3906 583.672 48.4948 584.141 48.7031C584.615 48.9115 584.984 49.2266 585.25 49.6484C585.521 50.0651 585.656 50.5885 585.656 51.2188V55.1562C585.656 55.4375 585.68 55.737 585.727 56.0547C585.779 56.3724 585.854 56.6458 585.953 56.875V57H584.445C584.372 56.8333 584.315 56.612 584.273 56.3359C584.232 56.0547 584.211 55.7943 584.211 55.5547ZM584.461 51.875L584.477 52.8906H583.016C582.604 52.8906 582.237 52.9245 581.914 52.9922C581.591 53.0547 581.32 53.151 581.102 53.2812C580.883 53.4115 580.716 53.5755 580.602 53.7734C580.487 53.9661 580.43 54.1927 580.43 54.4531C580.43 54.7188 580.49 54.9609 580.609 55.1797C580.729 55.3984 580.909 55.5729 581.148 55.7031C581.393 55.8281 581.693 55.8906 582.047 55.8906C582.49 55.8906 582.88 55.7969 583.219 55.6094C583.557 55.4219 583.826 55.1927 584.023 54.9219C584.227 54.651 584.336 54.388 584.352 54.1328L584.969 54.8281C584.932 55.0469 584.833 55.2891 584.672 55.5547C584.51 55.8203 584.294 56.0755 584.023 56.3203C583.758 56.5599 583.44 56.7604 583.07 56.9219C582.706 57.0781 582.294 57.1562 581.836 57.1562C581.263 57.1562 580.76 57.0443 580.328 56.8203C579.901 56.5964 579.568 56.2969 579.328 55.9219C579.094 55.5417 578.977 55.1172 578.977 54.6484C578.977 54.1953 579.065 53.7969 579.242 53.4531C579.419 53.1042 579.674 52.8151 580.008 52.5859C580.341 52.3516 580.742 52.1745 581.211 52.0547C581.68 51.9349 582.203 51.875 582.781 51.875H584.461ZM589.5 45V57H588.047V45H589.5ZM597.234 49.875V57H595.789V48.5469H597.195L597.234 49.875ZM599.875 48.5L599.867 49.8438C599.747 49.8177 599.633 49.8021 599.523 49.7969C599.419 49.7865 599.299 49.7812 599.164 49.7812C598.831 49.7812 598.536 49.8333 598.281 49.9375C598.026 50.0417 597.81 50.1875 597.633 50.375C597.456 50.5625 597.315 50.7865 597.211 51.0469C597.112 51.3021 597.047 51.5833 597.016 51.8906L596.609 52.125C596.609 51.6146 596.659 51.1354 596.758 50.6875C596.862 50.2396 597.021 49.8438 597.234 49.5C597.448 49.151 597.719 48.8802 598.047 48.6875C598.38 48.4896 598.776 48.3906 599.234 48.3906C599.339 48.3906 599.458 48.4036 599.594 48.4297C599.729 48.4505 599.823 48.474 599.875 48.5ZM605.883 55.5547V51.2031C605.883 50.8698 605.815 50.5807 605.68 50.3359C605.549 50.0859 605.352 49.8932 605.086 49.7578C604.82 49.6224 604.492 49.5547 604.102 49.5547C603.737 49.5547 603.417 49.6172 603.141 49.7422C602.87 49.8672 602.656 50.0312 602.5 50.2344C602.349 50.4375 602.273 50.6562 602.273 50.8906H600.828C600.828 50.5885 600.906 50.2891 601.062 49.9922C601.219 49.6953 601.443 49.4271 601.734 49.1875C602.031 48.9427 602.385 48.75 602.797 48.6094C603.214 48.4635 603.677 48.3906 604.188 48.3906C604.802 48.3906 605.344 48.4948 605.812 48.7031C606.286 48.9115 606.656 49.2266 606.922 49.6484C607.193 50.0651 607.328 50.5885 607.328 51.2188V55.1562C607.328 55.4375 607.352 55.737 607.398 56.0547C607.451 56.3724 607.526 56.6458 607.625 56.875V57H606.117C606.044 56.8333 605.987 56.612 605.945 56.3359C605.904 56.0547 605.883 55.7943 605.883 55.5547ZM606.133 51.875L606.148 52.8906H604.688C604.276 52.8906 603.909 52.9245 603.586 52.9922C603.263 53.0547 602.992 53.151 602.773 53.2812C602.555 53.4115 602.388 53.5755 602.273 53.7734C602.159 53.9661 602.102 54.1927 602.102 54.4531C602.102 54.7188 602.161 54.9609 602.281 55.1797C602.401 55.3984 602.581 55.5729 602.82 55.7031C603.065 55.8281 603.365 55.8906 603.719 55.8906C604.161 55.8906 604.552 55.7969 604.891 55.6094C605.229 55.4219 605.497 55.1927 605.695 54.9219C605.898 54.651 606.008 54.388 606.023 54.1328L606.641 54.8281C606.604 55.0469 606.505 55.2891 606.344 55.5547C606.182 55.8203 605.966 56.0755 605.695 56.3203C605.43 56.5599 605.112 56.7604 604.742 56.9219C604.378 57.0781 603.966 57.1562 603.508 57.1562C602.935 57.1562 602.432 57.0443 602 56.8203C601.573 56.5964 601.24 56.2969 601 55.9219C600.766 55.5417 600.648 55.1172 600.648 54.6484C600.648 54.1953 600.737 53.7969 600.914 53.4531C601.091 53.1042 601.346 52.8151 601.68 52.5859C602.013 52.3516 602.414 52.1745 602.883 52.0547C603.352 51.9349 603.875 51.875 604.453 51.875H606.133ZM613.141 48.5469V49.6562H608.57V48.5469H613.141ZM610.117 46.4922H611.562V54.9062C611.562 55.1927 611.607 55.4089 611.695 55.5547C611.784 55.7005 611.898 55.7969 612.039 55.8438C612.18 55.8906 612.331 55.9141 612.492 55.9141C612.612 55.9141 612.737 55.9036 612.867 55.8828C613.003 55.8568 613.104 55.8359 613.172 55.8203L613.18 57C613.065 57.0365 612.914 57.0703 612.727 57.1016C612.544 57.138 612.323 57.1562 612.062 57.1562C611.708 57.1562 611.383 57.0859 611.086 56.9453C610.789 56.8047 610.552 56.5703 610.375 56.2422C610.203 55.9089 610.117 55.4609 610.117 54.8984V46.4922ZM618.344 57.1562C617.755 57.1562 617.221 57.0573 616.742 56.8594C616.268 56.6562 615.859 56.3724 615.516 56.0078C615.177 55.6432 614.917 55.2109 614.734 54.7109C614.552 54.2109 614.461 53.6641 614.461 53.0703V52.7422C614.461 52.0547 614.562 51.4427 614.766 50.9062C614.969 50.3646 615.245 49.9062 615.594 49.5312C615.943 49.1562 616.339 48.8724 616.781 48.6797C617.224 48.487 617.682 48.3906 618.156 48.3906C618.76 48.3906 619.281 48.4948 619.719 48.7031C620.161 48.9115 620.523 49.2031 620.805 49.5781C621.086 49.9479 621.294 50.3854 621.43 50.8906C621.565 51.3906 621.633 51.9375 621.633 52.5312V53.1797H615.32V52H620.188V51.8906C620.167 51.5156 620.089 51.151 619.953 50.7969C619.823 50.4427 619.615 50.151 619.328 49.9219C619.042 49.6927 618.651 49.5781 618.156 49.5781C617.828 49.5781 617.526 49.6484 617.25 49.7891C616.974 49.9245 616.737 50.1276 616.539 50.3984C616.341 50.6693 616.188 51 616.078 51.3906C615.969 51.7812 615.914 52.2318 615.914 52.7422V53.0703C615.914 53.4714 615.969 53.849 616.078 54.2031C616.193 54.5521 616.357 54.8594 616.57 55.125C616.789 55.3906 617.052 55.599 617.359 55.75C617.672 55.901 618.026 55.9766 618.422 55.9766C618.932 55.9766 619.365 55.8724 619.719 55.6641C620.073 55.4557 620.383 55.1771 620.648 54.8281L621.523 55.5234C621.341 55.7995 621.109 56.0625 620.828 56.3125C620.547 56.5625 620.201 56.7656 619.789 56.9219C619.383 57.0781 618.901 57.1562 618.344 57.1562ZM632.211 54.7578C632.211 54.5495 632.164 54.3568 632.07 54.1797C631.982 53.9974 631.797 53.8333 631.516 53.6875C631.24 53.5365 630.823 53.4062 630.266 53.2969C629.797 53.1979 629.372 53.0807 628.992 52.9453C628.617 52.8099 628.297 52.6458 628.031 52.4531C627.771 52.2604 627.57 52.0339 627.43 51.7734C627.289 51.513 627.219 51.2083 627.219 50.8594C627.219 50.526 627.292 50.2109 627.438 49.9141C627.589 49.6172 627.799 49.3542 628.07 49.125C628.346 48.8958 628.677 48.7161 629.062 48.5859C629.448 48.4557 629.878 48.3906 630.352 48.3906C631.029 48.3906 631.607 48.5104 632.086 48.75C632.565 48.9896 632.932 49.3099 633.188 49.7109C633.443 50.1068 633.57 50.5469 633.57 51.0312H632.125C632.125 50.7969 632.055 50.5703 631.914 50.3516C631.779 50.1276 631.578 49.9427 631.312 49.7969C631.052 49.651 630.732 49.5781 630.352 49.5781C629.951 49.5781 629.625 49.6406 629.375 49.7656C629.13 49.8854 628.951 50.0391 628.836 50.2266C628.727 50.4141 628.672 50.612 628.672 50.8203C628.672 50.9766 628.698 51.1172 628.75 51.2422C628.807 51.362 628.906 51.474 629.047 51.5781C629.188 51.6771 629.385 51.7708 629.641 51.8594C629.896 51.9479 630.221 52.0365 630.617 52.125C631.31 52.2812 631.88 52.4688 632.328 52.6875C632.776 52.9062 633.109 53.1745 633.328 53.4922C633.547 53.8099 633.656 54.1953 633.656 54.6484C633.656 55.0182 633.578 55.3568 633.422 55.6641C633.271 55.9714 633.049 56.237 632.758 56.4609C632.471 56.6797 632.128 56.8516 631.727 56.9766C631.331 57.0964 630.885 57.1562 630.391 57.1562C629.646 57.1562 629.016 57.0234 628.5 56.7578C627.984 56.4922 627.594 56.1484 627.328 55.7266C627.062 55.3047 626.93 54.8594 626.93 54.3906H628.383C628.404 54.7865 628.518 55.1016 628.727 55.3359C628.935 55.5651 629.19 55.7292 629.492 55.8281C629.794 55.9219 630.094 55.9688 630.391 55.9688C630.786 55.9688 631.117 55.9167 631.383 55.8125C631.654 55.7083 631.859 55.5651 632 55.3828C632.141 55.2005 632.211 54.9922 632.211 54.7578ZM639.062 57.1562C638.474 57.1562 637.94 57.0573 637.461 56.8594C636.987 56.6562 636.578 56.3724 636.234 56.0078C635.896 55.6432 635.635 55.2109 635.453 54.7109C635.271 54.2109 635.18 53.6641 635.18 53.0703V52.7422C635.18 52.0547 635.281 51.4427 635.484 50.9062C635.688 50.3646 635.964 49.9062 636.312 49.5312C636.661 49.1562 637.057 48.8724 637.5 48.6797C637.943 48.487 638.401 48.3906 638.875 48.3906C639.479 48.3906 640 48.4948 640.438 48.7031C640.88 48.9115 641.242 49.2031 641.523 49.5781C641.805 49.9479 642.013 50.3854 642.148 50.8906C642.284 51.3906 642.352 51.9375 642.352 52.5312V53.1797H636.039V52H640.906V51.8906C640.885 51.5156 640.807 51.151 640.672 50.7969C640.542 50.4427 640.333 50.151 640.047 49.9219C639.76 49.6927 639.37 49.5781 638.875 49.5781C638.547 49.5781 638.245 49.6484 637.969 49.7891C637.693 49.9245 637.456 50.1276 637.258 50.3984C637.06 50.6693 636.906 51 636.797 51.3906C636.688 51.7812 636.633 52.2318 636.633 52.7422V53.0703C636.633 53.4714 636.688 53.849 636.797 54.2031C636.911 54.5521 637.076 54.8594 637.289 55.125C637.508 55.3906 637.771 55.599 638.078 55.75C638.391 55.901 638.745 55.9766 639.141 55.9766C639.651 55.9766 640.083 55.8724 640.438 55.6641C640.792 55.4557 641.102 55.1771 641.367 54.8281L642.242 55.5234C642.06 55.7995 641.828 56.0625 641.547 56.3125C641.266 56.5625 640.919 56.7656 640.508 56.9219C640.102 57.0781 639.62 57.1562 639.062 57.1562ZM647.578 48.5469V49.6562H643.008V48.5469H647.578ZM644.555 46.4922H646V54.9062C646 55.1927 646.044 55.4089 646.133 55.5547C646.221 55.7005 646.336 55.7969 646.477 55.8438C646.617 55.8906 646.768 55.9141 646.93 55.9141C647.049 55.9141 647.174 55.9036 647.305 55.8828C647.44 55.8568 647.542 55.8359 647.609 55.8203L647.617 57C647.503 57.0365 647.352 57.0703 647.164 57.1016C646.982 57.138 646.76 57.1562 646.5 57.1562C646.146 57.1562 645.82 57.0859 645.523 56.9453C645.227 56.8047 644.99 56.5703 644.812 56.2422C644.641 55.9089 644.555 55.4609 644.555 54.8984V46.4922ZM652.812 48.5469V49.6562H648.242V48.5469H652.812ZM649.789 46.4922H651.234V54.9062C651.234 55.1927 651.279 55.4089 651.367 55.5547C651.456 55.7005 651.57 55.7969 651.711 55.8438C651.852 55.8906 652.003 55.9141 652.164 55.9141C652.284 55.9141 652.409 55.9036 652.539 55.8828C652.674 55.8568 652.776 55.8359 652.844 55.8203L652.852 57C652.737 57.0365 652.586 57.0703 652.398 57.1016C652.216 57.138 651.995 57.1562 651.734 57.1562C651.38 57.1562 651.055 57.0859 650.758 56.9453C650.461 56.8047 650.224 56.5703 650.047 56.2422C649.875 55.9089 649.789 55.4609 649.789 54.8984V46.4922ZM656.078 48.5469V57H654.625V48.5469H656.078ZM654.516 46.3047C654.516 46.0703 654.586 45.8724 654.727 45.7109C654.872 45.5495 655.086 45.4688 655.367 45.4688C655.643 45.4688 655.854 45.5495 656 45.7109C656.151 45.8724 656.227 46.0703 656.227 46.3047C656.227 46.5286 656.151 46.7214 656 46.8828C655.854 47.0391 655.643 47.1172 655.367 47.1172C655.086 47.1172 654.872 47.0391 654.727 46.8828C654.586 46.7214 654.516 46.5286 654.516 46.3047ZM659.844 50.3516V57H658.398V48.5469H659.766L659.844 50.3516ZM659.5 52.4531L658.898 52.4297C658.904 51.8516 658.99 51.3177 659.156 50.8281C659.323 50.3333 659.557 49.9036 659.859 49.5391C660.161 49.1745 660.521 48.8932 660.938 48.6953C661.359 48.4922 661.826 48.3906 662.336 48.3906C662.753 48.3906 663.128 48.4479 663.461 48.5625C663.794 48.6719 664.078 48.849 664.312 49.0938C664.552 49.3385 664.734 49.6562 664.859 50.0469C664.984 50.4323 665.047 50.9036 665.047 51.4609V57H663.594V51.4453C663.594 51.0026 663.529 50.6484 663.398 50.3828C663.268 50.112 663.078 49.9167 662.828 49.7969C662.578 49.6719 662.271 49.6094 661.906 49.6094C661.547 49.6094 661.219 49.6849 660.922 49.8359C660.63 49.987 660.378 50.1953 660.164 50.4609C659.956 50.7266 659.792 51.0312 659.672 51.375C659.557 51.7135 659.5 52.0729 659.5 52.4531ZM672.719 48.5469H674.031V56.8203C674.031 57.5651 673.88 58.2005 673.578 58.7266C673.276 59.2526 672.854 59.651 672.312 59.9219C671.776 60.1979 671.156 60.3359 670.453 60.3359C670.161 60.3359 669.818 60.2891 669.422 60.1953C669.031 60.1068 668.646 59.9531 668.266 59.7344C667.891 59.5208 667.576 59.2318 667.32 58.8672L668.078 58.0078C668.432 58.4349 668.802 58.7318 669.188 58.8984C669.578 59.0651 669.964 59.1484 670.344 59.1484C670.802 59.1484 671.198 59.0625 671.531 58.8906C671.865 58.7188 672.122 58.4635 672.305 58.125C672.492 57.7917 672.586 57.3802 672.586 56.8906V50.4062L672.719 48.5469ZM666.898 52.8672V52.7031C666.898 52.0573 666.974 51.4714 667.125 50.9453C667.281 50.4141 667.503 49.9583 667.789 49.5781C668.081 49.1979 668.432 48.9062 668.844 48.7031C669.255 48.4948 669.719 48.3906 670.234 48.3906C670.766 48.3906 671.229 48.4844 671.625 48.6719C672.026 48.8542 672.365 49.1224 672.641 49.4766C672.922 49.8255 673.143 50.2474 673.305 50.7422C673.466 51.237 673.578 51.7969 673.641 52.4219V53.1406C673.583 53.7604 673.471 54.3177 673.305 54.8125C673.143 55.3073 672.922 55.7292 672.641 56.0781C672.365 56.4271 672.026 56.6953 671.625 56.8828C671.224 57.0651 670.755 57.1562 670.219 57.1562C669.714 57.1562 669.255 57.0495 668.844 56.8359C668.438 56.6224 668.089 56.3229 667.797 55.9375C667.505 55.5521 667.281 55.099 667.125 54.5781C666.974 54.0521 666.898 53.4818 666.898 52.8672ZM668.344 52.7031V52.8672C668.344 53.2891 668.385 53.6849 668.469 54.0547C668.557 54.4245 668.69 54.75 668.867 55.0312C669.049 55.3125 669.281 55.5339 669.562 55.6953C669.844 55.8516 670.18 55.9297 670.57 55.9297C671.049 55.9297 671.445 55.8281 671.758 55.625C672.07 55.4219 672.318 55.1536 672.5 54.8203C672.688 54.487 672.833 54.125 672.938 53.7344V51.8516C672.88 51.5651 672.792 51.2891 672.672 51.0234C672.557 50.7526 672.406 50.513 672.219 50.3047C672.036 50.0911 671.81 49.9219 671.539 49.7969C671.268 49.6719 670.951 49.6094 670.586 49.6094C670.19 49.6094 669.849 49.6927 669.562 49.8594C669.281 50.0208 669.049 50.2448 668.867 50.5312C668.69 50.8125 668.557 51.1406 668.469 51.5156C668.385 51.8854 668.344 52.2812 668.344 52.7031Z" fill="#2F2F2F"/>
</svg>
