<svg width="216" height="160" viewBox="0 0 216 160" fill="none" xmlns="http://www.w3.org/2000/svg">
<path d="M6.56543 3.20312V16H4.37695V3.20312H6.56543ZM10.582 3.20312V4.96094H0.395508V3.20312H10.582ZM13.5527 8.30078V16H11.4346V6.49023H13.4561L13.5527 8.30078ZM16.4619 6.42871L16.4443 8.39746C16.3154 8.37402 16.1748 8.35645 16.0225 8.34473C15.876 8.33301 15.7295 8.32715 15.583 8.32715C15.2197 8.32715 14.9004 8.37988 14.625 8.48535C14.3496 8.58496 14.1182 8.73145 13.9307 8.9248C13.749 9.1123 13.6084 9.34082 13.5088 9.61035C13.4092 9.87988 13.3506 10.1816 13.333 10.5156L12.8496 10.5508C12.8496 9.95312 12.9082 9.39941 13.0254 8.88965C13.1426 8.37988 13.3184 7.93164 13.5527 7.54492C13.793 7.1582 14.0918 6.85645 14.4492 6.63965C14.8125 6.42285 15.2314 6.31445 15.7061 6.31445C15.835 6.31445 15.9727 6.32617 16.1191 6.34961C16.2715 6.37305 16.3857 6.39941 16.4619 6.42871ZM22.834 14.0928V9.55762C22.834 9.21777 22.7725 8.9248 22.6494 8.67871C22.5264 8.43262 22.3389 8.24219 22.0869 8.10742C21.8408 7.97266 21.5303 7.90527 21.1553 7.90527C20.8096 7.90527 20.5107 7.96387 20.2588 8.08105C20.0068 8.19824 19.8105 8.35645 19.6699 8.55566C19.5293 8.75488 19.459 8.98047 19.459 9.23242H17.3496C17.3496 8.85742 17.4404 8.49414 17.6221 8.14258C17.8037 7.79102 18.0674 7.47754 18.4131 7.20215C18.7588 6.92676 19.1719 6.70996 19.6523 6.55176C20.1328 6.39355 20.6719 6.31445 21.2695 6.31445C21.9844 6.31445 22.6172 6.43457 23.168 6.6748C23.7246 6.91504 24.1611 7.27832 24.4775 7.76465C24.7998 8.24512 24.9609 8.84863 24.9609 9.5752V13.8027C24.9609 14.2363 24.9902 14.626 25.0488 14.9717C25.1133 15.3115 25.2041 15.6074 25.3213 15.8594V16H23.1504C23.0508 15.7715 22.9717 15.4814 22.9131 15.1299C22.8604 14.7725 22.834 14.4268 22.834 14.0928ZM23.1416 10.2168L23.1592 11.5264H21.6387C21.2461 11.5264 20.9004 11.5645 20.6016 11.6406C20.3027 11.7109 20.0537 11.8164 19.8545 11.957C19.6553 12.0977 19.5059 12.2676 19.4062 12.4668C19.3066 12.666 19.2568 12.8916 19.2568 13.1436C19.2568 13.3955 19.3154 13.627 19.4326 13.8379C19.5498 14.043 19.7197 14.2041 19.9424 14.3213C20.1709 14.4385 20.4463 14.4971 20.7686 14.4971C21.2021 14.4971 21.5801 14.4092 21.9023 14.2334C22.2305 14.0518 22.4883 13.832 22.6758 13.5742C22.8633 13.3105 22.9629 13.0615 22.9746 12.8271L23.6602 13.7676C23.5898 14.0078 23.4697 14.2656 23.2998 14.541C23.1299 14.8164 22.9072 15.0801 22.6318 15.332C22.3623 15.5781 22.0371 15.7803 21.6562 15.9385C21.2812 16.0967 20.8477 16.1758 20.3555 16.1758C19.7344 16.1758 19.1807 16.0527 18.6943 15.8066C18.208 15.5547 17.8271 15.2178 17.5518 14.7959C17.2764 14.3682 17.1387 13.8848 17.1387 13.3457C17.1387 12.8418 17.2324 12.3965 17.4199 12.0098C17.6133 11.6172 17.8945 11.2891 18.2637 11.0254C18.6387 10.7617 19.0957 10.5625 19.6348 10.4277C20.1738 10.2871 20.7891 10.2168 21.4805 10.2168H23.1416ZM31.0605 14.4883C31.4062 14.4883 31.7168 14.4209 31.9922 14.2861C32.2734 14.1455 32.499 13.9521 32.6689 13.7061C32.8447 13.46 32.9414 13.1758 32.959 12.8535H34.9541C34.9424 13.4688 34.7607 14.0283 34.4092 14.5322C34.0576 15.0361 33.5918 15.4375 33.0117 15.7363C32.4316 16.0293 31.79 16.1758 31.0869 16.1758C30.3604 16.1758 29.7275 16.0527 29.1885 15.8066C28.6494 15.5547 28.2012 15.209 27.8438 14.7695C27.4863 14.3301 27.2168 13.8232 27.0352 13.249C26.8594 12.6748 26.7715 12.0596 26.7715 11.4033V11.0957C26.7715 10.4395 26.8594 9.82422 27.0352 9.25C27.2168 8.66992 27.4863 8.16016 27.8438 7.7207C28.2012 7.28125 28.6494 6.93848 29.1885 6.69238C29.7275 6.44043 30.3574 6.31445 31.0781 6.31445C31.8398 6.31445 32.5078 6.4668 33.082 6.77148C33.6562 7.07031 34.1074 7.48926 34.4355 8.02832C34.7695 8.56152 34.9424 9.18262 34.9541 9.8916H32.959C32.9414 9.54004 32.8535 9.22363 32.6953 8.94238C32.543 8.65527 32.3262 8.42676 32.0449 8.25684C31.7695 8.08691 31.4385 8.00195 31.0518 8.00195C30.624 8.00195 30.2695 8.08984 29.9883 8.26562C29.707 8.43555 29.4873 8.66992 29.3291 8.96875C29.1709 9.26172 29.0566 9.59277 28.9863 9.96191C28.9219 10.3252 28.8896 10.7031 28.8896 11.0957V11.4033C28.8896 11.7959 28.9219 12.1768 28.9863 12.5459C29.0508 12.915 29.1621 13.2461 29.3203 13.5391C29.4844 13.8262 29.707 14.0576 29.9883 14.2334C30.2695 14.4033 30.627 14.4883 31.0605 14.4883ZM38.7158 2.5V16H36.5889V2.5H38.7158ZM44.6221 6.49023L40.4824 11.0781L38.2148 13.3984L37.6611 11.6055L39.375 9.4873L42.0645 6.49023H44.6221ZM42.5215 16L39.4365 11.5352L40.7725 10.0498L44.9736 16H42.5215ZM49.9834 16.1758C49.2803 16.1758 48.6445 16.0615 48.0762 15.833C47.5137 15.5986 47.0332 15.2734 46.6348 14.8574C46.2422 14.4414 45.9404 13.9521 45.7295 13.3896C45.5186 12.8271 45.4131 12.2207 45.4131 11.5703V11.2188C45.4131 10.4746 45.5215 9.80078 45.7383 9.19727C45.9551 8.59375 46.2568 8.07812 46.6436 7.65039C47.0303 7.2168 47.4873 6.88574 48.0146 6.65723C48.542 6.42871 49.1133 6.31445 49.7285 6.31445C50.4082 6.31445 51.0029 6.42871 51.5127 6.65723C52.0225 6.88574 52.4443 7.20801 52.7783 7.62402C53.1182 8.03418 53.3701 8.52344 53.5342 9.0918C53.7041 9.66016 53.7891 10.2871 53.7891 10.9727V11.8779H46.4414V10.3574H51.6973V10.1904C51.6855 9.80957 51.6094 9.45215 51.4688 9.11816C51.334 8.78418 51.126 8.51465 50.8447 8.30957C50.5635 8.10449 50.1885 8.00195 49.7197 8.00195C49.3682 8.00195 49.0547 8.07812 48.7793 8.23047C48.5098 8.37695 48.2842 8.59082 48.1025 8.87207C47.9209 9.15332 47.7803 9.49316 47.6807 9.8916C47.5869 10.2842 47.54 10.7266 47.54 11.2188V11.5703C47.54 11.9863 47.5957 12.373 47.707 12.7305C47.8242 13.082 47.9941 13.3896 48.2168 13.6533C48.4395 13.917 48.709 14.125 49.0254 14.2773C49.3418 14.4238 49.7021 14.4971 50.1064 14.4971C50.6162 14.4971 51.0703 14.3945 51.4688 14.1895C51.8672 13.9844 52.2129 13.6943 52.5059 13.3193L53.6221 14.4004C53.417 14.6992 53.1504 14.9863 52.8223 15.2617C52.4941 15.5312 52.0928 15.751 51.6182 15.9209C51.1494 16.0908 50.6045 16.1758 49.9834 16.1758ZM57.5684 8.30078V16H55.4502V6.49023H57.4717L57.5684 8.30078ZM60.4775 6.42871L60.46 8.39746C60.3311 8.37402 60.1904 8.35645 60.0381 8.34473C59.8916 8.33301 59.7451 8.32715 59.5986 8.32715C59.2354 8.32715 58.916 8.37988 58.6406 8.48535C58.3652 8.58496 58.1338 8.73145 57.9463 8.9248C57.7646 9.1123 57.624 9.34082 57.5244 9.61035C57.4248 9.87988 57.3662 10.1816 57.3486 10.5156L56.8652 10.5508C56.8652 9.95312 56.9238 9.39941 57.041 8.88965C57.1582 8.37988 57.334 7.93164 57.5684 7.54492C57.8086 7.1582 58.1074 6.85645 58.4648 6.63965C58.8281 6.42285 59.2471 6.31445 59.7217 6.31445C59.8506 6.31445 59.9883 6.32617 60.1348 6.34961C60.2871 6.37305 60.4014 6.39941 60.4775 6.42871ZM71.2969 10.2168H68.0361L68.0186 8.6084H70.8662C71.3467 8.6084 71.7539 8.53809 72.0879 8.39746C72.4277 8.25098 72.6855 8.04297 72.8613 7.77344C73.0371 7.49805 73.125 7.16699 73.125 6.78027C73.125 6.35254 73.043 6.00391 72.8789 5.73438C72.7148 5.46484 72.4629 5.26855 72.123 5.14551C71.7891 5.02246 71.3613 4.96094 70.8398 4.96094H68.7041V16H66.498V3.20312H70.8398C71.543 3.20312 72.1699 3.27051 72.7207 3.40527C73.2773 3.54004 73.749 3.75098 74.1357 4.03809C74.5283 4.31934 74.8242 4.67676 75.0234 5.11035C75.2285 5.54395 75.3311 6.05957 75.3311 6.65723C75.3311 7.18457 75.2051 7.66797 74.9531 8.10742C74.7012 8.54102 74.3291 8.89551 73.8369 9.1709C73.3447 9.44629 72.7324 9.61035 72 9.66309L71.2969 10.2168ZM71.2002 16H67.3418L68.335 14.251H71.2002C71.6982 14.251 72.1143 14.1689 72.4482 14.0049C72.7822 13.835 73.0312 13.6035 73.1953 13.3105C73.3652 13.0117 73.4502 12.6631 73.4502 12.2646C73.4502 11.8486 73.377 11.4883 73.2305 11.1836C73.084 10.873 72.8525 10.6357 72.5361 10.4717C72.2197 10.3018 71.8066 10.2168 71.2969 10.2168H68.8184L68.8359 8.6084H72.0615L72.5625 9.21484C73.2656 9.23828 73.8428 9.39355 74.2939 9.68066C74.751 9.96777 75.0908 10.3398 75.3135 10.7969C75.5361 11.2539 75.6475 11.7461 75.6475 12.2734C75.6475 13.0879 75.4688 13.7705 75.1113 14.3213C74.7598 14.8721 74.2529 15.291 73.5908 15.5781C72.9287 15.8594 72.1318 16 71.2002 16ZM81.8525 16.1758C81.1494 16.1758 80.5137 16.0615 79.9453 15.833C79.3828 15.5986 78.9023 15.2734 78.5039 14.8574C78.1113 14.4414 77.8096 13.9521 77.5986 13.3896C77.3877 12.8271 77.2822 12.2207 77.2822 11.5703V11.2188C77.2822 10.4746 77.3906 9.80078 77.6074 9.19727C77.8242 8.59375 78.126 8.07812 78.5127 7.65039C78.8994 7.2168 79.3564 6.88574 79.8838 6.65723C80.4111 6.42871 80.9824 6.31445 81.5977 6.31445C82.2773 6.31445 82.8721 6.42871 83.3818 6.65723C83.8916 6.88574 84.3135 7.20801 84.6475 7.62402C84.9873 8.03418 85.2393 8.52344 85.4033 9.0918C85.5732 9.66016 85.6582 10.2871 85.6582 10.9727V11.8779H78.3105V10.3574H83.5664V10.1904C83.5547 9.80957 83.4785 9.45215 83.3379 9.11816C83.2031 8.78418 82.9951 8.51465 82.7139 8.30957C82.4326 8.10449 82.0576 8.00195 81.5889 8.00195C81.2373 8.00195 80.9238 8.07812 80.6484 8.23047C80.3789 8.37695 80.1533 8.59082 79.9717 8.87207C79.79 9.15332 79.6494 9.49316 79.5498 9.8916C79.4561 10.2842 79.4092 10.7266 79.4092 11.2188V11.5703C79.4092 11.9863 79.4648 12.373 79.5762 12.7305C79.6934 13.082 79.8633 13.3896 80.0859 13.6533C80.3086 13.917 80.5781 14.125 80.8945 14.2773C81.2109 14.4238 81.5713 14.4971 81.9756 14.4971C82.4854 14.4971 82.9395 14.3945 83.3379 14.1895C83.7363 13.9844 84.082 13.6943 84.375 13.3193L85.4912 14.4004C85.2861 14.6992 85.0195 14.9863 84.6914 15.2617C84.3633 15.5312 83.9619 15.751 83.4873 15.9209C83.0186 16.0908 82.4736 16.1758 81.8525 16.1758ZM89.4111 8.52051V16H87.293V6.49023H89.2881L89.4111 8.52051ZM89.0332 10.8936L88.3477 10.8848C88.3535 10.2109 88.4473 9.59277 88.6289 9.03027C88.8164 8.46777 89.0742 7.98438 89.4023 7.58008C89.7363 7.17578 90.1348 6.86523 90.5977 6.64844C91.0605 6.42578 91.5762 6.31445 92.1445 6.31445C92.6016 6.31445 93.0146 6.37891 93.3838 6.50781C93.7588 6.63086 94.0781 6.83301 94.3418 7.11426C94.6113 7.39551 94.8164 7.76172 94.957 8.21289C95.0977 8.6582 95.168 9.20605 95.168 9.85645V16H93.041V9.84766C93.041 9.39062 92.9736 9.03027 92.8389 8.7666C92.71 8.49707 92.5195 8.30664 92.2676 8.19531C92.0215 8.07812 91.7139 8.01953 91.3447 8.01953C90.9814 8.01953 90.6562 8.0957 90.3691 8.24805C90.082 8.40039 89.8389 8.6084 89.6396 8.87207C89.4463 9.13574 89.2969 9.44043 89.1914 9.78613C89.0859 10.1318 89.0332 10.501 89.0332 10.8936ZM101.522 16.1758C100.819 16.1758 100.184 16.0615 99.6152 15.833C99.0527 15.5986 98.5723 15.2734 98.1738 14.8574C97.7812 14.4414 97.4795 13.9521 97.2686 13.3896C97.0576 12.8271 96.9521 12.2207 96.9521 11.5703V11.2188C96.9521 10.4746 97.0605 9.80078 97.2773 9.19727C97.4941 8.59375 97.7959 8.07812 98.1826 7.65039C98.5693 7.2168 99.0264 6.88574 99.5537 6.65723C100.081 6.42871 100.652 6.31445 101.268 6.31445C101.947 6.31445 102.542 6.42871 103.052 6.65723C103.562 6.88574 103.983 7.20801 104.317 7.62402C104.657 8.03418 104.909 8.52344 105.073 9.0918C105.243 9.66016 105.328 10.2871 105.328 10.9727V11.8779H97.9805V10.3574H103.236V10.1904C103.225 9.80957 103.148 9.45215 103.008 9.11816C102.873 8.78418 102.665 8.51465 102.384 8.30957C102.103 8.10449 101.728 8.00195 101.259 8.00195C100.907 8.00195 100.594 8.07812 100.318 8.23047C100.049 8.37695 99.8232 8.59082 99.6416 8.87207C99.46 9.15332 99.3193 9.49316 99.2197 9.8916C99.126 10.2842 99.0791 10.7266 99.0791 11.2188V11.5703C99.0791 11.9863 99.1348 12.373 99.2461 12.7305C99.3633 13.082 99.5332 13.3896 99.7559 13.6533C99.9785 13.917 100.248 14.125 100.564 14.2773C100.881 14.4238 101.241 14.4971 101.646 14.4971C102.155 14.4971 102.609 14.3945 103.008 14.1895C103.406 13.9844 103.752 13.6943 104.045 13.3193L105.161 14.4004C104.956 14.6992 104.689 14.9863 104.361 15.2617C104.033 15.5312 103.632 15.751 103.157 15.9209C102.688 16.0908 102.144 16.1758 101.522 16.1758ZM109.705 16H107.578V5.875C107.578 5.10742 107.73 4.45996 108.035 3.93262C108.346 3.40527 108.788 3.00391 109.362 2.72852C109.942 2.45313 110.631 2.31543 111.428 2.31543C111.896 2.31543 112.348 2.36523 112.781 2.46484C113.221 2.56445 113.675 2.69043 114.144 2.84277L113.818 4.56543C113.52 4.46582 113.188 4.37207 112.825 4.28418C112.462 4.19043 112.043 4.14355 111.568 4.14355C110.93 4.14355 110.458 4.29004 110.153 4.58301C109.854 4.87012 109.705 5.30078 109.705 5.875V16ZM111.612 6.49023V8.03711H106.119V6.49023H111.612ZM115.146 6.49023V16H113.027V6.49023H115.146ZM121.869 6.49023V8.03711H116.508V6.49023H121.869ZM118.055 4.16113H120.173V13.3721C120.173 13.665 120.214 13.8906 120.296 14.0488C120.384 14.2012 120.504 14.3037 120.656 14.3564C120.809 14.4092 120.987 14.4355 121.192 14.4355C121.339 14.4355 121.479 14.4268 121.614 14.4092C121.749 14.3916 121.857 14.374 121.939 14.3564L121.948 15.9736C121.772 16.0264 121.567 16.0732 121.333 16.1143C121.104 16.1553 120.841 16.1758 120.542 16.1758C120.056 16.1758 119.625 16.0908 119.25 15.9209C118.875 15.7451 118.582 15.4609 118.371 15.0684C118.16 14.6758 118.055 14.1543 118.055 13.5039V4.16113ZM128.839 13.4248C128.839 13.2139 128.786 13.0234 128.681 12.8535C128.575 12.6777 128.373 12.5195 128.074 12.3789C127.781 12.2383 127.348 12.1094 126.773 11.9922C126.27 11.8809 125.807 11.749 125.385 11.5967C124.969 11.4385 124.611 11.248 124.312 11.0254C124.014 10.8027 123.782 10.5391 123.618 10.2344C123.454 9.92969 123.372 9.57812 123.372 9.17969C123.372 8.79297 123.457 8.42676 123.627 8.08105C123.797 7.73535 124.04 7.43066 124.356 7.16699C124.673 6.90332 125.057 6.69531 125.508 6.54297C125.965 6.39063 126.475 6.31445 127.037 6.31445C127.834 6.31445 128.517 6.44922 129.085 6.71875C129.659 6.98242 130.099 7.34277 130.403 7.7998C130.708 8.25098 130.86 8.76074 130.86 9.3291H128.742C128.742 9.07715 128.678 8.84277 128.549 8.62598C128.426 8.40332 128.238 8.22461 127.986 8.08984C127.734 7.94922 127.418 7.87891 127.037 7.87891C126.674 7.87891 126.372 7.9375 126.132 8.05469C125.897 8.16602 125.722 8.3125 125.604 8.49414C125.493 8.67578 125.438 8.875 125.438 9.0918C125.438 9.25 125.467 9.39355 125.525 9.52246C125.59 9.64551 125.695 9.75977 125.842 9.86523C125.988 9.96484 126.188 10.0586 126.439 10.1465C126.697 10.2344 127.02 10.3193 127.406 10.4014C128.133 10.5537 128.757 10.75 129.278 10.9902C129.806 11.2246 130.21 11.5293 130.491 11.9043C130.772 12.2734 130.913 12.7422 130.913 13.3105C130.913 13.7324 130.822 14.1191 130.641 14.4707C130.465 14.8164 130.207 15.1182 129.867 15.376C129.527 15.6279 129.12 15.8242 128.646 15.9648C128.177 16.1055 127.649 16.1758 127.063 16.1758C126.202 16.1758 125.473 16.0234 124.875 15.7188C124.277 15.4082 123.823 15.0127 123.513 14.5322C123.208 14.0459 123.056 13.542 123.056 13.0205H125.104C125.127 13.4131 125.235 13.7266 125.429 13.9609C125.628 14.1895 125.874 14.3564 126.167 14.4619C126.466 14.5615 126.773 14.6113 127.09 14.6113C127.471 14.6113 127.79 14.5615 128.048 14.4619C128.306 14.3564 128.502 14.2158 128.637 14.04C128.771 13.8584 128.839 13.6533 128.839 13.4248Z" fill="#2F2F2F"/>
<path d="M9 36V39M23 36V39M4 57V42C4 41.2044 4.31607 40.4413 4.87868 39.8787C5.44129 39.3161 6.20435 39 7 39H25C25.7957 39 26.5587 39.3161 27.1213 39.8787C27.6839 40.4413 28 41.2044 28 42V57M4 57C4 57.7957 4.31607 58.5587 4.87868 59.1213C5.44129 59.6839 6.20435 60 7 60H25C25.7957 60 26.5587 59.6839 27.1213 59.1213C27.6839 58.5587 28 57.7957 28 57M4 57V47C4 46.2044 4.31607 45.4413 4.87868 44.8787C5.44129 44.3161 6.20435 44 7 44H25C25.7957 44 26.5587 44.3161 27.1213 44.8787C27.6839 45.4413 28 46.2044 28 47V57M16 49H16.0107V49.0107H16V49ZM16 52H16.0107V52.0107H16V52ZM16 55H16.0107V55.0107H16V55ZM13 52H13.0107V52.0107H13V52ZM13 55H13.0107V55.0107H13V55ZM10 52H10.0107V52.0107H10V52ZM10 55H10.0107V55.0107H10V55ZM19 49H19.0107V49.0107H19V49ZM19 52H19.0107V52.0107H19V52ZM19 55H19.0107V55.0107H19V55ZM22 49H22.0107V49.0107H22V49ZM22 52H22.0107V52.0107H22V52Z" stroke="#407BFF" stroke-width="2" stroke-linecap="round" stroke-linejoin="round"/>
<path d="M48.75 46.5156V47.7422H42.5938V46.5156H48.75ZM42.8281 41.625V53H41.3203V41.625H42.8281ZM50.0625 41.625V53H48.5625V41.625H50.0625ZM57.5078 51.5547V47.2031C57.5078 46.8698 57.4401 46.5807 57.3047 46.3359C57.1745 46.0859 56.9766 45.8932 56.7109 45.7578C56.4453 45.6224 56.1172 45.5547 55.7266 45.5547C55.362 45.5547 55.0417 45.6172 54.7656 45.7422C54.4948 45.8672 54.2812 46.0312 54.125 46.2344C53.974 46.4375 53.8984 46.6562 53.8984 46.8906H52.4531C52.4531 46.5885 52.5312 46.2891 52.6875 45.9922C52.8438 45.6953 53.0677 45.4271 53.3594 45.1875C53.6562 44.9427 54.0104 44.75 54.4219 44.6094C54.8385 44.4635 55.3021 44.3906 55.8125 44.3906C56.4271 44.3906 56.9688 44.4948 57.4375 44.7031C57.9115 44.9115 58.2812 45.2266 58.5469 45.6484C58.8177 46.0651 58.9531 46.5885 58.9531 47.2188V51.1562C58.9531 51.4375 58.9766 51.737 59.0234 52.0547C59.0755 52.3724 59.151 52.6458 59.25 52.875V53H57.7422C57.6693 52.8333 57.612 52.612 57.5703 52.3359C57.5286 52.0547 57.5078 51.7943 57.5078 51.5547ZM57.7578 47.875L57.7734 48.8906H56.3125C55.901 48.8906 55.5339 48.9245 55.2109 48.9922C54.888 49.0547 54.6172 49.151 54.3984 49.2812C54.1797 49.4115 54.013 49.5755 53.8984 49.7734C53.7839 49.9661 53.7266 50.1927 53.7266 50.4531C53.7266 50.7188 53.7865 50.9609 53.9062 51.1797C54.026 51.3984 54.2057 51.5729 54.4453 51.7031C54.6901 51.8281 54.9896 51.8906 55.3438 51.8906C55.7865 51.8906 56.1771 51.7969 56.5156 51.6094C56.8542 51.4219 57.1224 51.1927 57.3203 50.9219C57.5234 50.651 57.6328 50.388 57.6484 50.1328L58.2656 50.8281C58.2292 51.0469 58.1302 51.2891 57.9688 51.5547C57.8073 51.8203 57.5911 52.0755 57.3203 52.3203C57.0547 52.5599 56.737 52.7604 56.3672 52.9219C56.0026 53.0781 55.5911 53.1562 55.1328 53.1562C54.5599 53.1562 54.0573 53.0443 53.625 52.8203C53.1979 52.5964 52.8646 52.2969 52.625 51.9219C52.3906 51.5417 52.2734 51.1172 52.2734 50.6484C52.2734 50.1953 52.362 49.7969 52.5391 49.4531C52.7161 49.1042 52.9714 48.8151 53.3047 48.5859C53.638 48.3516 54.0391 48.1745 54.5078 48.0547C54.9766 47.9349 55.5 47.875 56.0781 47.875H57.7578ZM61.2188 41H62.6719V51.3594L62.5469 53H61.2188V41ZM68.3828 48.7031V48.8672C68.3828 49.4818 68.3099 50.0521 68.1641 50.5781C68.0182 51.099 67.8047 51.5521 67.5234 51.9375C67.2422 52.3229 66.8984 52.6224 66.4922 52.8359C66.0859 53.0495 65.6198 53.1562 65.0938 53.1562C64.5573 53.1562 64.0859 53.0651 63.6797 52.8828C63.2786 52.6953 62.9401 52.4271 62.6641 52.0781C62.388 51.7292 62.1667 51.3073 62 50.8125C61.8385 50.3177 61.7266 49.7604 61.6641 49.1406V48.4219C61.7266 47.7969 61.8385 47.237 62 46.7422C62.1667 46.2474 62.388 45.8255 62.6641 45.4766C62.9401 45.1224 63.2786 44.8542 63.6797 44.6719C64.0807 44.4844 64.5469 44.3906 65.0781 44.3906C65.6094 44.3906 66.0807 44.4948 66.4922 44.7031C66.9036 44.9062 67.2474 45.1979 67.5234 45.5781C67.8047 45.9583 68.0182 46.4141 68.1641 46.9453C68.3099 47.4714 68.3828 48.0573 68.3828 48.7031ZM66.9297 48.8672V48.7031C66.9297 48.2812 66.8906 47.8854 66.8125 47.5156C66.7344 47.1406 66.6094 46.8125 66.4375 46.5312C66.2656 46.2448 66.0391 46.0208 65.7578 45.8594C65.4766 45.6927 65.1302 45.6094 64.7188 45.6094C64.3542 45.6094 64.0365 45.6719 63.7656 45.7969C63.5 45.9219 63.2734 46.0911 63.0859 46.3047C62.8984 46.513 62.7448 46.7526 62.625 47.0234C62.5104 47.2891 62.4245 47.5651 62.3672 47.8516V49.7344C62.4505 50.099 62.5859 50.4505 62.7734 50.7891C62.9661 51.1224 63.2214 51.3958 63.5391 51.6094C63.862 51.8229 64.2604 51.9297 64.7344 51.9297C65.125 51.9297 65.4583 51.8516 65.7344 51.6953C66.0156 51.5339 66.2422 51.3125 66.4141 51.0312C66.5911 50.75 66.7214 50.4245 66.8047 50.0547C66.888 49.6849 66.9297 49.2891 66.9297 48.8672ZM71.7812 44.5469V53H70.3281V44.5469H71.7812ZM70.2188 42.3047C70.2188 42.0703 70.2891 41.8724 70.4297 41.7109C70.5755 41.5495 70.7891 41.4688 71.0703 41.4688C71.3464 41.4688 71.5573 41.5495 71.7031 41.7109C71.8542 41.8724 71.9297 42.0703 71.9297 42.3047C71.9297 42.5286 71.8542 42.7214 71.7031 42.8828C71.5573 43.0391 71.3464 43.1172 71.0703 43.1172C70.7891 43.1172 70.5755 43.0391 70.4297 42.8828C70.2891 42.7214 70.2188 42.5286 70.2188 42.3047ZM77.6406 44.5469V45.6562H73.0703V44.5469H77.6406ZM74.6172 42.4922H76.0625V50.9062C76.0625 51.1927 76.1068 51.4089 76.1953 51.5547C76.2839 51.7005 76.3984 51.7969 76.5391 51.8438C76.6797 51.8906 76.8307 51.9141 76.9922 51.9141C77.112 51.9141 77.237 51.9036 77.3672 51.8828C77.5026 51.8568 77.6042 51.8359 77.6719 51.8203L77.6797 53C77.5651 53.0365 77.4141 53.0703 77.2266 53.1016C77.0443 53.138 76.8229 53.1562 76.5625 53.1562C76.2083 53.1562 75.8828 53.0859 75.5859 52.9453C75.2891 52.8047 75.0521 52.5703 74.875 52.2422C74.7031 51.9089 74.6172 51.4609 74.6172 50.8984V42.4922ZM88.6328 51.3594V41H90.0859V53H88.7578L88.6328 51.3594ZM82.9453 48.8672V48.7031C82.9453 48.0573 83.0234 47.4714 83.1797 46.9453C83.3411 46.4141 83.5677 45.9583 83.8594 45.5781C84.1562 45.1979 84.5078 44.9062 84.9141 44.7031C85.3255 44.4948 85.7839 44.3906 86.2891 44.3906C86.8203 44.3906 87.2839 44.4844 87.6797 44.6719C88.0807 44.8542 88.4193 45.1224 88.6953 45.4766C88.9766 45.8255 89.1979 46.2474 89.3594 46.7422C89.5208 47.237 89.6328 47.7969 89.6953 48.4219V49.1406C89.638 49.7604 89.526 50.3177 89.3594 50.8125C89.1979 51.3073 88.9766 51.7292 88.6953 52.0781C88.4193 52.4271 88.0807 52.6953 87.6797 52.8828C87.2786 53.0651 86.8099 53.1562 86.2734 53.1562C85.7786 53.1562 85.3255 53.0495 84.9141 52.8359C84.5078 52.6224 84.1562 52.3229 83.8594 51.9375C83.5677 51.5521 83.3411 51.099 83.1797 50.5781C83.0234 50.0521 82.9453 49.4818 82.9453 48.8672ZM84.3984 48.7031V48.8672C84.3984 49.2891 84.4401 49.6849 84.5234 50.0547C84.612 50.4245 84.7474 50.75 84.9297 51.0312C85.112 51.3125 85.3438 51.5339 85.625 51.6953C85.9062 51.8516 86.2422 51.9297 86.6328 51.9297C87.112 51.9297 87.5052 51.8281 87.8125 51.625C88.125 51.4219 88.375 51.1536 88.5625 50.8203C88.75 50.487 88.8958 50.125 89 49.7344V47.8516C88.9375 47.5651 88.8464 47.2891 88.7266 47.0234C88.612 46.7526 88.4609 46.513 88.2734 46.3047C88.0911 46.0911 87.8646 45.9219 87.5938 45.7969C87.3281 45.6719 87.013 45.6094 86.6484 45.6094C86.2526 45.6094 85.9115 45.6927 85.625 45.8594C85.3438 46.0208 85.112 46.2448 84.9297 46.5312C84.7474 46.8125 84.612 47.1406 84.5234 47.5156C84.4401 47.8854 84.3984 48.2812 84.3984 48.7031ZM93.7812 45.875V53H92.3359V44.5469H93.7422L93.7812 45.875ZM96.4219 44.5L96.4141 45.8438C96.2943 45.8177 96.1797 45.8021 96.0703 45.7969C95.9661 45.7865 95.8464 45.7812 95.7109 45.7812C95.3776 45.7812 95.0833 45.8333 94.8281 45.9375C94.5729 46.0417 94.3568 46.1875 94.1797 46.375C94.0026 46.5625 93.862 46.7865 93.7578 47.0469C93.6589 47.3021 93.5938 47.5833 93.5625 47.8906L93.1562 48.125C93.1562 47.6146 93.2057 47.1354 93.3047 46.6875C93.4089 46.2396 93.5677 45.8438 93.7812 45.5C93.9948 45.151 94.2656 44.8802 94.5938 44.6875C94.9271 44.4896 95.3229 44.3906 95.7812 44.3906C95.8854 44.3906 96.0052 44.4036 96.1406 44.4297C96.276 44.4505 96.3698 44.474 96.4219 44.5ZM99.3281 44.5469V53H97.875V44.5469H99.3281ZM97.7656 42.3047C97.7656 42.0703 97.8359 41.8724 97.9766 41.7109C98.1224 41.5495 98.3359 41.4688 98.6172 41.4688C98.8932 41.4688 99.1042 41.5495 99.25 41.7109C99.401 41.8724 99.4766 42.0703 99.4766 42.3047C99.4766 42.5286 99.401 42.7214 99.25 42.8828C99.1042 43.0391 98.8932 43.1172 98.6172 43.1172C98.3359 43.1172 98.1224 43.0391 97.9766 42.8828C97.8359 42.7214 97.7656 42.5286 97.7656 42.3047ZM104.219 51.6953L106.531 44.5469H108.008L104.969 53H104L104.219 51.6953ZM102.289 44.5469L104.672 51.7344L104.836 53H103.867L100.805 44.5469H102.289ZM112.797 53.1562C112.208 53.1562 111.674 53.0573 111.195 52.8594C110.721 52.6562 110.312 52.3724 109.969 52.0078C109.63 51.6432 109.37 51.2109 109.188 50.7109C109.005 50.2109 108.914 49.6641 108.914 49.0703V48.7422C108.914 48.0547 109.016 47.4427 109.219 46.9062C109.422 46.3646 109.698 45.9062 110.047 45.5312C110.396 45.1562 110.792 44.8724 111.234 44.6797C111.677 44.487 112.135 44.3906 112.609 44.3906C113.214 44.3906 113.734 44.4948 114.172 44.7031C114.615 44.9115 114.977 45.2031 115.258 45.5781C115.539 45.9479 115.747 46.3854 115.883 46.8906C116.018 47.3906 116.086 47.9375 116.086 48.5312V49.1797H109.773V48H114.641V47.8906C114.62 47.5156 114.542 47.151 114.406 46.7969C114.276 46.4427 114.068 46.151 113.781 45.9219C113.495 45.6927 113.104 45.5781 112.609 45.5781C112.281 45.5781 111.979 45.6484 111.703 45.7891C111.427 45.9245 111.19 46.1276 110.992 46.3984C110.794 46.6693 110.641 47 110.531 47.3906C110.422 47.7812 110.367 48.2318 110.367 48.7422V49.0703C110.367 49.4714 110.422 49.849 110.531 50.2031C110.646 50.5521 110.81 50.8594 111.023 51.125C111.242 51.3906 111.505 51.599 111.812 51.75C112.125 51.901 112.479 51.9766 112.875 51.9766C113.385 51.9766 113.818 51.8724 114.172 51.6641C114.526 51.4557 114.836 51.1771 115.102 50.8281L115.977 51.5234C115.794 51.7995 115.562 52.0625 115.281 52.3125C115 52.5625 114.654 52.7656 114.242 52.9219C113.836 53.0781 113.354 53.1562 112.797 53.1562Z" fill="#2F2F2F"/>
<path d="M5 84V99C5 99.7956 5.31607 100.559 5.87868 101.121C6.44129 101.684 7.20435 102 8 102H11M5 84H3M5 84H27M11 102H21M11 102L9.66667 106M27 84H29M27 84V99C27 99.7956 26.6839 100.559 26.1213 101.121C25.5587 101.684 24.7957 102 24 102H21M21 102L22.3333 106M9.66667 106H22.3333M9.66667 106L9 108M22.3333 106L23 108M12 95V97M16 92V97M20 89V97" stroke="#407BFF" stroke-width="2" stroke-linecap="round" stroke-linejoin="round"/>
<path d="M44.9922 99.2734L48.3438 89.625H49.9766L45.7656 101H44.6016L44.9922 99.2734ZM41.8594 89.625L45.1797 99.2734L45.5938 101H44.4297L40.2266 89.625H41.8594ZM52.8594 92.5469V101H51.4062V92.5469H52.8594ZM51.2969 90.3047C51.2969 90.0703 51.3672 89.8724 51.5078 89.7109C51.6536 89.5495 51.8672 89.4688 52.1484 89.4688C52.4245 89.4688 52.6354 89.5495 52.7812 89.7109C52.9323 89.8724 53.0078 90.0703 53.0078 90.3047C53.0078 90.5286 52.9323 90.7214 52.7812 90.8828C52.6354 91.0391 52.4245 91.1172 52.1484 91.1172C51.8672 91.1172 51.6536 91.0391 51.5078 90.8828C51.3672 90.7214 51.2969 90.5286 51.2969 90.3047ZM58.6875 101.156C58.099 101.156 57.5651 101.057 57.0859 100.859C56.612 100.656 56.2031 100.372 55.8594 100.008C55.5208 99.6432 55.2604 99.2109 55.0781 98.7109C54.8958 98.2109 54.8047 97.6641 54.8047 97.0703V96.7422C54.8047 96.0547 54.9062 95.4427 55.1094 94.9062C55.3125 94.3646 55.5885 93.9062 55.9375 93.5312C56.2865 93.1562 56.6823 92.8724 57.125 92.6797C57.5677 92.487 58.026 92.3906 58.5 92.3906C59.1042 92.3906 59.625 92.4948 60.0625 92.7031C60.5052 92.9115 60.8672 93.2031 61.1484 93.5781C61.4297 93.9479 61.638 94.3854 61.7734 94.8906C61.9089 95.3906 61.9766 95.9375 61.9766 96.5312V97.1797H55.6641V96H60.5312V95.8906C60.5104 95.5156 60.4323 95.151 60.2969 94.7969C60.1667 94.4427 59.9583 94.151 59.6719 93.9219C59.3854 93.6927 58.9948 93.5781 58.5 93.5781C58.1719 93.5781 57.8698 93.6484 57.5938 93.7891C57.3177 93.9245 57.0807 94.1276 56.8828 94.3984C56.6849 94.6693 56.5312 95 56.4219 95.3906C56.3125 95.7812 56.2578 96.2318 56.2578 96.7422V97.0703C56.2578 97.4714 56.3125 97.849 56.4219 98.2031C56.5365 98.5521 56.7005 98.8594 56.9141 99.125C57.1328 99.3906 57.3958 99.599 57.7031 99.75C58.0156 99.901 58.3698 99.9766 58.7656 99.9766C59.276 99.9766 59.7083 99.8724 60.0625 99.6641C60.4167 99.4557 60.7266 99.1771 60.9922 98.8281L61.8672 99.5234C61.6849 99.7995 61.4531 100.062 61.1719 100.312C60.8906 100.562 60.5443 100.766 60.1328 100.922C59.7266 101.078 59.2448 101.156 58.6875 101.156ZM65.8047 99.5L67.9766 92.5469H68.9297L68.7422 93.9297L66.5312 101H65.6016L65.8047 99.5ZM64.3438 92.5469L66.1953 99.5781L66.3281 101H65.3516L62.8984 92.5469H64.3438ZM71.0078 99.5234L72.7734 92.5469H74.2109L71.7578 101H70.7891L71.0078 99.5234ZM69.1406 92.5469L71.2656 99.3828L71.5078 101H70.5859L68.3125 93.9141L68.125 92.5469H69.1406ZM84.5859 98.7578C84.5859 98.5495 84.5391 98.3568 84.4453 98.1797C84.3568 97.9974 84.1719 97.8333 83.8906 97.6875C83.6146 97.5365 83.1979 97.4062 82.6406 97.2969C82.1719 97.1979 81.7474 97.0807 81.3672 96.9453C80.9922 96.8099 80.6719 96.6458 80.4062 96.4531C80.1458 96.2604 79.9453 96.0339 79.8047 95.7734C79.6641 95.513 79.5938 95.2083 79.5938 94.8594C79.5938 94.526 79.6667 94.2109 79.8125 93.9141C79.9635 93.6172 80.1745 93.3542 80.4453 93.125C80.7214 92.8958 81.0521 92.7161 81.4375 92.5859C81.8229 92.4557 82.2526 92.3906 82.7266 92.3906C83.4036 92.3906 83.9818 92.5104 84.4609 92.75C84.9401 92.9896 85.3073 93.3099 85.5625 93.7109C85.8177 94.1068 85.9453 94.5469 85.9453 95.0312H84.5C84.5 94.7969 84.4297 94.5703 84.2891 94.3516C84.1536 94.1276 83.9531 93.9427 83.6875 93.7969C83.4271 93.651 83.1068 93.5781 82.7266 93.5781C82.3255 93.5781 82 93.6406 81.75 93.7656C81.5052 93.8854 81.3255 94.0391 81.2109 94.2266C81.1016 94.4141 81.0469 94.612 81.0469 94.8203C81.0469 94.9766 81.0729 95.1172 81.125 95.2422C81.1823 95.362 81.2812 95.474 81.4219 95.5781C81.5625 95.6771 81.7604 95.7708 82.0156 95.8594C82.2708 95.9479 82.5964 96.0365 82.9922 96.125C83.6849 96.2812 84.2552 96.4688 84.7031 96.6875C85.151 96.9062 85.4844 97.1745 85.7031 97.4922C85.9219 97.8099 86.0312 98.1953 86.0312 98.6484C86.0312 99.0182 85.9531 99.3568 85.7969 99.6641C85.6458 99.9714 85.4245 100.237 85.1328 100.461C84.8464 100.68 84.5026 100.852 84.1016 100.977C83.7057 101.096 83.2604 101.156 82.7656 101.156C82.0208 101.156 81.3906 101.023 80.875 100.758C80.3594 100.492 79.9688 100.148 79.7031 99.7266C79.4375 99.3047 79.3047 98.8594 79.3047 98.3906H80.7578C80.7786 98.7865 80.8932 99.1016 81.1016 99.3359C81.3099 99.5651 81.5651 99.7292 81.8672 99.8281C82.1693 99.9219 82.4688 99.9688 82.7656 99.9688C83.1615 99.9688 83.4922 99.9167 83.7578 99.8125C84.0286 99.7083 84.2344 99.5651 84.375 99.3828C84.5156 99.2005 84.5859 98.9922 84.5859 98.7578ZM91.4688 92.5469V93.6562H86.8984V92.5469H91.4688ZM88.4453 90.4922H89.8906V98.9062C89.8906 99.1927 89.9349 99.4089 90.0234 99.5547C90.112 99.7005 90.2266 99.7969 90.3672 99.8438C90.5078 99.8906 90.6589 99.9141 90.8203 99.9141C90.9401 99.9141 91.0651 99.9036 91.1953 99.8828C91.3307 99.8568 91.4323 99.8359 91.5 99.8203L91.5078 101C91.3932 101.036 91.2422 101.07 91.0547 101.102C90.8724 101.138 90.651 101.156 90.3906 101.156C90.0365 101.156 89.7109 101.086 89.4141 100.945C89.1172 100.805 88.8802 100.57 88.7031 100.242C88.5312 99.9089 88.4453 99.4609 88.4453 98.8984V90.4922ZM98.1484 99.5547V95.2031C98.1484 94.8698 98.0807 94.5807 97.9453 94.3359C97.8151 94.0859 97.6172 93.8932 97.3516 93.7578C97.0859 93.6224 96.7578 93.5547 96.3672 93.5547C96.0026 93.5547 95.6823 93.6172 95.4062 93.7422C95.1354 93.8672 94.9219 94.0312 94.7656 94.2344C94.6146 94.4375 94.5391 94.6562 94.5391 94.8906H93.0938C93.0938 94.5885 93.1719 94.2891 93.3281 93.9922C93.4844 93.6953 93.7083 93.4271 94 93.1875C94.2969 92.9427 94.651 92.75 95.0625 92.6094C95.4792 92.4635 95.9427 92.3906 96.4531 92.3906C97.0677 92.3906 97.6094 92.4948 98.0781 92.7031C98.5521 92.9115 98.9219 93.2266 99.1875 93.6484C99.4583 94.0651 99.5938 94.5885 99.5938 95.2188V99.1562C99.5938 99.4375 99.6172 99.737 99.6641 100.055C99.7161 100.372 99.7917 100.646 99.8906 100.875V101H98.3828C98.3099 100.833 98.2526 100.612 98.2109 100.336C98.1693 100.055 98.1484 99.7943 98.1484 99.5547ZM98.3984 95.875L98.4141 96.8906H96.9531C96.5417 96.8906 96.1745 96.9245 95.8516 96.9922C95.5286 97.0547 95.2578 97.151 95.0391 97.2812C94.8203 97.4115 94.6536 97.5755 94.5391 97.7734C94.4245 97.9661 94.3672 98.1927 94.3672 98.4531C94.3672 98.7188 94.4271 98.9609 94.5469 99.1797C94.6667 99.3984 94.8464 99.5729 95.0859 99.7031C95.3307 99.8281 95.6302 99.8906 95.9844 99.8906C96.4271 99.8906 96.8177 99.7969 97.1562 99.6094C97.4948 99.4219 97.763 99.1927 97.9609 98.9219C98.1641 98.651 98.2734 98.388 98.2891 98.1328L98.9062 98.8281C98.8698 99.0469 98.7708 99.2891 98.6094 99.5547C98.4479 99.8203 98.2318 100.076 97.9609 100.32C97.6953 100.56 97.3776 100.76 97.0078 100.922C96.6432 101.078 96.2318 101.156 95.7734 101.156C95.2005 101.156 94.6979 101.044 94.2656 100.82C93.8385 100.596 93.5052 100.297 93.2656 99.9219C93.0312 99.5417 92.9141 99.1172 92.9141 98.6484C92.9141 98.1953 93.0026 97.7969 93.1797 97.4531C93.3568 97.1042 93.612 96.8151 93.9453 96.5859C94.2786 96.3516 94.6797 96.1745 95.1484 96.0547C95.6172 95.9349 96.1406 95.875 96.7188 95.875H98.3984ZM105.406 92.5469V93.6562H100.836V92.5469H105.406ZM102.383 90.4922H103.828V98.9062C103.828 99.1927 103.872 99.4089 103.961 99.5547C104.049 99.7005 104.164 99.7969 104.305 99.8438C104.445 99.8906 104.596 99.9141 104.758 99.9141C104.878 99.9141 105.003 99.9036 105.133 99.8828C105.268 99.8568 105.37 99.8359 105.438 99.8203L105.445 101C105.331 101.036 105.18 101.07 104.992 101.102C104.81 101.138 104.589 101.156 104.328 101.156C103.974 101.156 103.648 101.086 103.352 100.945C103.055 100.805 102.818 100.57 102.641 100.242C102.469 99.9089 102.383 99.4609 102.383 98.8984V90.4922ZM108.672 92.5469V101H107.219V92.5469H108.672ZM107.109 90.3047C107.109 90.0703 107.18 89.8724 107.32 89.7109C107.466 89.5495 107.68 89.4688 107.961 89.4688C108.237 89.4688 108.448 89.5495 108.594 89.7109C108.745 89.8724 108.82 90.0703 108.82 90.3047C108.82 90.5286 108.745 90.7214 108.594 90.8828C108.448 91.0391 108.237 91.1172 107.961 91.1172C107.68 91.1172 107.466 91.0391 107.32 90.8828C107.18 90.7214 107.109 90.5286 107.109 90.3047ZM115.914 98.7578C115.914 98.5495 115.867 98.3568 115.773 98.1797C115.685 97.9974 115.5 97.8333 115.219 97.6875C114.943 97.5365 114.526 97.4062 113.969 97.2969C113.5 97.1979 113.076 97.0807 112.695 96.9453C112.32 96.8099 112 96.6458 111.734 96.4531C111.474 96.2604 111.273 96.0339 111.133 95.7734C110.992 95.513 110.922 95.2083 110.922 94.8594C110.922 94.526 110.995 94.2109 111.141 93.9141C111.292 93.6172 111.503 93.3542 111.773 93.125C112.049 92.8958 112.38 92.7161 112.766 92.5859C113.151 92.4557 113.581 92.3906 114.055 92.3906C114.732 92.3906 115.31 92.5104 115.789 92.75C116.268 92.9896 116.635 93.3099 116.891 93.7109C117.146 94.1068 117.273 94.5469 117.273 95.0312H115.828C115.828 94.7969 115.758 94.5703 115.617 94.3516C115.482 94.1276 115.281 93.9427 115.016 93.7969C114.755 93.651 114.435 93.5781 114.055 93.5781C113.654 93.5781 113.328 93.6406 113.078 93.7656C112.833 93.8854 112.654 94.0391 112.539 94.2266C112.43 94.4141 112.375 94.612 112.375 94.8203C112.375 94.9766 112.401 95.1172 112.453 95.2422C112.51 95.362 112.609 95.474 112.75 95.5781C112.891 95.6771 113.089 95.7708 113.344 95.8594C113.599 95.9479 113.924 96.0365 114.32 96.125C115.013 96.2812 115.583 96.4688 116.031 96.6875C116.479 96.9062 116.812 97.1745 117.031 97.4922C117.25 97.8099 117.359 98.1953 117.359 98.6484C117.359 99.0182 117.281 99.3568 117.125 99.6641C116.974 99.9714 116.753 100.237 116.461 100.461C116.174 100.68 115.831 100.852 115.43 100.977C115.034 101.096 114.589 101.156 114.094 101.156C113.349 101.156 112.719 101.023 112.203 100.758C111.688 100.492 111.297 100.148 111.031 99.7266C110.766 99.3047 110.633 98.8594 110.633 98.3906H112.086C112.107 98.7865 112.221 99.1016 112.43 99.3359C112.638 99.5651 112.893 99.7292 113.195 99.8281C113.497 99.9219 113.797 99.9688 114.094 99.9688C114.49 99.9688 114.82 99.9167 115.086 99.8125C115.357 99.7083 115.562 99.5651 115.703 99.3828C115.844 99.2005 115.914 98.9922 115.914 98.7578ZM122.797 92.5469V93.6562H118.227V92.5469H122.797ZM119.773 90.4922H121.219V98.9062C121.219 99.1927 121.263 99.4089 121.352 99.5547C121.44 99.7005 121.555 99.7969 121.695 99.8438C121.836 99.8906 121.987 99.9141 122.148 99.9141C122.268 99.9141 122.393 99.9036 122.523 99.8828C122.659 99.8568 122.76 99.8359 122.828 99.8203L122.836 101C122.721 101.036 122.57 101.07 122.383 101.102C122.201 101.138 121.979 101.156 121.719 101.156C121.365 101.156 121.039 101.086 120.742 100.945C120.445 100.805 120.208 100.57 120.031 100.242C119.859 99.9089 119.773 99.4609 119.773 98.8984V90.4922ZM126.062 92.5469V101H124.609V92.5469H126.062ZM124.5 90.3047C124.5 90.0703 124.57 89.8724 124.711 89.7109C124.857 89.5495 125.07 89.4688 125.352 89.4688C125.628 89.4688 125.839 89.5495 125.984 89.7109C126.135 89.8724 126.211 90.0703 126.211 90.3047C126.211 90.5286 126.135 90.7214 125.984 90.8828C125.839 91.0391 125.628 91.1172 125.352 91.1172C125.07 91.1172 124.857 91.0391 124.711 90.8828C124.57 90.7214 124.5 90.5286 124.5 90.3047ZM131.766 99.9688C132.109 99.9688 132.427 99.8984 132.719 99.7578C133.01 99.6172 133.25 99.4245 133.438 99.1797C133.625 98.9297 133.732 98.6458 133.758 98.3281H135.133C135.107 98.8281 134.938 99.2943 134.625 99.7266C134.318 100.154 133.914 100.5 133.414 100.766C132.914 101.026 132.365 101.156 131.766 101.156C131.13 101.156 130.576 101.044 130.102 100.82C129.633 100.596 129.242 100.289 128.93 99.8984C128.622 99.5078 128.391 99.0599 128.234 98.5547C128.083 98.0443 128.008 97.5052 128.008 96.9375V96.6094C128.008 96.0417 128.083 95.5052 128.234 95C128.391 94.4896 128.622 94.0391 128.93 93.6484C129.242 93.2578 129.633 92.9505 130.102 92.7266C130.576 92.5026 131.13 92.3906 131.766 92.3906C132.427 92.3906 133.005 92.526 133.5 92.7969C133.995 93.0625 134.383 93.4271 134.664 93.8906C134.951 94.349 135.107 94.8698 135.133 95.4531H133.758C133.732 95.1042 133.633 94.7891 133.461 94.5078C133.294 94.2266 133.065 94.0026 132.773 93.8359C132.487 93.6641 132.151 93.5781 131.766 93.5781C131.323 93.5781 130.951 93.6667 130.648 93.8438C130.352 94.0156 130.115 94.25 129.938 94.5469C129.766 94.8385 129.641 95.1641 129.562 95.5234C129.49 95.8776 129.453 96.2396 129.453 96.6094V96.9375C129.453 97.3073 129.49 97.6719 129.562 98.0312C129.635 98.3906 129.758 98.7161 129.93 99.0078C130.107 99.2995 130.344 99.5339 130.641 99.7109C130.943 99.8828 131.318 99.9688 131.766 99.9688ZM141.68 98.7578C141.68 98.5495 141.633 98.3568 141.539 98.1797C141.451 97.9974 141.266 97.8333 140.984 97.6875C140.708 97.5365 140.292 97.4062 139.734 97.2969C139.266 97.1979 138.841 97.0807 138.461 96.9453C138.086 96.8099 137.766 96.6458 137.5 96.4531C137.24 96.2604 137.039 96.0339 136.898 95.7734C136.758 95.513 136.688 95.2083 136.688 94.8594C136.688 94.526 136.76 94.2109 136.906 93.9141C137.057 93.6172 137.268 93.3542 137.539 93.125C137.815 92.8958 138.146 92.7161 138.531 92.5859C138.917 92.4557 139.346 92.3906 139.82 92.3906C140.497 92.3906 141.076 92.5104 141.555 92.75C142.034 92.9896 142.401 93.3099 142.656 93.7109C142.911 94.1068 143.039 94.5469 143.039 95.0312H141.594C141.594 94.7969 141.523 94.5703 141.383 94.3516C141.247 94.1276 141.047 93.9427 140.781 93.7969C140.521 93.651 140.201 93.5781 139.82 93.5781C139.419 93.5781 139.094 93.6406 138.844 93.7656C138.599 93.8854 138.419 94.0391 138.305 94.2266C138.195 94.4141 138.141 94.612 138.141 94.8203C138.141 94.9766 138.167 95.1172 138.219 95.2422C138.276 95.362 138.375 95.474 138.516 95.5781C138.656 95.6771 138.854 95.7708 139.109 95.8594C139.365 95.9479 139.69 96.0365 140.086 96.125C140.779 96.2812 141.349 96.4688 141.797 96.6875C142.245 96.9062 142.578 97.1745 142.797 97.4922C143.016 97.8099 143.125 98.1953 143.125 98.6484C143.125 99.0182 143.047 99.3568 142.891 99.6641C142.74 99.9714 142.518 100.237 142.227 100.461C141.94 100.68 141.596 100.852 141.195 100.977C140.799 101.096 140.354 101.156 139.859 101.156C139.115 101.156 138.484 101.023 137.969 100.758C137.453 100.492 137.062 100.148 136.797 99.7266C136.531 99.3047 136.398 98.8594 136.398 98.3906H137.852C137.872 98.7865 137.987 99.1016 138.195 99.3359C138.404 99.5651 138.659 99.7292 138.961 99.8281C139.263 99.9219 139.562 99.9688 139.859 99.9688C140.255 99.9688 140.586 99.9167 140.852 99.8125C141.122 99.7083 141.328 99.5651 141.469 99.3828C141.609 99.2005 141.68 98.9922 141.68 98.7578Z" fill="#2F2F2F"/>
<path d="M15.2267 148.227L23 156C23.6667 156.645 24.5603 157.003 25.4881 156.995C26.4159 156.988 27.3036 156.616 27.9597 155.96C28.6158 155.304 28.9877 154.416 28.9953 153.488C29.0028 152.56 28.6454 151.667 28 151L20.164 143.164M15.2267 148.227L18.5547 144.187C18.9773 143.675 19.5413 143.352 20.1653 143.165C20.8987 142.947 21.716 142.915 22.4893 142.979C23.5318 143.068 24.5795 142.884 25.5285 142.443C26.4776 142.003 27.2949 141.322 27.8995 140.468C28.5041 139.614 28.8749 138.617 28.9751 137.575C29.0753 136.534 28.9014 135.484 28.4707 134.531L24.1027 138.9C23.3719 138.731 22.7032 138.36 22.1728 137.83C21.6424 137.299 21.2716 136.631 21.1027 135.9L25.4707 131.532C24.5172 131.101 23.4676 130.927 22.4261 131.028C21.3847 131.128 20.3875 131.499 19.5336 132.103C18.6797 132.708 17.9987 133.525 17.5582 134.474C17.1178 135.423 16.9331 136.471 17.0227 137.513C17.144 138.948 16.928 140.532 15.8173 141.447L15.6813 141.56M15.2267 148.227L9.02 155.764C8.71918 156.131 8.34493 156.43 7.92132 156.644C7.49772 156.857 7.03414 156.979 6.56044 157.002C6.08673 157.026 5.61339 156.95 5.17089 156.779C4.72838 156.608 4.32651 156.347 3.99115 156.012C3.65578 155.676 3.39435 155.274 3.22368 154.832C3.05301 154.389 2.97689 153.916 3.0002 153.442C3.02352 152.969 3.14576 152.505 3.35906 152.081C3.57236 151.658 3.87199 151.283 4.23866 150.983L13.3547 143.476L7.87866 138H6L3 133L5 131L10 134V135.879L15.68 141.559L13.3533 143.475M24.5 152.5L21 149M6.48933 153.5H6.5V153.511H6.48933V153.5Z" stroke="#407BFF" stroke-width="2" stroke-linecap="round" stroke-linejoin="round"/>
<path d="M45.5156 144.539H42.4766V143.312H45.5156C46.1042 143.312 46.5807 143.219 46.9453 143.031C47.3099 142.844 47.5755 142.583 47.7422 142.25C47.9141 141.917 48 141.536 48 141.109C48 140.719 47.9141 140.352 47.7422 140.008C47.5755 139.664 47.3099 139.388 46.9453 139.18C46.5807 138.966 46.1042 138.859 45.5156 138.859H42.8281V149H41.3203V137.625H45.5156C46.375 137.625 47.1016 137.773 47.6953 138.07C48.2891 138.367 48.7396 138.779 49.0469 139.305C49.3542 139.826 49.5078 140.422 49.5078 141.094C49.5078 141.823 49.3542 142.445 49.0469 142.961C48.7396 143.477 48.2891 143.87 47.6953 144.141C47.1016 144.406 46.375 144.539 45.5156 144.539ZM54.5938 149.156C54.0052 149.156 53.4714 149.057 52.9922 148.859C52.5182 148.656 52.1094 148.372 51.7656 148.008C51.4271 147.643 51.1667 147.211 50.9844 146.711C50.8021 146.211 50.7109 145.664 50.7109 145.07V144.742C50.7109 144.055 50.8125 143.443 51.0156 142.906C51.2188 142.365 51.4948 141.906 51.8438 141.531C52.1927 141.156 52.5885 140.872 53.0312 140.68C53.474 140.487 53.9323 140.391 54.4062 140.391C55.0104 140.391 55.5312 140.495 55.9688 140.703C56.4115 140.911 56.7734 141.203 57.0547 141.578C57.3359 141.948 57.5443 142.385 57.6797 142.891C57.8151 143.391 57.8828 143.938 57.8828 144.531V145.18H51.5703V144H56.4375V143.891C56.4167 143.516 56.3385 143.151 56.2031 142.797C56.0729 142.443 55.8646 142.151 55.5781 141.922C55.2917 141.693 54.901 141.578 54.4062 141.578C54.0781 141.578 53.776 141.648 53.5 141.789C53.224 141.924 52.987 142.128 52.7891 142.398C52.5911 142.669 52.4375 143 52.3281 143.391C52.2188 143.781 52.1641 144.232 52.1641 144.742V145.07C52.1641 145.471 52.2188 145.849 52.3281 146.203C52.4427 146.552 52.6068 146.859 52.8203 147.125C53.0391 147.391 53.3021 147.599 53.6094 147.75C53.9219 147.901 54.276 147.977 54.6719 147.977C55.1823 147.977 55.6146 147.872 55.9688 147.664C56.3229 147.456 56.6328 147.177 56.8984 146.828L57.7734 147.523C57.5911 147.799 57.3594 148.062 57.0781 148.312C56.7969 148.562 56.4505 148.766 56.0391 148.922C55.6328 149.078 55.151 149.156 54.5938 149.156ZM61.0156 141.875V149H59.5703V140.547H60.9766L61.0156 141.875ZM63.6562 140.5L63.6484 141.844C63.5286 141.818 63.4141 141.802 63.3047 141.797C63.2005 141.786 63.0807 141.781 62.9453 141.781C62.612 141.781 62.3177 141.833 62.0625 141.938C61.8073 142.042 61.5911 142.188 61.4141 142.375C61.237 142.562 61.0964 142.786 60.9922 143.047C60.8932 143.302 60.8281 143.583 60.7969 143.891L60.3906 144.125C60.3906 143.615 60.4401 143.135 60.5391 142.688C60.6432 142.24 60.8021 141.844 61.0156 141.5C61.2292 141.151 61.5 140.88 61.8281 140.688C62.1615 140.49 62.5573 140.391 63.0156 140.391C63.1198 140.391 63.2396 140.404 63.375 140.43C63.5104 140.451 63.6042 140.474 63.6562 140.5ZM69.9141 146.758C69.9141 146.549 69.8672 146.357 69.7734 146.18C69.6849 145.997 69.5 145.833 69.2188 145.688C68.9427 145.536 68.526 145.406 67.9688 145.297C67.5 145.198 67.0755 145.081 66.6953 144.945C66.3203 144.81 66 144.646 65.7344 144.453C65.474 144.26 65.2734 144.034 65.1328 143.773C64.9922 143.513 64.9219 143.208 64.9219 142.859C64.9219 142.526 64.9948 142.211 65.1406 141.914C65.2917 141.617 65.5026 141.354 65.7734 141.125C66.0495 140.896 66.3802 140.716 66.7656 140.586C67.151 140.456 67.5807 140.391 68.0547 140.391C68.7318 140.391 69.3099 140.51 69.7891 140.75C70.2682 140.99 70.6354 141.31 70.8906 141.711C71.1458 142.107 71.2734 142.547 71.2734 143.031H69.8281C69.8281 142.797 69.7578 142.57 69.6172 142.352C69.4818 142.128 69.2812 141.943 69.0156 141.797C68.7552 141.651 68.4349 141.578 68.0547 141.578C67.6536 141.578 67.3281 141.641 67.0781 141.766C66.8333 141.885 66.6536 142.039 66.5391 142.227C66.4297 142.414 66.375 142.612 66.375 142.82C66.375 142.977 66.401 143.117 66.4531 143.242C66.5104 143.362 66.6094 143.474 66.75 143.578C66.8906 143.677 67.0885 143.771 67.3438 143.859C67.599 143.948 67.9245 144.036 68.3203 144.125C69.013 144.281 69.5833 144.469 70.0312 144.688C70.4792 144.906 70.8125 145.174 71.0312 145.492C71.25 145.81 71.3594 146.195 71.3594 146.648C71.3594 147.018 71.2812 147.357 71.125 147.664C70.974 147.971 70.7526 148.237 70.4609 148.461C70.1745 148.68 69.8307 148.852 69.4297 148.977C69.0339 149.096 68.5885 149.156 68.0938 149.156C67.349 149.156 66.7188 149.023 66.2031 148.758C65.6875 148.492 65.2969 148.148 65.0312 147.727C64.7656 147.305 64.6328 146.859 64.6328 146.391H66.0859C66.1068 146.786 66.2214 147.102 66.4297 147.336C66.638 147.565 66.8932 147.729 67.1953 147.828C67.4974 147.922 67.7969 147.969 68.0938 147.969C68.4896 147.969 68.8203 147.917 69.0859 147.812C69.3568 147.708 69.5625 147.565 69.7031 147.383C69.8438 147.201 69.9141 146.992 69.9141 146.758ZM72.875 144.867V144.688C72.875 144.078 72.9635 143.513 73.1406 142.992C73.3177 142.466 73.5729 142.01 73.9062 141.625C74.2396 141.234 74.6432 140.932 75.1172 140.719C75.5911 140.5 76.1224 140.391 76.7109 140.391C77.3047 140.391 77.8385 140.5 78.3125 140.719C78.7917 140.932 79.1979 141.234 79.5312 141.625C79.8698 142.01 80.1276 142.466 80.3047 142.992C80.4818 143.513 80.5703 144.078 80.5703 144.688V144.867C80.5703 145.477 80.4818 146.042 80.3047 146.562C80.1276 147.083 79.8698 147.539 79.5312 147.93C79.1979 148.315 78.7943 148.617 78.3203 148.836C77.8516 149.049 77.3203 149.156 76.7266 149.156C76.1328 149.156 75.599 149.049 75.125 148.836C74.651 148.617 74.2448 148.315 73.9062 147.93C73.5729 147.539 73.3177 147.083 73.1406 146.562C72.9635 146.042 72.875 145.477 72.875 144.867ZM74.3203 144.688V144.867C74.3203 145.289 74.3698 145.688 74.4688 146.062C74.5677 146.432 74.7161 146.76 74.9141 147.047C75.1172 147.333 75.3698 147.56 75.6719 147.727C75.974 147.888 76.3255 147.969 76.7266 147.969C77.1224 147.969 77.4688 147.888 77.7656 147.727C78.0677 147.56 78.3177 147.333 78.5156 147.047C78.7135 146.76 78.862 146.432 78.9609 146.062C79.0651 145.688 79.1172 145.289 79.1172 144.867V144.688C79.1172 144.271 79.0651 143.878 78.9609 143.508C78.862 143.133 78.7109 142.802 78.5078 142.516C78.3099 142.224 78.0599 141.995 77.7578 141.828C77.4609 141.661 77.112 141.578 76.7109 141.578C76.3151 141.578 75.9661 141.661 75.6641 141.828C75.3672 141.995 75.1172 142.224 74.9141 142.516C74.7161 142.802 74.5677 143.133 74.4688 143.508C74.3698 143.878 74.3203 144.271 74.3203 144.688ZM83.8281 142.352V149H82.3828V140.547H83.75L83.8281 142.352ZM83.4844 144.453L82.8828 144.43C82.888 143.852 82.974 143.318 83.1406 142.828C83.3073 142.333 83.5417 141.904 83.8438 141.539C84.1458 141.174 84.5052 140.893 84.9219 140.695C85.3438 140.492 85.8099 140.391 86.3203 140.391C86.737 140.391 87.112 140.448 87.4453 140.562C87.7786 140.672 88.0625 140.849 88.2969 141.094C88.5365 141.339 88.7188 141.656 88.8438 142.047C88.9688 142.432 89.0312 142.904 89.0312 143.461V149H87.5781V143.445C87.5781 143.003 87.513 142.648 87.3828 142.383C87.2526 142.112 87.0625 141.917 86.8125 141.797C86.5625 141.672 86.2552 141.609 85.8906 141.609C85.5312 141.609 85.2031 141.685 84.9062 141.836C84.6146 141.987 84.362 142.195 84.1484 142.461C83.9401 142.727 83.776 143.031 83.6562 143.375C83.5417 143.714 83.4844 144.073 83.4844 144.453ZM96.2109 147.555V143.203C96.2109 142.87 96.1432 142.581 96.0078 142.336C95.8776 142.086 95.6797 141.893 95.4141 141.758C95.1484 141.622 94.8203 141.555 94.4297 141.555C94.0651 141.555 93.7448 141.617 93.4688 141.742C93.1979 141.867 92.9844 142.031 92.8281 142.234C92.6771 142.438 92.6016 142.656 92.6016 142.891H91.1562C91.1562 142.589 91.2344 142.289 91.3906 141.992C91.5469 141.695 91.7708 141.427 92.0625 141.188C92.3594 140.943 92.7135 140.75 93.125 140.609C93.5417 140.464 94.0052 140.391 94.5156 140.391C95.1302 140.391 95.6719 140.495 96.1406 140.703C96.6146 140.911 96.9844 141.227 97.25 141.648C97.5208 142.065 97.6562 142.589 97.6562 143.219V147.156C97.6562 147.438 97.6797 147.737 97.7266 148.055C97.7786 148.372 97.8542 148.646 97.9531 148.875V149H96.4453C96.3724 148.833 96.3151 148.612 96.2734 148.336C96.2318 148.055 96.2109 147.794 96.2109 147.555ZM96.4609 143.875L96.4766 144.891H95.0156C94.6042 144.891 94.237 144.924 93.9141 144.992C93.5911 145.055 93.3203 145.151 93.1016 145.281C92.8828 145.411 92.7161 145.576 92.6016 145.773C92.487 145.966 92.4297 146.193 92.4297 146.453C92.4297 146.719 92.4896 146.961 92.6094 147.18C92.7292 147.398 92.9089 147.573 93.1484 147.703C93.3932 147.828 93.6927 147.891 94.0469 147.891C94.4896 147.891 94.8802 147.797 95.2188 147.609C95.5573 147.422 95.8255 147.193 96.0234 146.922C96.2266 146.651 96.3359 146.388 96.3516 146.133L96.9688 146.828C96.9323 147.047 96.8333 147.289 96.6719 147.555C96.5104 147.82 96.2943 148.076 96.0234 148.32C95.7578 148.56 95.4401 148.76 95.0703 148.922C94.7057 149.078 94.2943 149.156 93.8359 149.156C93.263 149.156 92.7604 149.044 92.3281 148.82C91.901 148.596 91.5677 148.297 91.3281 147.922C91.0938 147.542 90.9766 147.117 90.9766 146.648C90.9766 146.195 91.0651 145.797 91.2422 145.453C91.4193 145.104 91.6745 144.815 92.0078 144.586C92.3411 144.352 92.7422 144.174 93.2109 144.055C93.6797 143.935 94.2031 143.875 94.7812 143.875H96.4609ZM101.5 137V149H100.047V137H101.5ZM109.234 141.875V149H107.789V140.547H109.195L109.234 141.875ZM111.875 140.5L111.867 141.844C111.747 141.818 111.633 141.802 111.523 141.797C111.419 141.786 111.299 141.781 111.164 141.781C110.831 141.781 110.536 141.833 110.281 141.938C110.026 142.042 109.81 142.188 109.633 142.375C109.456 142.562 109.315 142.786 109.211 143.047C109.112 143.302 109.047 143.583 109.016 143.891L108.609 144.125C108.609 143.615 108.659 143.135 108.758 142.688C108.862 142.24 109.021 141.844 109.234 141.5C109.448 141.151 109.719 140.88 110.047 140.688C110.38 140.49 110.776 140.391 111.234 140.391C111.339 140.391 111.458 140.404 111.594 140.43C111.729 140.451 111.823 140.474 111.875 140.5ZM117.883 147.555V143.203C117.883 142.87 117.815 142.581 117.68 142.336C117.549 142.086 117.352 141.893 117.086 141.758C116.82 141.622 116.492 141.555 116.102 141.555C115.737 141.555 115.417 141.617 115.141 141.742C114.87 141.867 114.656 142.031 114.5 142.234C114.349 142.438 114.273 142.656 114.273 142.891H112.828C112.828 142.589 112.906 142.289 113.062 141.992C113.219 141.695 113.443 141.427 113.734 141.188C114.031 140.943 114.385 140.75 114.797 140.609C115.214 140.464 115.677 140.391 116.188 140.391C116.802 140.391 117.344 140.495 117.812 140.703C118.286 140.911 118.656 141.227 118.922 141.648C119.193 142.065 119.328 142.589 119.328 143.219V147.156C119.328 147.438 119.352 147.737 119.398 148.055C119.451 148.372 119.526 148.646 119.625 148.875V149H118.117C118.044 148.833 117.987 148.612 117.945 148.336C117.904 148.055 117.883 147.794 117.883 147.555ZM118.133 143.875L118.148 144.891H116.688C116.276 144.891 115.909 144.924 115.586 144.992C115.263 145.055 114.992 145.151 114.773 145.281C114.555 145.411 114.388 145.576 114.273 145.773C114.159 145.966 114.102 146.193 114.102 146.453C114.102 146.719 114.161 146.961 114.281 147.18C114.401 147.398 114.581 147.573 114.82 147.703C115.065 147.828 115.365 147.891 115.719 147.891C116.161 147.891 116.552 147.797 116.891 147.609C117.229 147.422 117.497 147.193 117.695 146.922C117.898 146.651 118.008 146.388 118.023 146.133L118.641 146.828C118.604 147.047 118.505 147.289 118.344 147.555C118.182 147.82 117.966 148.076 117.695 148.32C117.43 148.56 117.112 148.76 116.742 148.922C116.378 149.078 115.966 149.156 115.508 149.156C114.935 149.156 114.432 149.044 114 148.82C113.573 148.596 113.24 148.297 113 147.922C112.766 147.542 112.648 147.117 112.648 146.648C112.648 146.195 112.737 145.797 112.914 145.453C113.091 145.104 113.346 144.815 113.68 144.586C114.013 144.352 114.414 144.174 114.883 144.055C115.352 143.935 115.875 143.875 116.453 143.875H118.133ZM125.141 140.547V141.656H120.57V140.547H125.141ZM122.117 138.492H123.562V146.906C123.562 147.193 123.607 147.409 123.695 147.555C123.784 147.701 123.898 147.797 124.039 147.844C124.18 147.891 124.331 147.914 124.492 147.914C124.612 147.914 124.737 147.904 124.867 147.883C125.003 147.857 125.104 147.836 125.172 147.82L125.18 149C125.065 149.036 124.914 149.07 124.727 149.102C124.544 149.138 124.323 149.156 124.062 149.156C123.708 149.156 123.383 149.086 123.086 148.945C122.789 148.805 122.552 148.57 122.375 148.242C122.203 147.909 122.117 147.461 122.117 146.898V138.492ZM130.344 149.156C129.755 149.156 129.221 149.057 128.742 148.859C128.268 148.656 127.859 148.372 127.516 148.008C127.177 147.643 126.917 147.211 126.734 146.711C126.552 146.211 126.461 145.664 126.461 145.07V144.742C126.461 144.055 126.562 143.443 126.766 142.906C126.969 142.365 127.245 141.906 127.594 141.531C127.943 141.156 128.339 140.872 128.781 140.68C129.224 140.487 129.682 140.391 130.156 140.391C130.76 140.391 131.281 140.495 131.719 140.703C132.161 140.911 132.523 141.203 132.805 141.578C133.086 141.948 133.294 142.385 133.43 142.891C133.565 143.391 133.633 143.938 133.633 144.531V145.18H127.32V144H132.188V143.891C132.167 143.516 132.089 143.151 131.953 142.797C131.823 142.443 131.615 142.151 131.328 141.922C131.042 141.693 130.651 141.578 130.156 141.578C129.828 141.578 129.526 141.648 129.25 141.789C128.974 141.924 128.737 142.128 128.539 142.398C128.341 142.669 128.188 143 128.078 143.391C127.969 143.781 127.914 144.232 127.914 144.742V145.07C127.914 145.471 127.969 145.849 128.078 146.203C128.193 146.552 128.357 146.859 128.57 147.125C128.789 147.391 129.052 147.599 129.359 147.75C129.672 147.901 130.026 147.977 130.422 147.977C130.932 147.977 131.365 147.872 131.719 147.664C132.073 147.456 132.383 147.177 132.648 146.828L133.523 147.523C133.341 147.799 133.109 148.062 132.828 148.312C132.547 148.562 132.201 148.766 131.789 148.922C131.383 149.078 130.901 149.156 130.344 149.156ZM144.211 146.758C144.211 146.549 144.164 146.357 144.07 146.18C143.982 145.997 143.797 145.833 143.516 145.688C143.24 145.536 142.823 145.406 142.266 145.297C141.797 145.198 141.372 145.081 140.992 144.945C140.617 144.81 140.297 144.646 140.031 144.453C139.771 144.26 139.57 144.034 139.43 143.773C139.289 143.513 139.219 143.208 139.219 142.859C139.219 142.526 139.292 142.211 139.438 141.914C139.589 141.617 139.799 141.354 140.07 141.125C140.346 140.896 140.677 140.716 141.062 140.586C141.448 140.456 141.878 140.391 142.352 140.391C143.029 140.391 143.607 140.51 144.086 140.75C144.565 140.99 144.932 141.31 145.188 141.711C145.443 142.107 145.57 142.547 145.57 143.031H144.125C144.125 142.797 144.055 142.57 143.914 142.352C143.779 142.128 143.578 141.943 143.312 141.797C143.052 141.651 142.732 141.578 142.352 141.578C141.951 141.578 141.625 141.641 141.375 141.766C141.13 141.885 140.951 142.039 140.836 142.227C140.727 142.414 140.672 142.612 140.672 142.82C140.672 142.977 140.698 143.117 140.75 143.242C140.807 143.362 140.906 143.474 141.047 143.578C141.188 143.677 141.385 143.771 141.641 143.859C141.896 143.948 142.221 144.036 142.617 144.125C143.31 144.281 143.88 144.469 144.328 144.688C144.776 144.906 145.109 145.174 145.328 145.492C145.547 145.81 145.656 146.195 145.656 146.648C145.656 147.018 145.578 147.357 145.422 147.664C145.271 147.971 145.049 148.237 144.758 148.461C144.471 148.68 144.128 148.852 143.727 148.977C143.331 149.096 142.885 149.156 142.391 149.156C141.646 149.156 141.016 149.023 140.5 148.758C139.984 148.492 139.594 148.148 139.328 147.727C139.062 147.305 138.93 146.859 138.93 146.391H140.383C140.404 146.786 140.518 147.102 140.727 147.336C140.935 147.565 141.19 147.729 141.492 147.828C141.794 147.922 142.094 147.969 142.391 147.969C142.786 147.969 143.117 147.917 143.383 147.812C143.654 147.708 143.859 147.565 144 147.383C144.141 147.201 144.211 146.992 144.211 146.758ZM151.062 149.156C150.474 149.156 149.94 149.057 149.461 148.859C148.987 148.656 148.578 148.372 148.234 148.008C147.896 147.643 147.635 147.211 147.453 146.711C147.271 146.211 147.18 145.664 147.18 145.07V144.742C147.18 144.055 147.281 143.443 147.484 142.906C147.688 142.365 147.964 141.906 148.312 141.531C148.661 141.156 149.057 140.872 149.5 140.68C149.943 140.487 150.401 140.391 150.875 140.391C151.479 140.391 152 140.495 152.438 140.703C152.88 140.911 153.242 141.203 153.523 141.578C153.805 141.948 154.013 142.385 154.148 142.891C154.284 143.391 154.352 143.938 154.352 144.531V145.18H148.039V144H152.906V143.891C152.885 143.516 152.807 143.151 152.672 142.797C152.542 142.443 152.333 142.151 152.047 141.922C151.76 141.693 151.37 141.578 150.875 141.578C150.547 141.578 150.245 141.648 149.969 141.789C149.693 141.924 149.456 142.128 149.258 142.398C149.06 142.669 148.906 143 148.797 143.391C148.688 143.781 148.633 144.232 148.633 144.742V145.07C148.633 145.471 148.688 145.849 148.797 146.203C148.911 146.552 149.076 146.859 149.289 147.125C149.508 147.391 149.771 147.599 150.078 147.75C150.391 147.901 150.745 147.977 151.141 147.977C151.651 147.977 152.083 147.872 152.438 147.664C152.792 147.456 153.102 147.177 153.367 146.828L154.242 147.523C154.06 147.799 153.828 148.062 153.547 148.312C153.266 148.562 152.919 148.766 152.508 148.922C152.102 149.078 151.62 149.156 151.062 149.156ZM159.578 140.547V141.656H155.008V140.547H159.578ZM156.555 138.492H158V146.906C158 147.193 158.044 147.409 158.133 147.555C158.221 147.701 158.336 147.797 158.477 147.844C158.617 147.891 158.768 147.914 158.93 147.914C159.049 147.914 159.174 147.904 159.305 147.883C159.44 147.857 159.542 147.836 159.609 147.82L159.617 149C159.503 149.036 159.352 149.07 159.164 149.102C158.982 149.138 158.76 149.156 158.5 149.156C158.146 149.156 157.82 149.086 157.523 148.945C157.227 148.805 156.99 148.57 156.812 148.242C156.641 147.909 156.555 147.461 156.555 146.898V138.492ZM164.812 140.547V141.656H160.242V140.547H164.812ZM161.789 138.492H163.234V146.906C163.234 147.193 163.279 147.409 163.367 147.555C163.456 147.701 163.57 147.797 163.711 147.844C163.852 147.891 164.003 147.914 164.164 147.914C164.284 147.914 164.409 147.904 164.539 147.883C164.674 147.857 164.776 147.836 164.844 147.82L164.852 149C164.737 149.036 164.586 149.07 164.398 149.102C164.216 149.138 163.995 149.156 163.734 149.156C163.38 149.156 163.055 149.086 162.758 148.945C162.461 148.805 162.224 148.57 162.047 148.242C161.875 147.909 161.789 147.461 161.789 146.898V138.492ZM168.078 140.547V149H166.625V140.547H168.078ZM166.516 138.305C166.516 138.07 166.586 137.872 166.727 137.711C166.872 137.549 167.086 137.469 167.367 137.469C167.643 137.469 167.854 137.549 168 137.711C168.151 137.872 168.227 138.07 168.227 138.305C168.227 138.529 168.151 138.721 168 138.883C167.854 139.039 167.643 139.117 167.367 139.117C167.086 139.117 166.872 139.039 166.727 138.883C166.586 138.721 166.516 138.529 166.516 138.305ZM171.844 142.352V149H170.398V140.547H171.766L171.844 142.352ZM171.5 144.453L170.898 144.43C170.904 143.852 170.99 143.318 171.156 142.828C171.323 142.333 171.557 141.904 171.859 141.539C172.161 141.174 172.521 140.893 172.938 140.695C173.359 140.492 173.826 140.391 174.336 140.391C174.753 140.391 175.128 140.448 175.461 140.562C175.794 140.672 176.078 140.849 176.312 141.094C176.552 141.339 176.734 141.656 176.859 142.047C176.984 142.432 177.047 142.904 177.047 143.461V149H175.594V143.445C175.594 143.003 175.529 142.648 175.398 142.383C175.268 142.112 175.078 141.917 174.828 141.797C174.578 141.672 174.271 141.609 173.906 141.609C173.547 141.609 173.219 141.685 172.922 141.836C172.63 141.987 172.378 142.195 172.164 142.461C171.956 142.727 171.792 143.031 171.672 143.375C171.557 143.714 171.5 144.073 171.5 144.453ZM184.719 140.547H186.031V148.82C186.031 149.565 185.88 150.201 185.578 150.727C185.276 151.253 184.854 151.651 184.312 151.922C183.776 152.198 183.156 152.336 182.453 152.336C182.161 152.336 181.818 152.289 181.422 152.195C181.031 152.107 180.646 151.953 180.266 151.734C179.891 151.521 179.576 151.232 179.32 150.867L180.078 150.008C180.432 150.435 180.802 150.732 181.188 150.898C181.578 151.065 181.964 151.148 182.344 151.148C182.802 151.148 183.198 151.062 183.531 150.891C183.865 150.719 184.122 150.464 184.305 150.125C184.492 149.792 184.586 149.38 184.586 148.891V142.406L184.719 140.547ZM178.898 144.867V144.703C178.898 144.057 178.974 143.471 179.125 142.945C179.281 142.414 179.503 141.958 179.789 141.578C180.081 141.198 180.432 140.906 180.844 140.703C181.255 140.495 181.719 140.391 182.234 140.391C182.766 140.391 183.229 140.484 183.625 140.672C184.026 140.854 184.365 141.122 184.641 141.477C184.922 141.826 185.143 142.247 185.305 142.742C185.466 143.237 185.578 143.797 185.641 144.422V145.141C185.583 145.76 185.471 146.318 185.305 146.812C185.143 147.307 184.922 147.729 184.641 148.078C184.365 148.427 184.026 148.695 183.625 148.883C183.224 149.065 182.755 149.156 182.219 149.156C181.714 149.156 181.255 149.049 180.844 148.836C180.438 148.622 180.089 148.323 179.797 147.938C179.505 147.552 179.281 147.099 179.125 146.578C178.974 146.052 178.898 145.482 178.898 144.867ZM180.344 144.703V144.867C180.344 145.289 180.385 145.685 180.469 146.055C180.557 146.424 180.69 146.75 180.867 147.031C181.049 147.312 181.281 147.534 181.562 147.695C181.844 147.852 182.18 147.93 182.57 147.93C183.049 147.93 183.445 147.828 183.758 147.625C184.07 147.422 184.318 147.154 184.5 146.82C184.688 146.487 184.833 146.125 184.938 145.734V143.852C184.88 143.565 184.792 143.289 184.672 143.023C184.557 142.753 184.406 142.513 184.219 142.305C184.036 142.091 183.81 141.922 183.539 141.797C183.268 141.672 182.951 141.609 182.586 141.609C182.19 141.609 181.849 141.693 181.562 141.859C181.281 142.021 181.049 142.245 180.867 142.531C180.69 142.812 180.557 143.141 180.469 143.516C180.385 143.885 180.344 144.281 180.344 144.703Z" fill="#2F2F2F"/>
</svg>
